%TF.GenerationSoftware,KiCad,Pcbnew,(6.0.6-0)*%
%TF.CreationDate,2023-05-31T20:28:53-07:00*%
%TF.ProjectId,HCT20,48435432-302e-46b6-9963-61645f706362,rev?*%
%TF.SameCoordinates,Original*%
%TF.FileFunction,Soldermask,Top*%
%TF.FilePolarity,Negative*%
%FSLAX46Y46*%
G04 Gerber Fmt 4.6, Leading zero omitted, Abs format (unit mm)*
G04 Created by KiCad (PCBNEW (6.0.6-0)) date 2023-05-31 20:28:53*
%MOMM*%
%LPD*%
G01*
G04 APERTURE LIST*
G04 Aperture macros list*
%AMRoundRect*
0 Rectangle with rounded corners*
0 $1 Rounding radius*
0 $2 $3 $4 $5 $6 $7 $8 $9 X,Y pos of 4 corners*
0 Add a 4 corners polygon primitive as box body*
4,1,4,$2,$3,$4,$5,$6,$7,$8,$9,$2,$3,0*
0 Add four circle primitives for the rounded corners*
1,1,$1+$1,$2,$3*
1,1,$1+$1,$4,$5*
1,1,$1+$1,$6,$7*
1,1,$1+$1,$8,$9*
0 Add four rect primitives between the rounded corners*
20,1,$1+$1,$2,$3,$4,$5,0*
20,1,$1+$1,$4,$5,$6,$7,0*
20,1,$1+$1,$6,$7,$8,$9,0*
20,1,$1+$1,$8,$9,$2,$3,0*%
%AMFreePoly0*
4,1,6,1.000000,0.000000,0.500000,-0.750000,-0.500000,-0.750000,-0.500000,0.750000,0.500000,0.750000,1.000000,0.000000,1.000000,0.000000,$1*%
%AMFreePoly1*
4,1,6,0.500000,-0.750000,-0.650000,-0.750000,-0.150000,0.000000,-0.650000,0.750000,0.500000,0.750000,0.500000,-0.750000,0.500000,-0.750000,$1*%
G04 Aperture macros list end*
%ADD10C,2.200000*%
%ADD11RoundRect,0.250000X0.250000X1.500000X-0.250000X1.500000X-0.250000X-1.500000X0.250000X-1.500000X0*%
%ADD12RoundRect,0.250001X0.499999X1.449999X-0.499999X1.449999X-0.499999X-1.449999X0.499999X-1.449999X0*%
%ADD13RoundRect,0.200000X0.200000X0.275000X-0.200000X0.275000X-0.200000X-0.275000X0.200000X-0.275000X0*%
%ADD14RoundRect,0.243750X-0.456250X0.243750X-0.456250X-0.243750X0.456250X-0.243750X0.456250X0.243750X0*%
%ADD15FreePoly0,90.000000*%
%ADD16FreePoly1,90.000000*%
%ADD17R,2.100000X2.100000*%
%ADD18C,2.100000*%
%ADD19RoundRect,0.225000X-0.250000X0.225000X-0.250000X-0.225000X0.250000X-0.225000X0.250000X0.225000X0*%
%ADD20RoundRect,0.250000X-0.312500X-1.075000X0.312500X-1.075000X0.312500X1.075000X-0.312500X1.075000X0*%
%ADD21RoundRect,0.250000X0.250000X0.475000X-0.250000X0.475000X-0.250000X-0.475000X0.250000X-0.475000X0*%
%ADD22RoundRect,0.200000X0.275000X-0.200000X0.275000X0.200000X-0.275000X0.200000X-0.275000X-0.200000X0*%
%ADD23RoundRect,0.200000X-0.200000X-0.275000X0.200000X-0.275000X0.200000X0.275000X-0.200000X0.275000X0*%
%ADD24RoundRect,0.250000X-0.250000X-0.475000X0.250000X-0.475000X0.250000X0.475000X-0.250000X0.475000X0*%
%ADD25RoundRect,0.150000X0.150000X-0.825000X0.150000X0.825000X-0.150000X0.825000X-0.150000X-0.825000X0*%
G04 APERTURE END LIST*
D10*
%TO.C,REF\u002A\u002A*%
X110000000Y-118000000D03*
%TD*%
D11*
%TO.C,J3*%
X113000000Y-69200000D03*
X111000000Y-69200000D03*
X109000000Y-69200000D03*
X107000000Y-69200000D03*
D12*
X115350000Y-62300000D03*
X104650000Y-62300000D03*
%TD*%
D10*
%TO.C,REF\u002A\u002A*%
X120000000Y-70000000D03*
%TD*%
D13*
%TO.C,R4*%
X109425000Y-86100000D03*
X107775000Y-86100000D03*
%TD*%
D10*
%TO.C,REF\u002A\u002A*%
X110000000Y-100000000D03*
%TD*%
D14*
%TO.C,D1*%
X101840000Y-62202500D03*
X101840000Y-64077500D03*
%TD*%
D15*
%TO.C,JP4*%
X118200000Y-63250000D03*
D16*
X118200000Y-61800000D03*
%TD*%
D17*
%TO.C,J1*%
X103840000Y-95550000D03*
D18*
X106380000Y-95550000D03*
X108920000Y-95550000D03*
X111460000Y-95550000D03*
X114000000Y-95550000D03*
X116540000Y-95550000D03*
%TD*%
D19*
%TO.C,C8*%
X109200000Y-74425000D03*
X109200000Y-75975000D03*
%TD*%
D13*
%TO.C,R12*%
X116225000Y-72000000D03*
X114575000Y-72000000D03*
%TD*%
D20*
%TO.C,R8*%
X103837500Y-90200000D03*
X106762500Y-90200000D03*
%TD*%
D10*
%TO.C,REF\u002A\u002A*%
X100000000Y-70000000D03*
%TD*%
D21*
%TO.C,C9*%
X119050000Y-83200000D03*
X117150000Y-83200000D03*
%TD*%
D15*
%TO.C,JP5*%
X118200000Y-66625000D03*
D16*
X118200000Y-65175000D03*
%TD*%
D15*
%TO.C,JP6*%
X118200000Y-73925000D03*
D16*
X118200000Y-72475000D03*
%TD*%
D22*
%TO.C,R11*%
X101900000Y-67925000D03*
X101900000Y-66275000D03*
%TD*%
D17*
%TO.C,J2*%
X103100000Y-73400000D03*
D18*
X103100000Y-75940000D03*
X103100000Y-78480000D03*
X103100000Y-81020000D03*
X103100000Y-83560000D03*
X103100000Y-86100000D03*
%TD*%
D23*
%TO.C,R13*%
X107775000Y-87700000D03*
X109425000Y-87700000D03*
%TD*%
D19*
%TO.C,C1*%
X107700000Y-74425000D03*
X107700000Y-75975000D03*
%TD*%
D20*
%TO.C,R10*%
X113037500Y-90200000D03*
X115962500Y-90200000D03*
%TD*%
%TO.C,R9*%
X108437500Y-90200000D03*
X111362500Y-90200000D03*
%TD*%
D23*
%TO.C,R15*%
X113775000Y-87700000D03*
X115425000Y-87700000D03*
%TD*%
%TO.C,R7*%
X117075000Y-86600000D03*
X118725000Y-86600000D03*
%TD*%
D13*
%TO.C,R5*%
X112425000Y-86100000D03*
X110775000Y-86100000D03*
%TD*%
%TO.C,R2*%
X118725000Y-85000000D03*
X117075000Y-85000000D03*
%TD*%
D24*
%TO.C,C3*%
X111050000Y-74600000D03*
X112950000Y-74600000D03*
%TD*%
D13*
%TO.C,R6*%
X115425000Y-86100000D03*
X113775000Y-86100000D03*
%TD*%
D23*
%TO.C,R1*%
X117075000Y-81400000D03*
X118725000Y-81400000D03*
%TD*%
%TO.C,R14*%
X110775000Y-87700000D03*
X112425000Y-87700000D03*
%TD*%
D25*
%TO.C,U1*%
X107790000Y-83475000D03*
X109060000Y-83475000D03*
X110330000Y-83475000D03*
X111600000Y-83475000D03*
X112870000Y-83475000D03*
X114140000Y-83475000D03*
X115410000Y-83475000D03*
X115410000Y-78525000D03*
X114140000Y-78525000D03*
X112870000Y-78525000D03*
X111600000Y-78525000D03*
X110330000Y-78525000D03*
X109060000Y-78525000D03*
X107790000Y-78525000D03*
%TD*%
M02*
