%TF.GenerationSoftware,KiCad,Pcbnew,(6.0.6-0)*%
%TF.CreationDate,2023-05-31T20:28:53-07:00*%
%TF.ProjectId,HCT20,48435432-302e-46b6-9963-61645f706362,rev?*%
%TF.SameCoordinates,Original*%
%TF.FileFunction,Copper,L2,Bot*%
%TF.FilePolarity,Positive*%
%FSLAX46Y46*%
G04 Gerber Fmt 4.6, Leading zero omitted, Abs format (unit mm)*
G04 Created by KiCad (PCBNEW (6.0.6-0)) date 2023-05-31 20:28:53*
%MOMM*%
%LPD*%
G01*
G04 APERTURE LIST*
%TA.AperFunction,ComponentPad*%
%ADD10R,2.100000X2.100000*%
%TD*%
%TA.AperFunction,ComponentPad*%
%ADD11C,2.100000*%
%TD*%
%TA.AperFunction,ViaPad*%
%ADD12C,0.800000*%
%TD*%
%TA.AperFunction,Conductor*%
%ADD13C,0.250000*%
%TD*%
%TA.AperFunction,Conductor*%
%ADD14C,0.500000*%
%TD*%
G04 APERTURE END LIST*
D10*
%TO.P,J1,1,Pin_1*%
%TO.N,CHA*%
X103840000Y-95550000D03*
D11*
%TO.P,J1,2,Pin_2*%
%TO.N,Voffset2*%
X106380000Y-95550000D03*
%TO.P,J1,3,Pin_3*%
%TO.N,CHB*%
X108920000Y-95550000D03*
%TO.P,J1,4,Pin_4*%
%TO.N,Voffset2*%
X111460000Y-95550000D03*
%TO.P,J1,5,Pin_5*%
%TO.N,CHC*%
X114000000Y-95550000D03*
%TO.P,J1,6,Pin_6*%
%TO.N,Voffset2*%
X116540000Y-95550000D03*
%TD*%
D10*
%TO.P,J2,1,Pin_1*%
%TO.N,UDPI_PA0*%
X103100000Y-73400000D03*
D11*
%TO.P,J2,2,Pin_2*%
%TO.N,TX1_PA1*%
X103100000Y-75940000D03*
%TO.P,J2,3,Pin_3*%
%TO.N,RX1_PA2*%
X103100000Y-78480000D03*
%TO.P,J2,4,Pin_4*%
%TO.N,PA3*%
X103100000Y-81020000D03*
%TO.P,J2,5,Pin_5*%
%TO.N,TX0_PB2*%
X103100000Y-83560000D03*
%TO.P,J2,6,Pin_6*%
%TO.N,RX0_PB3*%
X103100000Y-86100000D03*
%TD*%
D12*
%TO.N,GND*%
X116500000Y-73700000D03*
X112900000Y-66200000D03*
X116700000Y-62500000D03*
X116800000Y-65700000D03*
X103000000Y-63200000D03*
%TO.N,PA3*%
X109482970Y-79625500D03*
%TO.N,TX1_PA1*%
X112022970Y-79625500D03*
X116700000Y-67200000D03*
X110700000Y-76900000D03*
%TO.N,RX1_PA2*%
X118200000Y-75400000D03*
X110752970Y-79625500D03*
%TO.N,TX0_PB2*%
X115200000Y-82249500D03*
%TO.N,RX0_PB3*%
X113653522Y-82249500D03*
%TO.N,SDA_PB1*%
X115000000Y-76900000D03*
X109000000Y-72275500D03*
%TO.N,SCL_PB0*%
X113800000Y-77000000D03*
X107000000Y-73000000D03*
%TD*%
D13*
%TO.N,GND*%
X116500000Y-73700000D02*
X116500000Y-68200000D01*
D14*
X112900000Y-66200000D02*
X115800000Y-66200000D01*
X106000000Y-66200000D02*
X103000000Y-63200000D01*
X112900000Y-66200000D02*
X106000000Y-66200000D01*
X116300000Y-66200000D02*
X116800000Y-65700000D01*
X112900000Y-66200000D02*
X116600000Y-62500000D01*
D13*
X116500000Y-68200000D02*
X115800000Y-67500000D01*
D14*
X116600000Y-62500000D02*
X116700000Y-62500000D01*
D13*
X115800000Y-67500000D02*
X115800000Y-66200000D01*
D14*
X115800000Y-66200000D02*
X116300000Y-66200000D01*
D13*
%TO.N,PA3*%
X109482970Y-79625500D02*
X104494500Y-79625500D01*
X104494500Y-79625500D02*
X103100000Y-81020000D01*
D14*
%TO.N,Voffset2*%
X107880000Y-97500000D02*
X109960000Y-97500000D01*
X111460000Y-96000000D02*
X112960000Y-97500000D01*
X109960000Y-97500000D02*
X111460000Y-96000000D01*
X106380000Y-96000000D02*
X107880000Y-97500000D01*
X115040000Y-97500000D02*
X116540000Y-96000000D01*
X112960000Y-97500000D02*
X115040000Y-97500000D01*
D13*
%TO.N,TX1_PA1*%
X110000000Y-78000000D02*
X105160000Y-78000000D01*
X117425000Y-67925000D02*
X117425000Y-76136701D01*
X112900000Y-78300000D02*
X112022970Y-79177030D01*
X110700000Y-77300000D02*
X110000000Y-78000000D01*
X116700000Y-67200000D02*
X117425000Y-67925000D01*
X105160000Y-78000000D02*
X103100000Y-75940000D01*
X117425000Y-76136701D02*
X115261701Y-78300000D01*
X115261701Y-78300000D02*
X112900000Y-78300000D01*
X110700000Y-76900000D02*
X110700000Y-77300000D01*
X112022970Y-79177030D02*
X112022970Y-79625500D01*
%TO.N,RX1_PA2*%
X118200000Y-75400000D02*
X118200000Y-76200000D01*
X111477970Y-80350500D02*
X110752970Y-79625500D01*
X118200000Y-76200000D02*
X115600000Y-78800000D01*
X110752970Y-79625500D02*
X109607470Y-78480000D01*
X112323275Y-80350500D02*
X111477970Y-80350500D01*
X115600000Y-78800000D02*
X113873775Y-78800000D01*
X109607470Y-78480000D02*
X103100000Y-78480000D01*
X113873775Y-78800000D02*
X112323275Y-80350500D01*
%TO.N,TX0_PB2*%
X112875500Y-81524500D02*
X110840000Y-83560000D01*
X110840000Y-83560000D02*
X103100000Y-83560000D01*
X115200000Y-82249500D02*
X114475000Y-81524500D01*
X114475000Y-81524500D02*
X112875500Y-81524500D01*
%TO.N,RX0_PB3*%
X104900000Y-84300000D02*
X103100000Y-86100000D01*
X110900000Y-84300000D02*
X104900000Y-84300000D01*
X113653522Y-82249500D02*
X112950500Y-82249500D01*
X112950500Y-82249500D02*
X110900000Y-84300000D01*
%TO.N,SDA_PB1*%
X115000000Y-76900000D02*
X110600000Y-72500000D01*
X110600000Y-72500000D02*
X109000000Y-72500000D01*
X109000000Y-72500000D02*
X109000000Y-72275500D01*
%TO.N,SCL_PB0*%
X113800000Y-77000000D02*
X109800000Y-73000000D01*
X109800000Y-73000000D02*
X107000000Y-73000000D01*
%TD*%
%TA.AperFunction,Conductor*%
%TO.N,GND*%
G36*
X106980138Y-60528502D02*
G01*
X107026631Y-60582158D01*
X107031551Y-60594655D01*
X107044833Y-60634500D01*
X107500000Y-62000000D01*
X107511581Y-62007720D01*
X107511581Y-62007721D01*
X108984477Y-62989652D01*
X108984479Y-62989653D01*
X109000000Y-63000000D01*
X111000000Y-63000000D01*
X111015521Y-62989653D01*
X111015523Y-62989652D01*
X111995125Y-62336583D01*
X112500000Y-62000000D01*
X112955167Y-60634500D01*
X112968449Y-60594655D01*
X113008966Y-60536355D01*
X113074571Y-60509216D01*
X113087983Y-60508500D01*
X119365500Y-60508500D01*
X119433621Y-60528502D01*
X119480114Y-60582158D01*
X119491500Y-60634500D01*
X119491500Y-67891377D01*
X119491498Y-67892147D01*
X119491024Y-67969721D01*
X119493491Y-67978352D01*
X119495149Y-67984154D01*
X119500000Y-68018779D01*
X119500000Y-68381888D01*
X119479998Y-68450009D01*
X119422218Y-68498297D01*
X119272072Y-68560489D01*
X119272068Y-68560491D01*
X119267498Y-68562384D01*
X119263278Y-68564970D01*
X119225708Y-68587993D01*
X119199718Y-68600094D01*
X118617186Y-68794271D01*
X118617185Y-68794272D01*
X118600000Y-68800000D01*
X118595238Y-68809524D01*
X118595237Y-68809525D01*
X118297198Y-69405604D01*
X118248843Y-69457588D01*
X118180060Y-69475177D01*
X118112686Y-69452786D01*
X118068113Y-69397526D01*
X118058500Y-69349255D01*
X118058500Y-68003767D01*
X118059027Y-67992584D01*
X118060702Y-67985091D01*
X118058562Y-67917000D01*
X118058500Y-67913043D01*
X118058500Y-67885144D01*
X118057996Y-67881153D01*
X118057063Y-67869311D01*
X118055923Y-67833036D01*
X118055674Y-67825111D01*
X118053462Y-67817497D01*
X118053461Y-67817492D01*
X118050023Y-67805659D01*
X118046012Y-67786295D01*
X118044467Y-67774064D01*
X118043474Y-67766203D01*
X118040557Y-67758836D01*
X118040556Y-67758831D01*
X118027198Y-67725092D01*
X118023354Y-67713865D01*
X118013230Y-67679022D01*
X118011018Y-67671407D01*
X118000707Y-67653972D01*
X117992012Y-67636224D01*
X117984552Y-67617383D01*
X117958564Y-67581613D01*
X117952048Y-67571693D01*
X117933580Y-67540465D01*
X117933578Y-67540462D01*
X117929542Y-67533638D01*
X117915221Y-67519317D01*
X117902380Y-67504283D01*
X117895132Y-67494307D01*
X117890472Y-67487893D01*
X117856401Y-67459707D01*
X117847622Y-67451718D01*
X117647122Y-67251218D01*
X117613096Y-67188906D01*
X117610907Y-67175293D01*
X117594232Y-67016635D01*
X117594232Y-67016633D01*
X117593542Y-67010072D01*
X117534527Y-66828444D01*
X117439040Y-66663056D01*
X117311253Y-66521134D01*
X117156752Y-66408882D01*
X117150724Y-66406198D01*
X117150722Y-66406197D01*
X116988319Y-66333891D01*
X116988318Y-66333891D01*
X116982288Y-66331206D01*
X116888888Y-66311353D01*
X116801944Y-66292872D01*
X116801939Y-66292872D01*
X116795487Y-66291500D01*
X116604513Y-66291500D01*
X116598061Y-66292872D01*
X116598056Y-66292872D01*
X116511112Y-66311353D01*
X116417712Y-66331206D01*
X116411682Y-66333891D01*
X116411681Y-66333891D01*
X116249278Y-66406197D01*
X116249276Y-66406198D01*
X116243248Y-66408882D01*
X116088747Y-66521134D01*
X115960960Y-66663056D01*
X115865473Y-66828444D01*
X115806458Y-67010072D01*
X115786496Y-67200000D01*
X115806458Y-67389928D01*
X115865473Y-67571556D01*
X115960960Y-67736944D01*
X115965378Y-67741851D01*
X115965379Y-67741852D01*
X116050602Y-67836502D01*
X116088747Y-67878866D01*
X116172359Y-67939614D01*
X116234953Y-67985091D01*
X116243248Y-67991118D01*
X116249276Y-67993802D01*
X116249278Y-67993803D01*
X116375949Y-68050200D01*
X116417712Y-68068794D01*
X116492732Y-68084740D01*
X116598056Y-68107128D01*
X116598061Y-68107128D01*
X116604513Y-68108500D01*
X116660405Y-68108500D01*
X116728526Y-68128502D01*
X116749500Y-68145405D01*
X116754595Y-68150500D01*
X116788621Y-68212812D01*
X116791500Y-68239595D01*
X116791500Y-75822107D01*
X116771498Y-75890228D01*
X116754595Y-75911202D01*
X116054181Y-76611616D01*
X115991869Y-76645642D01*
X115921054Y-76640577D01*
X115864218Y-76598030D01*
X115845255Y-76561460D01*
X115834527Y-76528444D01*
X115828362Y-76517765D01*
X115751951Y-76385419D01*
X115739040Y-76363056D01*
X115713307Y-76334476D01*
X115615675Y-76226045D01*
X115615674Y-76226044D01*
X115611253Y-76221134D01*
X115456752Y-76108882D01*
X115450724Y-76106198D01*
X115450722Y-76106197D01*
X115288319Y-76033891D01*
X115288318Y-76033891D01*
X115282288Y-76031206D01*
X115188888Y-76011353D01*
X115101944Y-75992872D01*
X115101939Y-75992872D01*
X115095487Y-75991500D01*
X115039594Y-75991500D01*
X114971473Y-75971498D01*
X114950499Y-75954595D01*
X111103652Y-72107747D01*
X111096112Y-72099461D01*
X111092000Y-72092982D01*
X111042348Y-72046356D01*
X111039507Y-72043602D01*
X111019770Y-72023865D01*
X111016573Y-72021385D01*
X111007551Y-72013680D01*
X110981100Y-71988841D01*
X110975321Y-71983414D01*
X110968375Y-71979595D01*
X110968372Y-71979593D01*
X110957566Y-71973652D01*
X110941047Y-71962801D01*
X110940583Y-71962441D01*
X110925041Y-71950386D01*
X110917772Y-71947241D01*
X110917768Y-71947238D01*
X110884463Y-71932826D01*
X110873813Y-71927609D01*
X110835060Y-71906305D01*
X110815437Y-71901267D01*
X110796734Y-71894863D01*
X110785420Y-71889967D01*
X110785419Y-71889967D01*
X110778145Y-71886819D01*
X110770322Y-71885580D01*
X110770312Y-71885577D01*
X110734476Y-71879901D01*
X110722856Y-71877495D01*
X110687711Y-71868472D01*
X110687710Y-71868472D01*
X110680030Y-71866500D01*
X110659776Y-71866500D01*
X110640065Y-71864949D01*
X110627886Y-71863020D01*
X110620057Y-71861780D01*
X110612165Y-71862526D01*
X110576039Y-71865941D01*
X110564181Y-71866500D01*
X109885655Y-71866500D01*
X109817534Y-71846498D01*
X109776536Y-71803501D01*
X109739040Y-71738556D01*
X109635541Y-71623608D01*
X109615675Y-71601545D01*
X109615674Y-71601544D01*
X109611253Y-71596634D01*
X109456752Y-71484382D01*
X109450724Y-71481698D01*
X109450722Y-71481697D01*
X109288319Y-71409391D01*
X109288318Y-71409391D01*
X109282288Y-71406706D01*
X109188888Y-71386853D01*
X109101944Y-71368372D01*
X109101939Y-71368372D01*
X109095487Y-71367000D01*
X108904513Y-71367000D01*
X108898061Y-71368372D01*
X108898056Y-71368372D01*
X108811112Y-71386853D01*
X108717712Y-71406706D01*
X108711682Y-71409391D01*
X108711681Y-71409391D01*
X108549278Y-71481697D01*
X108549276Y-71481698D01*
X108543248Y-71484382D01*
X108388747Y-71596634D01*
X108384326Y-71601544D01*
X108384325Y-71601545D01*
X108364460Y-71623608D01*
X108260960Y-71738556D01*
X108223464Y-71803501D01*
X108173543Y-71889967D01*
X108165473Y-71903944D01*
X108106458Y-72085572D01*
X108105768Y-72092133D01*
X108105768Y-72092135D01*
X108088790Y-72253671D01*
X108061777Y-72319327D01*
X108003555Y-72359957D01*
X107963480Y-72366500D01*
X107708200Y-72366500D01*
X107640079Y-72346498D01*
X107620853Y-72330157D01*
X107620580Y-72330460D01*
X107615668Y-72326037D01*
X107611253Y-72321134D01*
X107580057Y-72298469D01*
X107462094Y-72212763D01*
X107462093Y-72212762D01*
X107456752Y-72208882D01*
X107450724Y-72206198D01*
X107450722Y-72206197D01*
X107288319Y-72133891D01*
X107288318Y-72133891D01*
X107282288Y-72131206D01*
X107173960Y-72108180D01*
X107101944Y-72092872D01*
X107101939Y-72092872D01*
X107095487Y-72091500D01*
X106904513Y-72091500D01*
X106898061Y-72092872D01*
X106898056Y-72092872D01*
X106826040Y-72108180D01*
X106717712Y-72131206D01*
X106711682Y-72133891D01*
X106711681Y-72133891D01*
X106549278Y-72206197D01*
X106549276Y-72206198D01*
X106543248Y-72208882D01*
X106388747Y-72321134D01*
X106260960Y-72463056D01*
X106165473Y-72628444D01*
X106106458Y-72810072D01*
X106086496Y-73000000D01*
X106106458Y-73189928D01*
X106165473Y-73371556D01*
X106260960Y-73536944D01*
X106388747Y-73678866D01*
X106543248Y-73791118D01*
X106549276Y-73793802D01*
X106549278Y-73793803D01*
X106711681Y-73866109D01*
X106717712Y-73868794D01*
X106811112Y-73888647D01*
X106898056Y-73907128D01*
X106898061Y-73907128D01*
X106904513Y-73908500D01*
X107095487Y-73908500D01*
X107101939Y-73907128D01*
X107101944Y-73907128D01*
X107188888Y-73888647D01*
X107282288Y-73868794D01*
X107288319Y-73866109D01*
X107450722Y-73793803D01*
X107450724Y-73793802D01*
X107456752Y-73791118D01*
X107611253Y-73678866D01*
X107615668Y-73673963D01*
X107620580Y-73669540D01*
X107621705Y-73670789D01*
X107675014Y-73637949D01*
X107708200Y-73633500D01*
X109485406Y-73633500D01*
X109553527Y-73653502D01*
X109574501Y-73670405D01*
X112852878Y-76948782D01*
X112886904Y-77011094D01*
X112889092Y-77024703D01*
X112906458Y-77189928D01*
X112965473Y-77371556D01*
X113006059Y-77441852D01*
X113026115Y-77476590D01*
X113042853Y-77545585D01*
X113019633Y-77612677D01*
X112963826Y-77656564D01*
X112920954Y-77665528D01*
X112892002Y-77666438D01*
X112888044Y-77666500D01*
X112860144Y-77666500D01*
X112856154Y-77667004D01*
X112844320Y-77667936D01*
X112800111Y-77669326D01*
X112792497Y-77671538D01*
X112792492Y-77671539D01*
X112780659Y-77674977D01*
X112761296Y-77678988D01*
X112741203Y-77681526D01*
X112733836Y-77684443D01*
X112733831Y-77684444D01*
X112700092Y-77697802D01*
X112688865Y-77701646D01*
X112646407Y-77713982D01*
X112639581Y-77718019D01*
X112628972Y-77724293D01*
X112611224Y-77732988D01*
X112592383Y-77740448D01*
X112585967Y-77745110D01*
X112585966Y-77745110D01*
X112556613Y-77766436D01*
X112546693Y-77772952D01*
X112515465Y-77791420D01*
X112515462Y-77791422D01*
X112508638Y-77795458D01*
X112494317Y-77809779D01*
X112479284Y-77822619D01*
X112462893Y-77834528D01*
X112457842Y-77840633D01*
X112457837Y-77840638D01*
X112434701Y-77868604D01*
X112426713Y-77877382D01*
X111630717Y-78673378D01*
X111622431Y-78680918D01*
X111615952Y-78685030D01*
X111610527Y-78690807D01*
X111569327Y-78734681D01*
X111566572Y-78737523D01*
X111546835Y-78757260D01*
X111544355Y-78760457D01*
X111536652Y-78769477D01*
X111506384Y-78801709D01*
X111502565Y-78808655D01*
X111502563Y-78808658D01*
X111496622Y-78819464D01*
X111485771Y-78835983D01*
X111473356Y-78851989D01*
X111471580Y-78856094D01*
X111420808Y-78903500D01*
X111350958Y-78916205D01*
X111290190Y-78892845D01*
X111209722Y-78834382D01*
X111203694Y-78831698D01*
X111203692Y-78831697D01*
X111041289Y-78759391D01*
X111041288Y-78759391D01*
X111035258Y-78756706D01*
X110931639Y-78734681D01*
X110854914Y-78718372D01*
X110854909Y-78718372D01*
X110848457Y-78717000D01*
X110792564Y-78717000D01*
X110724443Y-78696998D01*
X110703469Y-78680095D01*
X110548734Y-78525360D01*
X110514708Y-78463048D01*
X110519773Y-78392233D01*
X110548734Y-78347170D01*
X111092247Y-77803657D01*
X111100537Y-77796113D01*
X111107018Y-77792000D01*
X111153659Y-77742332D01*
X111156413Y-77739491D01*
X111176134Y-77719770D01*
X111178612Y-77716575D01*
X111186318Y-77707553D01*
X111211158Y-77681101D01*
X111216586Y-77675321D01*
X111226346Y-77657568D01*
X111237194Y-77641052D01*
X111241088Y-77636031D01*
X111266592Y-77611314D01*
X111311253Y-77578866D01*
X111439040Y-77436944D01*
X111534527Y-77271556D01*
X111593542Y-77089928D01*
X111597882Y-77048641D01*
X111612814Y-76906565D01*
X111613504Y-76900000D01*
X111593542Y-76710072D01*
X111534527Y-76528444D01*
X111528362Y-76517765D01*
X111451951Y-76385419D01*
X111439040Y-76363056D01*
X111413307Y-76334476D01*
X111315675Y-76226045D01*
X111315674Y-76226044D01*
X111311253Y-76221134D01*
X111156752Y-76108882D01*
X111150724Y-76106198D01*
X111150722Y-76106197D01*
X110988319Y-76033891D01*
X110988318Y-76033891D01*
X110982288Y-76031206D01*
X110888888Y-76011353D01*
X110801944Y-75992872D01*
X110801939Y-75992872D01*
X110795487Y-75991500D01*
X110604513Y-75991500D01*
X110598061Y-75992872D01*
X110598056Y-75992872D01*
X110511112Y-76011353D01*
X110417712Y-76031206D01*
X110411682Y-76033891D01*
X110411681Y-76033891D01*
X110249278Y-76106197D01*
X110249276Y-76106198D01*
X110243248Y-76108882D01*
X110088747Y-76221134D01*
X110084326Y-76226044D01*
X110084325Y-76226045D01*
X109986694Y-76334476D01*
X109960960Y-76363056D01*
X109948049Y-76385419D01*
X109871639Y-76517765D01*
X109865473Y-76528444D01*
X109806458Y-76710072D01*
X109786496Y-76900000D01*
X109787186Y-76906565D01*
X109802119Y-77048641D01*
X109806458Y-77089928D01*
X109808498Y-77096206D01*
X109833536Y-77173266D01*
X109835563Y-77244234D01*
X109802798Y-77301297D01*
X109774500Y-77329595D01*
X109712188Y-77363621D01*
X109685405Y-77366500D01*
X105474594Y-77366500D01*
X105406473Y-77346498D01*
X105385499Y-77329595D01*
X104614656Y-76558752D01*
X104580630Y-76496440D01*
X104583918Y-76430719D01*
X104584909Y-76427670D01*
X104586805Y-76423092D01*
X104609488Y-76328611D01*
X104642917Y-76189370D01*
X104642918Y-76189364D01*
X104644072Y-76184557D01*
X104663319Y-75940000D01*
X104644072Y-75695443D01*
X104620248Y-75596206D01*
X104587960Y-75461720D01*
X104586805Y-75456908D01*
X104492927Y-75230268D01*
X104384168Y-75052788D01*
X104365630Y-74984255D01*
X104387087Y-74916578D01*
X104416035Y-74886128D01*
X104446820Y-74863056D01*
X104513261Y-74813261D01*
X104600615Y-74696705D01*
X104651745Y-74560316D01*
X104658500Y-74498134D01*
X104658500Y-72301866D01*
X104651745Y-72239684D01*
X104600615Y-72103295D01*
X104513261Y-71986739D01*
X104396705Y-71899385D01*
X104260316Y-71848255D01*
X104198134Y-71841500D01*
X102001866Y-71841500D01*
X101939684Y-71848255D01*
X101803295Y-71899385D01*
X101686739Y-71986739D01*
X101599385Y-72103295D01*
X101548255Y-72239684D01*
X101541500Y-72301866D01*
X101541500Y-74498134D01*
X101548255Y-74560316D01*
X101599385Y-74696705D01*
X101686739Y-74813261D01*
X101753180Y-74863056D01*
X101783965Y-74886128D01*
X101826479Y-74942988D01*
X101831504Y-75013806D01*
X101815832Y-75052788D01*
X101707073Y-75230268D01*
X101613195Y-75456908D01*
X101612040Y-75461720D01*
X101579753Y-75596206D01*
X101555928Y-75695443D01*
X101536681Y-75940000D01*
X101555928Y-76184557D01*
X101557082Y-76189364D01*
X101557083Y-76189370D01*
X101590512Y-76328611D01*
X101613195Y-76423092D01*
X101707073Y-76649732D01*
X101835248Y-76858896D01*
X101838463Y-76862660D01*
X101838465Y-76862663D01*
X101942161Y-76984074D01*
X101994567Y-77045433D01*
X101998323Y-77048641D01*
X102075069Y-77114189D01*
X102113878Y-77173640D01*
X102114384Y-77244635D01*
X102075069Y-77305811D01*
X101994567Y-77374567D01*
X101991359Y-77378323D01*
X101848503Y-77545585D01*
X101835248Y-77561104D01*
X101832660Y-77565327D01*
X101832658Y-77565330D01*
X101821985Y-77582747D01*
X101707073Y-77770268D01*
X101613195Y-77996908D01*
X101555928Y-78235443D01*
X101536681Y-78480000D01*
X101555928Y-78724557D01*
X101557082Y-78729364D01*
X101557083Y-78729370D01*
X101585019Y-78845729D01*
X101613195Y-78963092D01*
X101707073Y-79189732D01*
X101764354Y-79283207D01*
X101812926Y-79362469D01*
X101835248Y-79398896D01*
X101838463Y-79402660D01*
X101838465Y-79402663D01*
X101896323Y-79470405D01*
X101994567Y-79585433D01*
X101998323Y-79588641D01*
X102075069Y-79654189D01*
X102113878Y-79713640D01*
X102114384Y-79784635D01*
X102075069Y-79845811D01*
X101994567Y-79914567D01*
X101835248Y-80101104D01*
X101707073Y-80310268D01*
X101697598Y-80333143D01*
X101631959Y-80491609D01*
X101613195Y-80536908D01*
X101612040Y-80541720D01*
X101561669Y-80751532D01*
X101555928Y-80775443D01*
X101536681Y-81020000D01*
X101555928Y-81264557D01*
X101557082Y-81269364D01*
X101557083Y-81269370D01*
X101583483Y-81379334D01*
X101613195Y-81503092D01*
X101707073Y-81729732D01*
X101835248Y-81938896D01*
X101994567Y-82125433D01*
X101998323Y-82128641D01*
X102075069Y-82194189D01*
X102113878Y-82253640D01*
X102114384Y-82324635D01*
X102075069Y-82385811D01*
X102012292Y-82439428D01*
X101994567Y-82454567D01*
X101991359Y-82458323D01*
X101847483Y-82626779D01*
X101835248Y-82641104D01*
X101707073Y-82850268D01*
X101613195Y-83076908D01*
X101555928Y-83315443D01*
X101536681Y-83560000D01*
X101555928Y-83804557D01*
X101613195Y-84043092D01*
X101707073Y-84269732D01*
X101835248Y-84478896D01*
X101994567Y-84665433D01*
X101998323Y-84668641D01*
X102075069Y-84734189D01*
X102113878Y-84793640D01*
X102114384Y-84864635D01*
X102075069Y-84925811D01*
X102065994Y-84933562D01*
X101994567Y-84994567D01*
X101835248Y-85181104D01*
X101707073Y-85390268D01*
X101613195Y-85616908D01*
X101555928Y-85855443D01*
X101536681Y-86100000D01*
X101555928Y-86344557D01*
X101613195Y-86583092D01*
X101707073Y-86809732D01*
X101769753Y-86912017D01*
X101823669Y-87000000D01*
X101835248Y-87018896D01*
X101994567Y-87205433D01*
X102181104Y-87364752D01*
X102185327Y-87367340D01*
X102185330Y-87367342D01*
X102254515Y-87409738D01*
X102390268Y-87492927D01*
X102473046Y-87527215D01*
X102612335Y-87584911D01*
X102612337Y-87584912D01*
X102616908Y-87586805D01*
X102699563Y-87606649D01*
X102850630Y-87642917D01*
X102850636Y-87642918D01*
X102855443Y-87644072D01*
X103100000Y-87663319D01*
X103344557Y-87644072D01*
X103349364Y-87642918D01*
X103349370Y-87642917D01*
X103500437Y-87606649D01*
X103583092Y-87586805D01*
X103587663Y-87584912D01*
X103587665Y-87584911D01*
X103726954Y-87527215D01*
X103809732Y-87492927D01*
X103945485Y-87409738D01*
X104014670Y-87367342D01*
X104014673Y-87367340D01*
X104018896Y-87364752D01*
X104205433Y-87205433D01*
X104364752Y-87018896D01*
X104376332Y-87000000D01*
X104430247Y-86912017D01*
X104492927Y-86809732D01*
X104586805Y-86583092D01*
X104644072Y-86344557D01*
X104663319Y-86100000D01*
X104644072Y-85855443D01*
X104586805Y-85616908D01*
X104584909Y-85612330D01*
X104583918Y-85609281D01*
X104581890Y-85538313D01*
X104614656Y-85481248D01*
X105125499Y-84970405D01*
X105187811Y-84936379D01*
X105214594Y-84933500D01*
X110821233Y-84933500D01*
X110832416Y-84934027D01*
X110839909Y-84935702D01*
X110847835Y-84935453D01*
X110847836Y-84935453D01*
X110907986Y-84933562D01*
X110911945Y-84933500D01*
X110939856Y-84933500D01*
X110943791Y-84933003D01*
X110943856Y-84932995D01*
X110955693Y-84932062D01*
X110987951Y-84931048D01*
X110991970Y-84930922D01*
X110999889Y-84930673D01*
X111019343Y-84925021D01*
X111038700Y-84921013D01*
X111050930Y-84919468D01*
X111050931Y-84919468D01*
X111058797Y-84918474D01*
X111066168Y-84915555D01*
X111066170Y-84915555D01*
X111099912Y-84902196D01*
X111111142Y-84898351D01*
X111145983Y-84888229D01*
X111145984Y-84888229D01*
X111153593Y-84886018D01*
X111160412Y-84881985D01*
X111160417Y-84881983D01*
X111171028Y-84875707D01*
X111188776Y-84867012D01*
X111207617Y-84859552D01*
X111243387Y-84833564D01*
X111253307Y-84827048D01*
X111284535Y-84808580D01*
X111284538Y-84808578D01*
X111291362Y-84804542D01*
X111305683Y-84790221D01*
X111320717Y-84777380D01*
X111330694Y-84770131D01*
X111337107Y-84765472D01*
X111365298Y-84731395D01*
X111373288Y-84722616D01*
X113039213Y-83056692D01*
X113101525Y-83022666D01*
X113172341Y-83027731D01*
X113191308Y-83036668D01*
X113191428Y-83036737D01*
X113196770Y-83040618D01*
X113202797Y-83043301D01*
X113202798Y-83043302D01*
X113232873Y-83056692D01*
X113371234Y-83118294D01*
X113464635Y-83138147D01*
X113551578Y-83156628D01*
X113551583Y-83156628D01*
X113558035Y-83158000D01*
X113749009Y-83158000D01*
X113755461Y-83156628D01*
X113755466Y-83156628D01*
X113842409Y-83138147D01*
X113935810Y-83118294D01*
X114028765Y-83076908D01*
X114104244Y-83043303D01*
X114104246Y-83043302D01*
X114110274Y-83040618D01*
X114128012Y-83027731D01*
X114192219Y-82981081D01*
X114264775Y-82928366D01*
X114333126Y-82852454D01*
X114393571Y-82815216D01*
X114464555Y-82816568D01*
X114520396Y-82852454D01*
X114588747Y-82928366D01*
X114661303Y-82981081D01*
X114725511Y-83027731D01*
X114743248Y-83040618D01*
X114749276Y-83043302D01*
X114749278Y-83043303D01*
X114824757Y-83076908D01*
X114917712Y-83118294D01*
X115011113Y-83138147D01*
X115098056Y-83156628D01*
X115098061Y-83156628D01*
X115104513Y-83158000D01*
X115295487Y-83158000D01*
X115301939Y-83156628D01*
X115301944Y-83156628D01*
X115388887Y-83138147D01*
X115482288Y-83118294D01*
X115575243Y-83076908D01*
X115650722Y-83043303D01*
X115650724Y-83043302D01*
X115656752Y-83040618D01*
X115674490Y-83027731D01*
X115738697Y-82981081D01*
X115811253Y-82928366D01*
X115877457Y-82854839D01*
X115934621Y-82791352D01*
X115934622Y-82791351D01*
X115939040Y-82786444D01*
X116034527Y-82621056D01*
X116093542Y-82439428D01*
X116113504Y-82249500D01*
X116100464Y-82125433D01*
X116094232Y-82066135D01*
X116094232Y-82066133D01*
X116093542Y-82059572D01*
X116034527Y-81877944D01*
X115939040Y-81712556D01*
X115811253Y-81570634D01*
X115656752Y-81458382D01*
X115650724Y-81455698D01*
X115650722Y-81455697D01*
X115488319Y-81383391D01*
X115488318Y-81383391D01*
X115482288Y-81380706D01*
X115388887Y-81360853D01*
X115301944Y-81342372D01*
X115301939Y-81342372D01*
X115295487Y-81341000D01*
X115239595Y-81341000D01*
X115171474Y-81320998D01*
X115150500Y-81304095D01*
X114978652Y-81132247D01*
X114971112Y-81123961D01*
X114967000Y-81117482D01*
X114917348Y-81070856D01*
X114914507Y-81068102D01*
X114894770Y-81048365D01*
X114891573Y-81045885D01*
X114882551Y-81038180D01*
X114863191Y-81020000D01*
X114850321Y-81007914D01*
X114843375Y-81004095D01*
X114843372Y-81004093D01*
X114832566Y-80998152D01*
X114816047Y-80987301D01*
X114810178Y-80982749D01*
X114800041Y-80974886D01*
X114792772Y-80971741D01*
X114792768Y-80971738D01*
X114759463Y-80957326D01*
X114748813Y-80952109D01*
X114710060Y-80930805D01*
X114690437Y-80925767D01*
X114671734Y-80919363D01*
X114660420Y-80914467D01*
X114660419Y-80914467D01*
X114653145Y-80911319D01*
X114645322Y-80910080D01*
X114645312Y-80910077D01*
X114609476Y-80904401D01*
X114597856Y-80901995D01*
X114562711Y-80892972D01*
X114562710Y-80892972D01*
X114555030Y-80891000D01*
X114534776Y-80891000D01*
X114515065Y-80889449D01*
X114502886Y-80887520D01*
X114495057Y-80886280D01*
X114487165Y-80887026D01*
X114451039Y-80890441D01*
X114439181Y-80891000D01*
X112982869Y-80891000D01*
X112914748Y-80870998D01*
X112868255Y-80817342D01*
X112858151Y-80747068D01*
X112887645Y-80682488D01*
X112893774Y-80675905D01*
X113464350Y-80105330D01*
X114099275Y-79470405D01*
X114161587Y-79436379D01*
X114188370Y-79433500D01*
X115521233Y-79433500D01*
X115532416Y-79434027D01*
X115539909Y-79435702D01*
X115547835Y-79435453D01*
X115547836Y-79435453D01*
X115607986Y-79433562D01*
X115611945Y-79433500D01*
X115639856Y-79433500D01*
X115643791Y-79433003D01*
X115643856Y-79432995D01*
X115655693Y-79432062D01*
X115687951Y-79431048D01*
X115691970Y-79430922D01*
X115699889Y-79430673D01*
X115719343Y-79425021D01*
X115738700Y-79421013D01*
X115750930Y-79419468D01*
X115750931Y-79419468D01*
X115758797Y-79418474D01*
X115766168Y-79415555D01*
X115766170Y-79415555D01*
X115799912Y-79402196D01*
X115811142Y-79398351D01*
X115845983Y-79388229D01*
X115845984Y-79388229D01*
X115853593Y-79386018D01*
X115860412Y-79381985D01*
X115860417Y-79381983D01*
X115871028Y-79375707D01*
X115888776Y-79367012D01*
X115907617Y-79359552D01*
X115943387Y-79333564D01*
X115953307Y-79327048D01*
X115984535Y-79308580D01*
X115984538Y-79308578D01*
X115991362Y-79304542D01*
X116005683Y-79290221D01*
X116020717Y-79277380D01*
X116030694Y-79270131D01*
X116037107Y-79265472D01*
X116065298Y-79231395D01*
X116073288Y-79222616D01*
X118592247Y-76703657D01*
X118600537Y-76696113D01*
X118607018Y-76692000D01*
X118653659Y-76642332D01*
X118656413Y-76639491D01*
X118676134Y-76619770D01*
X118678612Y-76616575D01*
X118686318Y-76607553D01*
X118711158Y-76581101D01*
X118716586Y-76575321D01*
X118726346Y-76557568D01*
X118737199Y-76541045D01*
X118744753Y-76531306D01*
X118749613Y-76525041D01*
X118767176Y-76484457D01*
X118772383Y-76473827D01*
X118793695Y-76435060D01*
X118795666Y-76427383D01*
X118795668Y-76427378D01*
X118798732Y-76415442D01*
X118805138Y-76396730D01*
X118810033Y-76385419D01*
X118813181Y-76378145D01*
X118814421Y-76370317D01*
X118814423Y-76370310D01*
X118820099Y-76334476D01*
X118822505Y-76322856D01*
X118831528Y-76287711D01*
X118831528Y-76287710D01*
X118833500Y-76280030D01*
X118833500Y-76259776D01*
X118835051Y-76240065D01*
X118836980Y-76227886D01*
X118838220Y-76220057D01*
X118834059Y-76176038D01*
X118833500Y-76164181D01*
X118833500Y-76102524D01*
X118853502Y-76034403D01*
X118865858Y-76018221D01*
X118939040Y-75936944D01*
X119034527Y-75771556D01*
X119093542Y-75589928D01*
X119113504Y-75400000D01*
X119093542Y-75210072D01*
X119034527Y-75028444D01*
X118939040Y-74863056D01*
X118894205Y-74813261D01*
X118815675Y-74726045D01*
X118815674Y-74726044D01*
X118811253Y-74721134D01*
X118656752Y-74608882D01*
X118650724Y-74606198D01*
X118650722Y-74606197D01*
X118488319Y-74533891D01*
X118488318Y-74533891D01*
X118482288Y-74531206D01*
X118388887Y-74511353D01*
X118301944Y-74492872D01*
X118301939Y-74492872D01*
X118295487Y-74491500D01*
X118184500Y-74491500D01*
X118116379Y-74471498D01*
X118069886Y-74417842D01*
X118058500Y-74365500D01*
X118058500Y-70648774D01*
X118078502Y-70580653D01*
X118132158Y-70534160D01*
X118202432Y-70524056D01*
X118267012Y-70553550D01*
X118299384Y-70600308D01*
X118300000Y-70600000D01*
X118800000Y-71600000D01*
X119428014Y-71958865D01*
X119477235Y-72010028D01*
X119491500Y-72068263D01*
X119491500Y-72091946D01*
X119491479Y-72094255D01*
X119490753Y-72133891D01*
X119490210Y-72163498D01*
X119491247Y-72167303D01*
X119491500Y-72171378D01*
X119491500Y-86912017D01*
X119471498Y-86980138D01*
X119417842Y-87026631D01*
X119405345Y-87031551D01*
X118017186Y-87494271D01*
X118017185Y-87494272D01*
X118000000Y-87500000D01*
X117995238Y-87509524D01*
X117995237Y-87509525D01*
X117753240Y-87993520D01*
X117500000Y-88500000D01*
X117000000Y-90000000D01*
X117000000Y-91500000D01*
X119454595Y-93954595D01*
X119488621Y-94016907D01*
X119491500Y-94043690D01*
X119491500Y-99365500D01*
X119471498Y-99433621D01*
X119417842Y-99480114D01*
X119365500Y-99491500D01*
X112108623Y-99491500D01*
X112107853Y-99491498D01*
X112107222Y-99491494D01*
X112042520Y-99491099D01*
X111974524Y-99470681D01*
X111954196Y-99454196D01*
X111000000Y-98500000D01*
X110606957Y-98500000D01*
X110558739Y-98490409D01*
X110503164Y-98467389D01*
X110503162Y-98467388D01*
X110498591Y-98465495D01*
X110318548Y-98422271D01*
X110256979Y-98386919D01*
X110224296Y-98323892D01*
X110230876Y-98253201D01*
X110274630Y-98197290D01*
X110291547Y-98187087D01*
X110295052Y-98185332D01*
X110301937Y-98182833D01*
X110308057Y-98178820D01*
X110308062Y-98178818D01*
X110362976Y-98142814D01*
X110366680Y-98140477D01*
X110429107Y-98102595D01*
X110437484Y-98095197D01*
X110437508Y-98095224D01*
X110440500Y-98092571D01*
X110443733Y-98089868D01*
X110449852Y-98085856D01*
X110503128Y-98029617D01*
X110505506Y-98027175D01*
X111370905Y-97161776D01*
X111433217Y-97127750D01*
X111504032Y-97132815D01*
X111549095Y-97161776D01*
X112376230Y-97988911D01*
X112388616Y-98003323D01*
X112397149Y-98014918D01*
X112397154Y-98014923D01*
X112401492Y-98020818D01*
X112407070Y-98025557D01*
X112407073Y-98025560D01*
X112441768Y-98055035D01*
X112449284Y-98061965D01*
X112454979Y-98067660D01*
X112457861Y-98069940D01*
X112477251Y-98085281D01*
X112480655Y-98088072D01*
X112530703Y-98130591D01*
X112536285Y-98135333D01*
X112542801Y-98138661D01*
X112547850Y-98142028D01*
X112552979Y-98145195D01*
X112558716Y-98149734D01*
X112624875Y-98180655D01*
X112628769Y-98182558D01*
X112693808Y-98215769D01*
X112700916Y-98217508D01*
X112706559Y-98219607D01*
X112712322Y-98221524D01*
X112718950Y-98224622D01*
X112726112Y-98226112D01*
X112726113Y-98226112D01*
X112790412Y-98239486D01*
X112794696Y-98240456D01*
X112865610Y-98257808D01*
X112871212Y-98258156D01*
X112871215Y-98258156D01*
X112876764Y-98258500D01*
X112876762Y-98258536D01*
X112880755Y-98258775D01*
X112884947Y-98259149D01*
X112892115Y-98260640D01*
X112969520Y-98258546D01*
X112972928Y-98258500D01*
X114972930Y-98258500D01*
X114991880Y-98259933D01*
X115006115Y-98262099D01*
X115006119Y-98262099D01*
X115013349Y-98263199D01*
X115020641Y-98262606D01*
X115020644Y-98262606D01*
X115066018Y-98258915D01*
X115076233Y-98258500D01*
X115084293Y-98258500D01*
X115101680Y-98256473D01*
X115112507Y-98255211D01*
X115116882Y-98254778D01*
X115182339Y-98249454D01*
X115182342Y-98249453D01*
X115189637Y-98248860D01*
X115196601Y-98246604D01*
X115202560Y-98245413D01*
X115208415Y-98244029D01*
X115215681Y-98243182D01*
X115284327Y-98218265D01*
X115288455Y-98216848D01*
X115350936Y-98196607D01*
X115350938Y-98196606D01*
X115357899Y-98194351D01*
X115364154Y-98190555D01*
X115369628Y-98188049D01*
X115375058Y-98185330D01*
X115381937Y-98182833D01*
X115388061Y-98178818D01*
X115442976Y-98142814D01*
X115446680Y-98140477D01*
X115509107Y-98102595D01*
X115517484Y-98095197D01*
X115517508Y-98095224D01*
X115520500Y-98092571D01*
X115523733Y-98089868D01*
X115529852Y-98085856D01*
X115583128Y-98029617D01*
X115585506Y-98027175D01*
X116463020Y-97149661D01*
X116525332Y-97115635D01*
X116542229Y-97113144D01*
X116687062Y-97101745D01*
X116784557Y-97094072D01*
X116789364Y-97092918D01*
X116789370Y-97092917D01*
X116988003Y-97045229D01*
X117023092Y-97036805D01*
X117027663Y-97034912D01*
X117027665Y-97034911D01*
X117105033Y-97002864D01*
X117249732Y-96942927D01*
X117427212Y-96834168D01*
X117454670Y-96817342D01*
X117454673Y-96817340D01*
X117458896Y-96814752D01*
X117645433Y-96655433D01*
X117804752Y-96468896D01*
X117932927Y-96259732D01*
X118026805Y-96033092D01*
X118084072Y-95794557D01*
X118103319Y-95550000D01*
X118084072Y-95305443D01*
X118026805Y-95066908D01*
X117932927Y-94840268D01*
X117804752Y-94631104D01*
X117645433Y-94444567D01*
X117458896Y-94285248D01*
X117454673Y-94282660D01*
X117454670Y-94282658D01*
X117375209Y-94233965D01*
X117249732Y-94157073D01*
X117105033Y-94097136D01*
X117027665Y-94065089D01*
X117027663Y-94065088D01*
X117023092Y-94063195D01*
X116940437Y-94043351D01*
X116789370Y-94007083D01*
X116789364Y-94007082D01*
X116784557Y-94005928D01*
X116540000Y-93986681D01*
X116295443Y-94005928D01*
X116290636Y-94007082D01*
X116290630Y-94007083D01*
X116139563Y-94043351D01*
X116056908Y-94063195D01*
X116052337Y-94065088D01*
X116052335Y-94065089D01*
X115974967Y-94097136D01*
X115830268Y-94157073D01*
X115704791Y-94233965D01*
X115625330Y-94282658D01*
X115625327Y-94282660D01*
X115621104Y-94285248D01*
X115434567Y-94444567D01*
X115431359Y-94448323D01*
X115365811Y-94525069D01*
X115306360Y-94563878D01*
X115235365Y-94564384D01*
X115174189Y-94525069D01*
X115108641Y-94448323D01*
X115105433Y-94444567D01*
X114918896Y-94285248D01*
X114914673Y-94282660D01*
X114914670Y-94282658D01*
X114835209Y-94233965D01*
X114709732Y-94157073D01*
X114565033Y-94097136D01*
X114487665Y-94065089D01*
X114487663Y-94065088D01*
X114483092Y-94063195D01*
X114400437Y-94043351D01*
X114249370Y-94007083D01*
X114249364Y-94007082D01*
X114244557Y-94005928D01*
X114000000Y-93986681D01*
X113755443Y-94005928D01*
X113750636Y-94007082D01*
X113750630Y-94007083D01*
X113599563Y-94043351D01*
X113516908Y-94063195D01*
X113512337Y-94065088D01*
X113512335Y-94065089D01*
X113434967Y-94097136D01*
X113290268Y-94157073D01*
X113164791Y-94233965D01*
X113085330Y-94282658D01*
X113085327Y-94282660D01*
X113081104Y-94285248D01*
X112894567Y-94444567D01*
X112891359Y-94448323D01*
X112825811Y-94525069D01*
X112766360Y-94563878D01*
X112695365Y-94564384D01*
X112634189Y-94525069D01*
X112568641Y-94448323D01*
X112565433Y-94444567D01*
X112378896Y-94285248D01*
X112374673Y-94282660D01*
X112374670Y-94282658D01*
X112295209Y-94233965D01*
X112169732Y-94157073D01*
X112025033Y-94097136D01*
X111947665Y-94065089D01*
X111947663Y-94065088D01*
X111943092Y-94063195D01*
X111860437Y-94043351D01*
X111709370Y-94007083D01*
X111709364Y-94007082D01*
X111704557Y-94005928D01*
X111460000Y-93986681D01*
X111215443Y-94005928D01*
X111210636Y-94007082D01*
X111210630Y-94007083D01*
X111059563Y-94043351D01*
X110976908Y-94063195D01*
X110972337Y-94065088D01*
X110972335Y-94065089D01*
X110894967Y-94097136D01*
X110750268Y-94157073D01*
X110624791Y-94233965D01*
X110545330Y-94282658D01*
X110545327Y-94282660D01*
X110541104Y-94285248D01*
X110354567Y-94444567D01*
X110351359Y-94448323D01*
X110285811Y-94525069D01*
X110226360Y-94563878D01*
X110155365Y-94564384D01*
X110094189Y-94525069D01*
X110028641Y-94448323D01*
X110025433Y-94444567D01*
X109838896Y-94285248D01*
X109834673Y-94282660D01*
X109834670Y-94282658D01*
X109755209Y-94233965D01*
X109629732Y-94157073D01*
X109485033Y-94097136D01*
X109407665Y-94065089D01*
X109407663Y-94065088D01*
X109403092Y-94063195D01*
X109320437Y-94043351D01*
X109169370Y-94007083D01*
X109169364Y-94007082D01*
X109164557Y-94005928D01*
X108920000Y-93986681D01*
X108675443Y-94005928D01*
X108670636Y-94007082D01*
X108670630Y-94007083D01*
X108519563Y-94043351D01*
X108436908Y-94063195D01*
X108432337Y-94065088D01*
X108432335Y-94065089D01*
X108354967Y-94097136D01*
X108210268Y-94157073D01*
X108084791Y-94233965D01*
X108005330Y-94282658D01*
X108005327Y-94282660D01*
X108001104Y-94285248D01*
X107814567Y-94444567D01*
X107811359Y-94448323D01*
X107745811Y-94525069D01*
X107686360Y-94563878D01*
X107615365Y-94564384D01*
X107554189Y-94525069D01*
X107488641Y-94448323D01*
X107485433Y-94444567D01*
X107298896Y-94285248D01*
X107294673Y-94282660D01*
X107294670Y-94282658D01*
X107215209Y-94233965D01*
X107089732Y-94157073D01*
X106945033Y-94097136D01*
X106867665Y-94065089D01*
X106867663Y-94065088D01*
X106863092Y-94063195D01*
X106780437Y-94043351D01*
X106629370Y-94007083D01*
X106629364Y-94007082D01*
X106624557Y-94005928D01*
X106380000Y-93986681D01*
X106135443Y-94005928D01*
X106130636Y-94007082D01*
X106130630Y-94007083D01*
X105979563Y-94043351D01*
X105896908Y-94063195D01*
X105892337Y-94065088D01*
X105892335Y-94065089D01*
X105814967Y-94097136D01*
X105670268Y-94157073D01*
X105544791Y-94233965D01*
X105492788Y-94265832D01*
X105424255Y-94284370D01*
X105356578Y-94262913D01*
X105326128Y-94233965D01*
X105320918Y-94227013D01*
X105253261Y-94136739D01*
X105136705Y-94049385D01*
X105000316Y-93998255D01*
X104938134Y-93991500D01*
X102741866Y-93991500D01*
X102679684Y-93998255D01*
X102543295Y-94049385D01*
X102426739Y-94136739D01*
X102339385Y-94253295D01*
X102288255Y-94389684D01*
X102281500Y-94451866D01*
X102281500Y-96648134D01*
X102288255Y-96710316D01*
X102339385Y-96846705D01*
X102426739Y-96963261D01*
X102543295Y-97050615D01*
X102679684Y-97101745D01*
X102741866Y-97108500D01*
X104938134Y-97108500D01*
X105000316Y-97101745D01*
X105136705Y-97050615D01*
X105253261Y-96963261D01*
X105326128Y-96866035D01*
X105382988Y-96823521D01*
X105453806Y-96818496D01*
X105492789Y-96834168D01*
X105670268Y-96942927D01*
X105814967Y-97002864D01*
X105892335Y-97034911D01*
X105892337Y-97034912D01*
X105896908Y-97036805D01*
X105931997Y-97045229D01*
X106130630Y-97092917D01*
X106130636Y-97092918D01*
X106135443Y-97094072D01*
X106232938Y-97101745D01*
X106377771Y-97113144D01*
X106444112Y-97138430D01*
X106456980Y-97149661D01*
X107296230Y-97988911D01*
X107308616Y-98003323D01*
X107317149Y-98014918D01*
X107317154Y-98014923D01*
X107321492Y-98020818D01*
X107327070Y-98025557D01*
X107327073Y-98025560D01*
X107361768Y-98055035D01*
X107369284Y-98061965D01*
X107374979Y-98067660D01*
X107377861Y-98069940D01*
X107397251Y-98085281D01*
X107400655Y-98088072D01*
X107450703Y-98130591D01*
X107456285Y-98135333D01*
X107462801Y-98138661D01*
X107467850Y-98142028D01*
X107472979Y-98145195D01*
X107478716Y-98149734D01*
X107544875Y-98180655D01*
X107548769Y-98182558D01*
X107613808Y-98215769D01*
X107620916Y-98217508D01*
X107626559Y-98219607D01*
X107632322Y-98221524D01*
X107638950Y-98224622D01*
X107646112Y-98226112D01*
X107646113Y-98226112D01*
X107710412Y-98239486D01*
X107714696Y-98240456D01*
X107785610Y-98257808D01*
X107791212Y-98258156D01*
X107791215Y-98258156D01*
X107796764Y-98258500D01*
X107796762Y-98258536D01*
X107800755Y-98258775D01*
X107804947Y-98259149D01*
X107812115Y-98260640D01*
X107889520Y-98258546D01*
X107892928Y-98258500D01*
X108964240Y-98258500D01*
X109032361Y-98278502D01*
X109078854Y-98332158D01*
X109088958Y-98402432D01*
X109059464Y-98467012D01*
X109008134Y-98500000D01*
X109000000Y-98500000D01*
X108045115Y-99454885D01*
X107982803Y-99488911D01*
X107955253Y-99491788D01*
X107941492Y-99491704D01*
X107940712Y-99491671D01*
X107939614Y-99491500D01*
X107908623Y-99491500D01*
X107907853Y-99491498D01*
X107834215Y-99491048D01*
X107834214Y-99491048D01*
X107830279Y-99491024D01*
X107828935Y-99491408D01*
X107827590Y-99491500D01*
X100634500Y-99491500D01*
X100566379Y-99471498D01*
X100519886Y-99417842D01*
X100508500Y-99365500D01*
X100508500Y-93073623D01*
X100528502Y-93005502D01*
X100578151Y-92960925D01*
X102483798Y-92008101D01*
X102500000Y-92000000D01*
X103000000Y-90000000D01*
X102500000Y-88000000D01*
X102490280Y-87993520D01*
X101015523Y-87010348D01*
X101015521Y-87010347D01*
X101000000Y-87000000D01*
X100634500Y-87000000D01*
X100566379Y-86979998D01*
X100519886Y-86926342D01*
X100508500Y-86874000D01*
X100508500Y-72108623D01*
X100508502Y-72107853D01*
X100508638Y-72085572D01*
X100508976Y-72030279D01*
X100504851Y-72015846D01*
X100500000Y-71981221D01*
X100500000Y-71618112D01*
X100520002Y-71549991D01*
X100577782Y-71501703D01*
X100727928Y-71439511D01*
X100727932Y-71439509D01*
X100732502Y-71437616D01*
X100948376Y-71305328D01*
X101140898Y-71140898D01*
X101305328Y-70948376D01*
X101437616Y-70732502D01*
X101472298Y-70648774D01*
X101532611Y-70503164D01*
X101532612Y-70503162D01*
X101534505Y-70498591D01*
X101593609Y-70252403D01*
X101613474Y-70000000D01*
X101593609Y-69747597D01*
X101534505Y-69501409D01*
X101532611Y-69496836D01*
X101439511Y-69272072D01*
X101439509Y-69272068D01*
X101437616Y-69267498D01*
X101305328Y-69051624D01*
X101140898Y-68859102D01*
X100948376Y-68694672D01*
X100732502Y-68562384D01*
X100727932Y-68560491D01*
X100727928Y-68560489D01*
X100577782Y-68498297D01*
X100522501Y-68453749D01*
X100500000Y-68381888D01*
X100500000Y-68024153D01*
X100503733Y-67999681D01*
X100503009Y-67999564D01*
X100504444Y-67990706D01*
X100507121Y-67982136D01*
X100507763Y-67947095D01*
X100507953Y-67943126D01*
X100508500Y-67939614D01*
X100508500Y-67908054D01*
X100508521Y-67905745D01*
X100509626Y-67845475D01*
X100509626Y-67845472D01*
X100509790Y-67836502D01*
X100508753Y-67832697D01*
X100508500Y-67828622D01*
X100508500Y-60634500D01*
X100528502Y-60566379D01*
X100582158Y-60519886D01*
X100634500Y-60508500D01*
X106912017Y-60508500D01*
X106980138Y-60528502D01*
G37*
%TD.AperFunction*%
%TD*%
M02*
