M48
; DRILL file {KiCad (6.0.6-0)} date Wednesday, May 31, 2023 at 08:28:58 PM
; FORMAT={3:3/ absolute / metric / suppress leading zeros}
; #@! TF.CreationDate,2023-05-31T20:28:58-07:00
; #@! TF.GenerationSoftware,Kicad,Pcbnew,(6.0.6-0)
; #@! TF.FileFunction,MixedPlating,1,2
FMAT,2
METRIC,TZ
; #@! TA.AperFunction,Plated,PTH,ViaDrill
T1C0.400
; #@! TA.AperFunction,Plated,PTH,ComponentDrill
T2C1.100
; #@! TA.AperFunction,NonPlated,NPTH,ComponentDrill
T3C2.200
%
G90
G05
T1
X103000Y-63200
X107000Y-73000
X109000Y-72276
X109483Y-79626
X110700Y-76900
X110753Y-79626
X112023Y-79626
X112900Y-66200
X113654Y-82250
X113800Y-77000
X115000Y-76900
X115200Y-82250
X116500Y-73700
X116700Y-62500
X116700Y-67200
X116800Y-65700
X118200Y-75400
T2
X103100Y-73400
X103100Y-75940
X103100Y-78480
X103100Y-81020
X103100Y-83560
X103100Y-86100
X103840Y-95550
X106380Y-95550
X108920Y-95550
X111460Y-95550
X114000Y-95550
X116540Y-95550
T3
X100000Y-70000
X110000Y-100000
X110000Y-118000
X120000Y-70000
T0
M30
