%TF.GenerationSoftware,KiCad,Pcbnew,(6.0.6-0)*%
%TF.CreationDate,2023-05-31T20:28:53-07:00*%
%TF.ProjectId,HCT20,48435432-302e-46b6-9963-61645f706362,rev?*%
%TF.SameCoordinates,Original*%
%TF.FileFunction,Legend,Bot*%
%TF.FilePolarity,Positive*%
%FSLAX46Y46*%
G04 Gerber Fmt 4.6, Leading zero omitted, Abs format (unit mm)*
G04 Created by KiCad (PCBNEW (6.0.6-0)) date 2023-05-31 20:28:53*
%MOMM*%
%LPD*%
G01*
G04 APERTURE LIST*
%ADD10C,0.150000*%
%ADD11C,0.010000*%
G04 APERTURE END LIST*
D10*
X107732380Y-63335595D02*
X106732380Y-63335595D01*
X107113333Y-63335595D02*
X107065714Y-63430833D01*
X107065714Y-63621309D01*
X107113333Y-63716547D01*
X107160952Y-63764166D01*
X107256190Y-63811785D01*
X107541904Y-63811785D01*
X107637142Y-63764166D01*
X107684761Y-63716547D01*
X107732380Y-63621309D01*
X107732380Y-63430833D01*
X107684761Y-63335595D01*
X107065714Y-64668928D02*
X107732380Y-64668928D01*
X107065714Y-64240357D02*
X107589523Y-64240357D01*
X107684761Y-64287976D01*
X107732380Y-64383214D01*
X107732380Y-64526071D01*
X107684761Y-64621309D01*
X107637142Y-64668928D01*
X107732380Y-65145119D02*
X107065714Y-65145119D01*
X106732380Y-65145119D02*
X106780000Y-65097500D01*
X106827619Y-65145119D01*
X106780000Y-65192738D01*
X106732380Y-65145119D01*
X106827619Y-65145119D01*
X107732380Y-65764166D02*
X107684761Y-65668928D01*
X107589523Y-65621309D01*
X106732380Y-65621309D01*
X107732380Y-66573690D02*
X106732380Y-66573690D01*
X107684761Y-66573690D02*
X107732380Y-66478452D01*
X107732380Y-66287976D01*
X107684761Y-66192738D01*
X107637142Y-66145119D01*
X107541904Y-66097500D01*
X107256190Y-66097500D01*
X107160952Y-66145119D01*
X107113333Y-66192738D01*
X107065714Y-66287976D01*
X107065714Y-66478452D01*
X107113333Y-66573690D01*
X107732380Y-67049880D02*
X107065714Y-67049880D01*
X106732380Y-67049880D02*
X106780000Y-67002261D01*
X106827619Y-67049880D01*
X106780000Y-67097500D01*
X106732380Y-67049880D01*
X106827619Y-67049880D01*
X107065714Y-67526071D02*
X107732380Y-67526071D01*
X107160952Y-67526071D02*
X107113333Y-67573690D01*
X107065714Y-67668928D01*
X107065714Y-67811785D01*
X107113333Y-67907023D01*
X107208571Y-67954642D01*
X107732380Y-67954642D01*
X107065714Y-68859404D02*
X107875238Y-68859404D01*
X107970476Y-68811785D01*
X108018095Y-68764166D01*
X108065714Y-68668928D01*
X108065714Y-68526071D01*
X108018095Y-68430833D01*
X107684761Y-68859404D02*
X107732380Y-68764166D01*
X107732380Y-68573690D01*
X107684761Y-68478452D01*
X107637142Y-68430833D01*
X107541904Y-68383214D01*
X107256190Y-68383214D01*
X107160952Y-68430833D01*
X107113333Y-68478452D01*
X107065714Y-68573690D01*
X107065714Y-68764166D01*
X107113333Y-68859404D01*
X107732380Y-69335595D02*
X106732380Y-69335595D01*
X106732380Y-69716547D01*
X106780000Y-69811785D01*
X106827619Y-69859404D01*
X106922857Y-69907023D01*
X107065714Y-69907023D01*
X107160952Y-69859404D01*
X107208571Y-69811785D01*
X107256190Y-69716547D01*
X107256190Y-69335595D01*
X106732380Y-70335595D02*
X107541904Y-70335595D01*
X107637142Y-70383214D01*
X107684761Y-70430833D01*
X107732380Y-70526071D01*
X107732380Y-70716547D01*
X107684761Y-70811785D01*
X107637142Y-70859404D01*
X107541904Y-70907023D01*
X106732380Y-70907023D01*
X107732380Y-71859404D02*
X107732380Y-71383214D01*
X106732380Y-71383214D01*
X107684761Y-72145119D02*
X107732380Y-72287976D01*
X107732380Y-72526071D01*
X107684761Y-72621309D01*
X107637142Y-72668928D01*
X107541904Y-72716547D01*
X107446666Y-72716547D01*
X107351428Y-72668928D01*
X107303809Y-72621309D01*
X107256190Y-72526071D01*
X107208571Y-72335595D01*
X107160952Y-72240357D01*
X107113333Y-72192738D01*
X107018095Y-72145119D01*
X106922857Y-72145119D01*
X106827619Y-72192738D01*
X106780000Y-72240357D01*
X106732380Y-72335595D01*
X106732380Y-72573690D01*
X106780000Y-72716547D01*
X107208571Y-73145119D02*
X107208571Y-73478452D01*
X107732380Y-73621309D02*
X107732380Y-73145119D01*
X106732380Y-73145119D01*
X106732380Y-73621309D01*
X107637142Y-74049880D02*
X107684761Y-74097499D01*
X107732380Y-74049880D01*
X107684761Y-74002261D01*
X107637142Y-74049880D01*
X107732380Y-74049880D01*
X107732380Y-74668928D02*
X107684761Y-74573690D01*
X107637142Y-74526071D01*
X107541904Y-74478452D01*
X107256190Y-74478452D01*
X107160952Y-74526071D01*
X107113333Y-74573690D01*
X107065714Y-74668928D01*
X107065714Y-74811785D01*
X107113333Y-74907023D01*
X107160952Y-74954642D01*
X107256190Y-75002261D01*
X107541904Y-75002261D01*
X107637142Y-74954642D01*
X107684761Y-74907023D01*
X107732380Y-74811785D01*
X107732380Y-74668928D01*
X107732380Y-75430833D02*
X107065714Y-75430833D01*
X107256190Y-75430833D02*
X107160952Y-75478452D01*
X107113333Y-75526071D01*
X107065714Y-75621309D01*
X107065714Y-75716547D01*
X107065714Y-76478452D02*
X107875238Y-76478452D01*
X107970476Y-76430833D01*
X108018095Y-76383214D01*
X108065714Y-76287976D01*
X108065714Y-76145119D01*
X108018095Y-76049880D01*
X107684761Y-76478452D02*
X107732380Y-76383214D01*
X107732380Y-76192738D01*
X107684761Y-76097499D01*
X107637142Y-76049880D01*
X107541904Y-76002261D01*
X107256190Y-76002261D01*
X107160952Y-76049880D01*
X107113333Y-76097499D01*
X107065714Y-76192738D01*
X107065714Y-76383214D01*
X107113333Y-76478452D01*
X106827619Y-77668928D02*
X106780000Y-77716547D01*
X106732380Y-77811785D01*
X106732380Y-78049880D01*
X106780000Y-78145119D01*
X106827619Y-78192738D01*
X106922857Y-78240357D01*
X107018095Y-78240357D01*
X107160952Y-78192738D01*
X107732380Y-77621309D01*
X107732380Y-78240357D01*
X106732380Y-78859404D02*
X106732380Y-78954642D01*
X106780000Y-79049880D01*
X106827619Y-79097499D01*
X106922857Y-79145119D01*
X107113333Y-79192738D01*
X107351428Y-79192738D01*
X107541904Y-79145119D01*
X107637142Y-79097499D01*
X107684761Y-79049880D01*
X107732380Y-78954642D01*
X107732380Y-78859404D01*
X107684761Y-78764166D01*
X107637142Y-78716547D01*
X107541904Y-78668928D01*
X107351428Y-78621309D01*
X107113333Y-78621309D01*
X106922857Y-78668928D01*
X106827619Y-78716547D01*
X106780000Y-78764166D01*
X106732380Y-78859404D01*
X106827619Y-79573690D02*
X106780000Y-79621309D01*
X106732380Y-79716547D01*
X106732380Y-79954642D01*
X106780000Y-80049880D01*
X106827619Y-80097499D01*
X106922857Y-80145119D01*
X107018095Y-80145119D01*
X107160952Y-80097499D01*
X107732380Y-79526071D01*
X107732380Y-80145119D01*
X106827619Y-80526071D02*
X106780000Y-80573690D01*
X106732380Y-80668928D01*
X106732380Y-80907023D01*
X106780000Y-81002261D01*
X106827619Y-81049880D01*
X106922857Y-81097499D01*
X107018095Y-81097499D01*
X107160952Y-81049880D01*
X107732380Y-80478452D01*
X107732380Y-81097499D01*
X107732380Y-82764166D02*
X107732380Y-82287976D01*
X106732380Y-82287976D01*
X107637142Y-83668928D02*
X107684761Y-83621309D01*
X107732380Y-83478452D01*
X107732380Y-83383214D01*
X107684761Y-83240357D01*
X107589523Y-83145119D01*
X107494285Y-83097499D01*
X107303809Y-83049880D01*
X107160952Y-83049880D01*
X106970476Y-83097499D01*
X106875238Y-83145119D01*
X106780000Y-83240357D01*
X106732380Y-83383214D01*
X106732380Y-83478452D01*
X106780000Y-83621309D01*
X106827619Y-83668928D01*
X106732380Y-83954642D02*
X106732380Y-84526071D01*
X107732380Y-84240357D02*
X106732380Y-84240357D01*
X107065714Y-84764166D02*
X107732380Y-85002261D01*
X107065714Y-85240357D01*
X107732380Y-86145119D02*
X107732380Y-85573690D01*
X107732380Y-85859404D02*
X106732380Y-85859404D01*
X106875238Y-85764166D01*
X106970476Y-85668928D01*
X107018095Y-85573690D01*
X107637142Y-86573690D02*
X107684761Y-86621309D01*
X107732380Y-86573690D01*
X107684761Y-86526071D01*
X107637142Y-86573690D01*
X107732380Y-86573690D01*
X107065714Y-87478452D02*
X107732380Y-87478452D01*
X106684761Y-87240357D02*
X107399047Y-87002261D01*
X107399047Y-87621309D01*
X109342380Y-63335595D02*
X108342380Y-63335595D01*
X108437619Y-63764166D02*
X108390000Y-63811785D01*
X108342380Y-63907023D01*
X108342380Y-64145119D01*
X108390000Y-64240357D01*
X108437619Y-64287976D01*
X108532857Y-64335595D01*
X108628095Y-64335595D01*
X108770952Y-64287976D01*
X109342380Y-63716547D01*
X109342380Y-64335595D01*
X109247142Y-65335595D02*
X109294761Y-65287976D01*
X109342380Y-65145119D01*
X109342380Y-65049880D01*
X109294761Y-64907023D01*
X109199523Y-64811785D01*
X109104285Y-64764166D01*
X108913809Y-64716547D01*
X108770952Y-64716547D01*
X108580476Y-64764166D01*
X108485238Y-64811785D01*
X108390000Y-64907023D01*
X108342380Y-65049880D01*
X108342380Y-65145119D01*
X108390000Y-65287976D01*
X108437619Y-65335595D01*
X108342380Y-67002261D02*
X108342380Y-66526071D01*
X108818571Y-66478452D01*
X108770952Y-66526071D01*
X108723333Y-66621309D01*
X108723333Y-66859404D01*
X108770952Y-66954642D01*
X108818571Y-67002261D01*
X108913809Y-67049880D01*
X109151904Y-67049880D01*
X109247142Y-67002261D01*
X109294761Y-66954642D01*
X109342380Y-66859404D01*
X109342380Y-66621309D01*
X109294761Y-66526071D01*
X109247142Y-66478452D01*
X108342380Y-67668928D02*
X108342380Y-67764166D01*
X108390000Y-67859404D01*
X108437619Y-67907023D01*
X108532857Y-67954642D01*
X108723333Y-68002261D01*
X108961428Y-68002261D01*
X109151904Y-67954642D01*
X109247142Y-67907023D01*
X109294761Y-67859404D01*
X109342380Y-67764166D01*
X109342380Y-67668928D01*
X109294761Y-67573690D01*
X109247142Y-67526071D01*
X109151904Y-67478452D01*
X108961428Y-67430833D01*
X108723333Y-67430833D01*
X108532857Y-67478452D01*
X108437619Y-67526071D01*
X108390000Y-67573690D01*
X108342380Y-67668928D01*
X108294761Y-69145119D02*
X109580476Y-68287976D01*
X108342380Y-69907023D02*
X108342380Y-69716547D01*
X108390000Y-69621309D01*
X108437619Y-69573690D01*
X108580476Y-69478452D01*
X108770952Y-69430833D01*
X109151904Y-69430833D01*
X109247142Y-69478452D01*
X109294761Y-69526071D01*
X109342380Y-69621309D01*
X109342380Y-69811785D01*
X109294761Y-69907023D01*
X109247142Y-69954642D01*
X109151904Y-70002261D01*
X108913809Y-70002261D01*
X108818571Y-69954642D01*
X108770952Y-69907023D01*
X108723333Y-69811785D01*
X108723333Y-69621309D01*
X108770952Y-69526071D01*
X108818571Y-69478452D01*
X108913809Y-69430833D01*
X108342380Y-70621309D02*
X108342380Y-70716547D01*
X108390000Y-70811785D01*
X108437619Y-70859404D01*
X108532857Y-70907023D01*
X108723333Y-70954642D01*
X108961428Y-70954642D01*
X109151904Y-70907023D01*
X109247142Y-70859404D01*
X109294761Y-70811785D01*
X109342380Y-70716547D01*
X109342380Y-70621309D01*
X109294761Y-70526071D01*
X109247142Y-70478452D01*
X109151904Y-70430833D01*
X108961428Y-70383214D01*
X108723333Y-70383214D01*
X108532857Y-70430833D01*
X108437619Y-70478452D01*
X108390000Y-70526071D01*
X108342380Y-70621309D01*
X109342380Y-71383214D02*
X108342380Y-71383214D01*
X108818571Y-71383214D02*
X108818571Y-71954642D01*
X109342380Y-71954642D02*
X108342380Y-71954642D01*
X108675714Y-72335595D02*
X108675714Y-72859404D01*
X109342380Y-72335595D01*
X109342380Y-72859404D01*
X109056666Y-73954642D02*
X109056666Y-74430833D01*
X109342380Y-73859404D02*
X108342380Y-74192738D01*
X109342380Y-74526071D01*
X109247142Y-75430833D02*
X109294761Y-75383214D01*
X109342380Y-75240357D01*
X109342380Y-75145119D01*
X109294761Y-75002261D01*
X109199523Y-74907023D01*
X109104285Y-74859404D01*
X108913809Y-74811785D01*
X108770952Y-74811785D01*
X108580476Y-74859404D01*
X108485238Y-74907023D01*
X108390000Y-75002261D01*
X108342380Y-75145119D01*
X108342380Y-75240357D01*
X108390000Y-75383214D01*
X108437619Y-75430833D01*
X109294761Y-77049880D02*
X109342380Y-76954642D01*
X109342380Y-76764166D01*
X109294761Y-76668928D01*
X109247142Y-76621309D01*
X109151904Y-76573690D01*
X108866190Y-76573690D01*
X108770952Y-76621309D01*
X108723333Y-76668928D01*
X108675714Y-76764166D01*
X108675714Y-76954642D01*
X108723333Y-77049880D01*
X108675714Y-77907023D02*
X109342380Y-77907023D01*
X108675714Y-77478452D02*
X109199523Y-77478452D01*
X109294761Y-77526071D01*
X109342380Y-77621309D01*
X109342380Y-77764166D01*
X109294761Y-77859404D01*
X109247142Y-77907023D01*
X109342380Y-78383214D02*
X108675714Y-78383214D01*
X108866190Y-78383214D02*
X108770952Y-78430833D01*
X108723333Y-78478452D01*
X108675714Y-78573690D01*
X108675714Y-78668928D01*
X109342380Y-79002261D02*
X108675714Y-79002261D01*
X108866190Y-79002261D02*
X108770952Y-79049880D01*
X108723333Y-79097499D01*
X108675714Y-79192738D01*
X108675714Y-79287976D01*
X109294761Y-80002261D02*
X109342380Y-79907023D01*
X109342380Y-79716547D01*
X109294761Y-79621309D01*
X109199523Y-79573690D01*
X108818571Y-79573690D01*
X108723333Y-79621309D01*
X108675714Y-79716547D01*
X108675714Y-79907023D01*
X108723333Y-80002261D01*
X108818571Y-80049880D01*
X108913809Y-80049880D01*
X109009047Y-79573690D01*
X108675714Y-80478452D02*
X109342380Y-80478452D01*
X108770952Y-80478452D02*
X108723333Y-80526071D01*
X108675714Y-80621309D01*
X108675714Y-80764166D01*
X108723333Y-80859404D01*
X108818571Y-80907023D01*
X109342380Y-80907023D01*
X108675714Y-81240357D02*
X108675714Y-81621309D01*
X108342380Y-81383214D02*
X109199523Y-81383214D01*
X109294761Y-81430833D01*
X109342380Y-81526071D01*
X109342380Y-81621309D01*
X109294761Y-82668928D02*
X109342380Y-82764166D01*
X109342380Y-82954642D01*
X109294761Y-83049880D01*
X109199523Y-83097499D01*
X109151904Y-83097499D01*
X109056666Y-83049880D01*
X109009047Y-82954642D01*
X109009047Y-82811785D01*
X108961428Y-82716547D01*
X108866190Y-82668928D01*
X108818571Y-82668928D01*
X108723333Y-82716547D01*
X108675714Y-82811785D01*
X108675714Y-82954642D01*
X108723333Y-83049880D01*
X109294761Y-83907023D02*
X109342380Y-83811785D01*
X109342380Y-83621309D01*
X109294761Y-83526071D01*
X109199523Y-83478452D01*
X108818571Y-83478452D01*
X108723333Y-83526071D01*
X108675714Y-83621309D01*
X108675714Y-83811785D01*
X108723333Y-83907023D01*
X108818571Y-83954642D01*
X108913809Y-83954642D01*
X109009047Y-83478452D01*
X108675714Y-84383214D02*
X109342380Y-84383214D01*
X108770952Y-84383214D02*
X108723333Y-84430833D01*
X108675714Y-84526071D01*
X108675714Y-84668928D01*
X108723333Y-84764166D01*
X108818571Y-84811785D01*
X109342380Y-84811785D01*
X109294761Y-85240357D02*
X109342380Y-85335595D01*
X109342380Y-85526071D01*
X109294761Y-85621309D01*
X109199523Y-85668928D01*
X109151904Y-85668928D01*
X109056666Y-85621309D01*
X109009047Y-85526071D01*
X109009047Y-85383214D01*
X108961428Y-85287976D01*
X108866190Y-85240357D01*
X108818571Y-85240357D01*
X108723333Y-85287976D01*
X108675714Y-85383214D01*
X108675714Y-85526071D01*
X108723333Y-85621309D01*
X109342380Y-86240357D02*
X109294761Y-86145119D01*
X109247142Y-86097499D01*
X109151904Y-86049880D01*
X108866190Y-86049880D01*
X108770952Y-86097499D01*
X108723333Y-86145119D01*
X108675714Y-86240357D01*
X108675714Y-86383214D01*
X108723333Y-86478452D01*
X108770952Y-86526071D01*
X108866190Y-86573690D01*
X109151904Y-86573690D01*
X109247142Y-86526071D01*
X109294761Y-86478452D01*
X109342380Y-86383214D01*
X109342380Y-86240357D01*
X109342380Y-87002261D02*
X108675714Y-87002261D01*
X108866190Y-87002261D02*
X108770952Y-87049880D01*
X108723333Y-87097499D01*
X108675714Y-87192738D01*
X108675714Y-87287976D01*
X109342380Y-88383214D02*
X108675714Y-88383214D01*
X108770952Y-88383214D02*
X108723333Y-88430833D01*
X108675714Y-88526071D01*
X108675714Y-88668928D01*
X108723333Y-88764166D01*
X108818571Y-88811785D01*
X109342380Y-88811785D01*
X108818571Y-88811785D02*
X108723333Y-88859404D01*
X108675714Y-88954642D01*
X108675714Y-89097499D01*
X108723333Y-89192738D01*
X108818571Y-89240357D01*
X109342380Y-89240357D01*
X109342380Y-89859404D02*
X109294761Y-89764166D01*
X109247142Y-89716547D01*
X109151904Y-89668928D01*
X108866190Y-89668928D01*
X108770952Y-89716547D01*
X108723333Y-89764166D01*
X108675714Y-89859404D01*
X108675714Y-90002261D01*
X108723333Y-90097499D01*
X108770952Y-90145119D01*
X108866190Y-90192738D01*
X109151904Y-90192738D01*
X109247142Y-90145119D01*
X109294761Y-90097499D01*
X109342380Y-90002261D01*
X109342380Y-89859404D01*
X109342380Y-91049880D02*
X108342380Y-91049880D01*
X109294761Y-91049880D02*
X109342380Y-90954642D01*
X109342380Y-90764166D01*
X109294761Y-90668928D01*
X109247142Y-90621309D01*
X109151904Y-90573690D01*
X108866190Y-90573690D01*
X108770952Y-90621309D01*
X108723333Y-90668928D01*
X108675714Y-90764166D01*
X108675714Y-90954642D01*
X108723333Y-91049880D01*
X108675714Y-91954642D02*
X109342380Y-91954642D01*
X108675714Y-91526071D02*
X109199523Y-91526071D01*
X109294761Y-91573690D01*
X109342380Y-91668928D01*
X109342380Y-91811785D01*
X109294761Y-91907023D01*
X109247142Y-91954642D01*
X109342380Y-92573690D02*
X109294761Y-92478452D01*
X109199523Y-92430833D01*
X108342380Y-92430833D01*
X109294761Y-93335595D02*
X109342380Y-93240357D01*
X109342380Y-93049880D01*
X109294761Y-92954642D01*
X109199523Y-92907023D01*
X108818571Y-92907023D01*
X108723333Y-92954642D01*
X108675714Y-93049880D01*
X108675714Y-93240357D01*
X108723333Y-93335595D01*
X108818571Y-93383214D01*
X108913809Y-93383214D01*
X109009047Y-92907023D01*
X110952380Y-63335595D02*
X109952380Y-63335595D01*
X110047619Y-63764166D02*
X110000000Y-63811785D01*
X109952380Y-63907023D01*
X109952380Y-64145119D01*
X110000000Y-64240357D01*
X110047619Y-64287976D01*
X110142857Y-64335595D01*
X110238095Y-64335595D01*
X110380952Y-64287976D01*
X110952380Y-63716547D01*
X110952380Y-64335595D01*
X110857142Y-65335595D02*
X110904761Y-65287976D01*
X110952380Y-65145119D01*
X110952380Y-65049880D01*
X110904761Y-64907023D01*
X110809523Y-64811785D01*
X110714285Y-64764166D01*
X110523809Y-64716547D01*
X110380952Y-64716547D01*
X110190476Y-64764166D01*
X110095238Y-64811785D01*
X110000000Y-64907023D01*
X109952380Y-65049880D01*
X109952380Y-65145119D01*
X110000000Y-65287976D01*
X110047619Y-65335595D01*
X110904761Y-66478452D02*
X110952380Y-66621309D01*
X110952380Y-66859404D01*
X110904761Y-66954642D01*
X110857142Y-67002261D01*
X110761904Y-67049880D01*
X110666666Y-67049880D01*
X110571428Y-67002261D01*
X110523809Y-66954642D01*
X110476190Y-66859404D01*
X110428571Y-66668928D01*
X110380952Y-66573690D01*
X110333333Y-66526071D01*
X110238095Y-66478452D01*
X110142857Y-66478452D01*
X110047619Y-66526071D01*
X110000000Y-66573690D01*
X109952380Y-66668928D01*
X109952380Y-66907023D01*
X110000000Y-67049880D01*
X110952380Y-67478452D02*
X109952380Y-67478452D01*
X110428571Y-67478452D02*
X110428571Y-68049880D01*
X110952380Y-68049880D02*
X109952380Y-68049880D01*
X109952380Y-68383214D02*
X109952380Y-68954642D01*
X110952380Y-68668928D02*
X109952380Y-68668928D01*
X110047619Y-69240357D02*
X110000000Y-69287976D01*
X109952380Y-69383214D01*
X109952380Y-69621309D01*
X110000000Y-69716547D01*
X110047619Y-69764166D01*
X110142857Y-69811785D01*
X110238095Y-69811785D01*
X110380952Y-69764166D01*
X110952380Y-69192738D01*
X110952380Y-69811785D01*
X109952380Y-70430833D02*
X109952380Y-70526071D01*
X110000000Y-70621309D01*
X110047619Y-70668928D01*
X110142857Y-70716547D01*
X110333333Y-70764166D01*
X110571428Y-70764166D01*
X110761904Y-70716547D01*
X110857142Y-70668928D01*
X110904761Y-70621309D01*
X110952380Y-70526071D01*
X110952380Y-70430833D01*
X110904761Y-70335595D01*
X110857142Y-70287976D01*
X110761904Y-70240357D01*
X110571428Y-70192738D01*
X110333333Y-70192738D01*
X110142857Y-70240357D01*
X110047619Y-70287976D01*
X110000000Y-70335595D01*
X109952380Y-70430833D01*
X110857142Y-71192738D02*
X110904761Y-71240357D01*
X110952380Y-71192738D01*
X110904761Y-71145119D01*
X110857142Y-71192738D01*
X110952380Y-71192738D01*
X110333333Y-71192738D02*
X110380952Y-71240357D01*
X110428571Y-71192738D01*
X110380952Y-71145119D01*
X110333333Y-71192738D01*
X110428571Y-71192738D01*
X109952380Y-72621309D02*
X109952380Y-72716547D01*
X110000000Y-72811785D01*
X110047619Y-72859404D01*
X110142857Y-72907023D01*
X110333333Y-72954642D01*
X110571428Y-72954642D01*
X110761904Y-72907023D01*
X110857142Y-72859404D01*
X110904761Y-72811785D01*
X110952380Y-72716547D01*
X110952380Y-72621309D01*
X110904761Y-72526071D01*
X110857142Y-72478452D01*
X110761904Y-72430833D01*
X110571428Y-72383214D01*
X110333333Y-72383214D01*
X110142857Y-72430833D01*
X110047619Y-72478452D01*
X110000000Y-72526071D01*
X109952380Y-72621309D01*
X110952380Y-73287976D02*
X110285714Y-73811785D01*
X110285714Y-73287976D02*
X110952380Y-73811785D01*
X110285714Y-74621309D02*
X110952380Y-74621309D01*
X109904761Y-74383214D02*
X110619047Y-74145119D01*
X110619047Y-74764166D01*
X109952380Y-75335595D02*
X109952380Y-75430833D01*
X110000000Y-75526071D01*
X110047619Y-75573690D01*
X110142857Y-75621309D01*
X110333333Y-75668928D01*
X110571428Y-75668928D01*
X110761904Y-75621309D01*
X110857142Y-75573690D01*
X110904761Y-75526071D01*
X110952380Y-75430833D01*
X110952380Y-75335595D01*
X110904761Y-75240357D01*
X110857142Y-75192738D01*
X110761904Y-75145119D01*
X110571428Y-75097500D01*
X110333333Y-75097500D01*
X110142857Y-75145119D01*
X110047619Y-75192738D01*
X110000000Y-75240357D01*
X109952380Y-75335595D01*
X110571428Y-76859404D02*
X110571428Y-77621309D01*
X110952380Y-77240357D02*
X110190476Y-77240357D01*
X110666666Y-78811785D02*
X110666666Y-79287976D01*
X110952380Y-78716547D02*
X109952380Y-79049880D01*
X110952380Y-79383214D01*
X110952380Y-79716547D02*
X109952380Y-79716547D01*
X109952380Y-79954642D01*
X110000000Y-80097500D01*
X110095238Y-80192738D01*
X110190476Y-80240357D01*
X110380952Y-80287976D01*
X110523809Y-80287976D01*
X110714285Y-80240357D01*
X110809523Y-80192738D01*
X110904761Y-80097500D01*
X110952380Y-79954642D01*
X110952380Y-79716547D01*
X110952380Y-80716547D02*
X109952380Y-80716547D01*
X109952380Y-80954642D01*
X110000000Y-81097500D01*
X110095238Y-81192738D01*
X110190476Y-81240357D01*
X110380952Y-81287976D01*
X110523809Y-81287976D01*
X110714285Y-81240357D01*
X110809523Y-81192738D01*
X110904761Y-81097500D01*
X110952380Y-80954642D01*
X110952380Y-80716547D01*
X110952380Y-82287976D02*
X110476190Y-81954642D01*
X110952380Y-81716547D02*
X109952380Y-81716547D01*
X109952380Y-82097500D01*
X110000000Y-82192738D01*
X110047619Y-82240357D01*
X110142857Y-82287976D01*
X110285714Y-82287976D01*
X110380952Y-82240357D01*
X110428571Y-82192738D01*
X110476190Y-82097500D01*
X110476190Y-81716547D01*
X109952380Y-83383214D02*
X109952380Y-84002261D01*
X110333333Y-83668928D01*
X110333333Y-83811785D01*
X110380952Y-83907023D01*
X110428571Y-83954642D01*
X110523809Y-84002261D01*
X110761904Y-84002261D01*
X110857142Y-83954642D01*
X110904761Y-83907023D01*
X110952380Y-83811785D01*
X110952380Y-83526071D01*
X110904761Y-83430833D01*
X110857142Y-83383214D01*
X110857142Y-84430833D02*
X110904761Y-84478452D01*
X110952380Y-84430833D01*
X110904761Y-84383214D01*
X110857142Y-84430833D01*
X110952380Y-84430833D01*
X109952380Y-84811785D02*
X109952380Y-85430833D01*
X110333333Y-85097500D01*
X110333333Y-85240357D01*
X110380952Y-85335595D01*
X110428571Y-85383214D01*
X110523809Y-85430833D01*
X110761904Y-85430833D01*
X110857142Y-85383214D01*
X110904761Y-85335595D01*
X110952380Y-85240357D01*
X110952380Y-84954642D01*
X110904761Y-84859404D01*
X110857142Y-84811785D01*
X110571428Y-85859404D02*
X110571428Y-86621309D01*
X109952380Y-87573690D02*
X109952380Y-87097500D01*
X110428571Y-87049880D01*
X110380952Y-87097500D01*
X110333333Y-87192738D01*
X110333333Y-87430833D01*
X110380952Y-87526071D01*
X110428571Y-87573690D01*
X110523809Y-87621309D01*
X110761904Y-87621309D01*
X110857142Y-87573690D01*
X110904761Y-87526071D01*
X110952380Y-87430833D01*
X110952380Y-87192738D01*
X110904761Y-87097500D01*
X110857142Y-87049880D01*
X110857142Y-88049880D02*
X110904761Y-88097500D01*
X110952380Y-88049880D01*
X110904761Y-88002261D01*
X110857142Y-88049880D01*
X110952380Y-88049880D01*
X109952380Y-89002261D02*
X109952380Y-88526071D01*
X110428571Y-88478452D01*
X110380952Y-88526071D01*
X110333333Y-88621309D01*
X110333333Y-88859404D01*
X110380952Y-88954642D01*
X110428571Y-89002261D01*
X110523809Y-89049880D01*
X110761904Y-89049880D01*
X110857142Y-89002261D01*
X110904761Y-88954642D01*
X110952380Y-88859404D01*
X110952380Y-88621309D01*
X110904761Y-88526071D01*
X110857142Y-88478452D01*
X109952380Y-89335595D02*
X110952380Y-89668928D01*
X109952380Y-90002261D01*
X110952380Y-90764166D02*
X109952380Y-90764166D01*
X110904761Y-90764166D02*
X110952380Y-90668928D01*
X110952380Y-90478452D01*
X110904761Y-90383214D01*
X110857142Y-90335595D01*
X110761904Y-90287976D01*
X110476190Y-90287976D01*
X110380952Y-90335595D01*
X110333333Y-90383214D01*
X110285714Y-90478452D01*
X110285714Y-90668928D01*
X110333333Y-90764166D01*
X110904761Y-91668928D02*
X110952380Y-91573690D01*
X110952380Y-91383214D01*
X110904761Y-91287976D01*
X110857142Y-91240357D01*
X110761904Y-91192738D01*
X110476190Y-91192738D01*
X110380952Y-91240357D01*
X110333333Y-91287976D01*
X110285714Y-91383214D01*
X110285714Y-91573690D01*
X110333333Y-91668928D01*
X111895714Y-63764166D02*
X112705238Y-63764166D01*
X112800476Y-63716547D01*
X112848095Y-63668928D01*
X112895714Y-63573690D01*
X112895714Y-63430833D01*
X112848095Y-63335595D01*
X112514761Y-63764166D02*
X112562380Y-63668928D01*
X112562380Y-63478452D01*
X112514761Y-63383214D01*
X112467142Y-63335595D01*
X112371904Y-63287976D01*
X112086190Y-63287976D01*
X111990952Y-63335595D01*
X111943333Y-63383214D01*
X111895714Y-63478452D01*
X111895714Y-63668928D01*
X111943333Y-63764166D01*
X112562380Y-64240357D02*
X111895714Y-64240357D01*
X111562380Y-64240357D02*
X111610000Y-64192738D01*
X111657619Y-64240357D01*
X111610000Y-64287976D01*
X111562380Y-64240357D01*
X111657619Y-64240357D01*
X111895714Y-64573690D02*
X111895714Y-64954642D01*
X111562380Y-64716547D02*
X112419523Y-64716547D01*
X112514761Y-64764166D01*
X112562380Y-64859404D01*
X112562380Y-64954642D01*
X112562380Y-65287976D02*
X111562380Y-65287976D01*
X112562380Y-65716547D02*
X112038571Y-65716547D01*
X111943333Y-65668928D01*
X111895714Y-65573690D01*
X111895714Y-65430833D01*
X111943333Y-65335595D01*
X111990952Y-65287976D01*
X111895714Y-66621309D02*
X112562380Y-66621309D01*
X111895714Y-66192738D02*
X112419523Y-66192738D01*
X112514761Y-66240357D01*
X112562380Y-66335595D01*
X112562380Y-66478452D01*
X112514761Y-66573690D01*
X112467142Y-66621309D01*
X112562380Y-67097500D02*
X111562380Y-67097500D01*
X111943333Y-67097500D02*
X111895714Y-67192738D01*
X111895714Y-67383214D01*
X111943333Y-67478452D01*
X111990952Y-67526071D01*
X112086190Y-67573690D01*
X112371904Y-67573690D01*
X112467142Y-67526071D01*
X112514761Y-67478452D01*
X112562380Y-67383214D01*
X112562380Y-67192738D01*
X112514761Y-67097500D01*
X112467142Y-68002261D02*
X112514761Y-68049880D01*
X112562380Y-68002261D01*
X112514761Y-67954642D01*
X112467142Y-68002261D01*
X112562380Y-68002261D01*
X112514761Y-68907023D02*
X112562380Y-68811785D01*
X112562380Y-68621309D01*
X112514761Y-68526071D01*
X112467142Y-68478452D01*
X112371904Y-68430833D01*
X112086190Y-68430833D01*
X111990952Y-68478452D01*
X111943333Y-68526071D01*
X111895714Y-68621309D01*
X111895714Y-68811785D01*
X111943333Y-68907023D01*
X112562380Y-69478452D02*
X112514761Y-69383214D01*
X112467142Y-69335595D01*
X112371904Y-69287976D01*
X112086190Y-69287976D01*
X111990952Y-69335595D01*
X111943333Y-69383214D01*
X111895714Y-69478452D01*
X111895714Y-69621309D01*
X111943333Y-69716547D01*
X111990952Y-69764166D01*
X112086190Y-69811785D01*
X112371904Y-69811785D01*
X112467142Y-69764166D01*
X112514761Y-69716547D01*
X112562380Y-69621309D01*
X112562380Y-69478452D01*
X112562380Y-70240357D02*
X111895714Y-70240357D01*
X111990952Y-70240357D02*
X111943333Y-70287976D01*
X111895714Y-70383214D01*
X111895714Y-70526071D01*
X111943333Y-70621309D01*
X112038571Y-70668928D01*
X112562380Y-70668928D01*
X112038571Y-70668928D02*
X111943333Y-70716547D01*
X111895714Y-70811785D01*
X111895714Y-70954642D01*
X111943333Y-71049880D01*
X112038571Y-71097500D01*
X112562380Y-71097500D01*
X111514761Y-72287976D02*
X112800476Y-71430833D01*
X112562380Y-72621309D02*
X111562380Y-72621309D01*
X112038571Y-72621309D02*
X112038571Y-73192738D01*
X112562380Y-73192738D02*
X111562380Y-73192738D01*
X111895714Y-74097500D02*
X112562380Y-74097500D01*
X111895714Y-73668928D02*
X112419523Y-73668928D01*
X112514761Y-73716547D01*
X112562380Y-73811785D01*
X112562380Y-73954642D01*
X112514761Y-74049880D01*
X112467142Y-74097500D01*
X112562380Y-75002261D02*
X111562380Y-75002261D01*
X112514761Y-75002261D02*
X112562380Y-74907023D01*
X112562380Y-74716547D01*
X112514761Y-74621309D01*
X112467142Y-74573690D01*
X112371904Y-74526071D01*
X112086190Y-74526071D01*
X111990952Y-74573690D01*
X111943333Y-74621309D01*
X111895714Y-74716547D01*
X111895714Y-74907023D01*
X111943333Y-75002261D01*
X112514761Y-75430833D02*
X112562380Y-75526071D01*
X112562380Y-75716547D01*
X112514761Y-75811785D01*
X112419523Y-75859404D01*
X112371904Y-75859404D01*
X112276666Y-75811785D01*
X112229047Y-75716547D01*
X112229047Y-75573690D01*
X112181428Y-75478452D01*
X112086190Y-75430833D01*
X112038571Y-75430833D01*
X111943333Y-75478452D01*
X111895714Y-75573690D01*
X111895714Y-75716547D01*
X111943333Y-75811785D01*
X112562380Y-76430833D02*
X112514761Y-76335595D01*
X112467142Y-76287976D01*
X112371904Y-76240357D01*
X112086190Y-76240357D01*
X111990952Y-76287976D01*
X111943333Y-76335595D01*
X111895714Y-76430833D01*
X111895714Y-76573690D01*
X111943333Y-76668928D01*
X111990952Y-76716547D01*
X112086190Y-76764166D01*
X112371904Y-76764166D01*
X112467142Y-76716547D01*
X112514761Y-76668928D01*
X112562380Y-76573690D01*
X112562380Y-76430833D01*
X111895714Y-77192738D02*
X112562380Y-77192738D01*
X111990952Y-77192738D02*
X111943333Y-77240357D01*
X111895714Y-77335595D01*
X111895714Y-77478452D01*
X111943333Y-77573690D01*
X112038571Y-77621309D01*
X112562380Y-77621309D01*
X112181428Y-78097500D02*
X112181428Y-78859404D01*
X112514761Y-79287976D02*
X112562380Y-79430833D01*
X112562380Y-79668928D01*
X112514761Y-79764166D01*
X112467142Y-79811785D01*
X112371904Y-79859404D01*
X112276666Y-79859404D01*
X112181428Y-79811785D01*
X112133809Y-79764166D01*
X112086190Y-79668928D01*
X112038571Y-79478452D01*
X111990952Y-79383214D01*
X111943333Y-79335595D01*
X111848095Y-79287976D01*
X111752857Y-79287976D01*
X111657619Y-79335595D01*
X111610000Y-79383214D01*
X111562380Y-79478452D01*
X111562380Y-79716547D01*
X111610000Y-79859404D01*
X112562380Y-80430833D02*
X112514761Y-80335595D01*
X112467142Y-80287976D01*
X112371904Y-80240357D01*
X112086190Y-80240357D01*
X111990952Y-80287976D01*
X111943333Y-80335595D01*
X111895714Y-80430833D01*
X111895714Y-80573690D01*
X111943333Y-80668928D01*
X111990952Y-80716547D01*
X112086190Y-80764166D01*
X112371904Y-80764166D01*
X112467142Y-80716547D01*
X112514761Y-80668928D01*
X112562380Y-80573690D01*
X112562380Y-80430833D01*
X111895714Y-81192738D02*
X112562380Y-81192738D01*
X111990952Y-81192738D02*
X111943333Y-81240357D01*
X111895714Y-81335595D01*
X111895714Y-81478452D01*
X111943333Y-81573690D01*
X112038571Y-81621309D01*
X112562380Y-81621309D01*
X112562380Y-82240357D02*
X112514761Y-82145119D01*
X112467142Y-82097500D01*
X112371904Y-82049880D01*
X112086190Y-82049880D01*
X111990952Y-82097500D01*
X111943333Y-82145119D01*
X111895714Y-82240357D01*
X111895714Y-82383214D01*
X111943333Y-82478452D01*
X111990952Y-82526071D01*
X112086190Y-82573690D01*
X112371904Y-82573690D01*
X112467142Y-82526071D01*
X112514761Y-82478452D01*
X112562380Y-82383214D01*
X112562380Y-82240357D01*
X112562380Y-83002261D02*
X111895714Y-83002261D01*
X111990952Y-83002261D02*
X111943333Y-83049880D01*
X111895714Y-83145119D01*
X111895714Y-83287976D01*
X111943333Y-83383214D01*
X112038571Y-83430833D01*
X112562380Y-83430833D01*
X112038571Y-83430833D02*
X111943333Y-83478452D01*
X111895714Y-83573690D01*
X111895714Y-83716547D01*
X111943333Y-83811785D01*
X112038571Y-83859404D01*
X112562380Y-83859404D01*
X112562380Y-84764166D02*
X112038571Y-84764166D01*
X111943333Y-84716547D01*
X111895714Y-84621309D01*
X111895714Y-84430833D01*
X111943333Y-84335595D01*
X112514761Y-84764166D02*
X112562380Y-84668928D01*
X112562380Y-84430833D01*
X112514761Y-84335595D01*
X112419523Y-84287976D01*
X112324285Y-84287976D01*
X112229047Y-84335595D01*
X112181428Y-84430833D01*
X112181428Y-84668928D01*
X112133809Y-84764166D01*
X111514761Y-85954642D02*
X112800476Y-85097500D01*
X112562380Y-86764166D02*
X112562380Y-86287976D01*
X111562380Y-86287976D01*
X112467142Y-87668928D02*
X112514761Y-87621309D01*
X112562380Y-87478452D01*
X112562380Y-87383214D01*
X112514761Y-87240357D01*
X112419523Y-87145119D01*
X112324285Y-87097500D01*
X112133809Y-87049880D01*
X111990952Y-87049880D01*
X111800476Y-87097500D01*
X111705238Y-87145119D01*
X111610000Y-87240357D01*
X111562380Y-87383214D01*
X111562380Y-87478452D01*
X111610000Y-87621309D01*
X111657619Y-87668928D01*
X111562380Y-87954642D02*
X111562380Y-88526071D01*
X112562380Y-88240357D02*
X111562380Y-88240357D01*
X112562380Y-89383214D02*
X112562380Y-88811785D01*
X112562380Y-89097500D02*
X111562380Y-89097500D01*
X111705238Y-89002261D01*
X111800476Y-88907023D01*
X111848095Y-88811785D01*
X113172380Y-68097500D02*
X113172380Y-68192738D01*
X113220000Y-68287976D01*
X113267619Y-68335595D01*
X113362857Y-68383214D01*
X113553333Y-68430833D01*
X113791428Y-68430833D01*
X113981904Y-68383214D01*
X114077142Y-68335595D01*
X114124761Y-68287976D01*
X114172380Y-68192738D01*
X114172380Y-68097500D01*
X114124761Y-68002261D01*
X114077142Y-67954642D01*
X113981904Y-67907023D01*
X113791428Y-67859404D01*
X113553333Y-67859404D01*
X113362857Y-67907023D01*
X113267619Y-67954642D01*
X113220000Y-68002261D01*
X113172380Y-68097500D01*
X113791428Y-68859404D02*
X113791428Y-69621309D01*
X114172380Y-70621309D02*
X114172380Y-70049880D01*
X114172380Y-70335595D02*
X113172380Y-70335595D01*
X113315238Y-70240357D01*
X113410476Y-70145119D01*
X113458095Y-70049880D01*
X113505714Y-70954642D02*
X114172380Y-71192738D01*
X113505714Y-71430833D01*
X114077142Y-73145119D02*
X114124761Y-73097500D01*
X114172380Y-72954642D01*
X114172380Y-72859404D01*
X114124761Y-72716547D01*
X114029523Y-72621309D01*
X113934285Y-72573690D01*
X113743809Y-72526071D01*
X113600952Y-72526071D01*
X113410476Y-72573690D01*
X113315238Y-72621309D01*
X113220000Y-72716547D01*
X113172380Y-72859404D01*
X113172380Y-72954642D01*
X113220000Y-73097500D01*
X113267619Y-73145119D01*
X113172380Y-73430833D02*
X113172380Y-74002261D01*
X114172380Y-73716547D02*
X113172380Y-73716547D01*
X114077142Y-75097500D02*
X114124761Y-75145119D01*
X114172380Y-75097500D01*
X114124761Y-75049880D01*
X114077142Y-75097500D01*
X114172380Y-75097500D01*
X113553333Y-75097500D02*
X113600952Y-75145119D01*
X113648571Y-75097500D01*
X113600952Y-75049880D01*
X113553333Y-75097500D01*
X113648571Y-75097500D01*
X113172380Y-76526071D02*
X113172380Y-76621309D01*
X113220000Y-76716547D01*
X113267619Y-76764166D01*
X113362857Y-76811785D01*
X113553333Y-76859404D01*
X113791428Y-76859404D01*
X113981904Y-76811785D01*
X114077142Y-76764166D01*
X114124761Y-76716547D01*
X114172380Y-76621309D01*
X114172380Y-76526071D01*
X114124761Y-76430833D01*
X114077142Y-76383214D01*
X113981904Y-76335595D01*
X113791428Y-76287976D01*
X113553333Y-76287976D01*
X113362857Y-76335595D01*
X113267619Y-76383214D01*
X113220000Y-76430833D01*
X113172380Y-76526071D01*
X114077142Y-77287976D02*
X114124761Y-77335595D01*
X114172380Y-77287976D01*
X114124761Y-77240357D01*
X114077142Y-77287976D01*
X114172380Y-77287976D01*
X113172380Y-77954642D02*
X113172380Y-78049880D01*
X113220000Y-78145119D01*
X113267619Y-78192738D01*
X113362857Y-78240357D01*
X113553333Y-78287976D01*
X113791428Y-78287976D01*
X113981904Y-78240357D01*
X114077142Y-78192738D01*
X114124761Y-78145119D01*
X114172380Y-78049880D01*
X114172380Y-77954642D01*
X114124761Y-77859404D01*
X114077142Y-77811785D01*
X113981904Y-77764166D01*
X113791428Y-77716547D01*
X113553333Y-77716547D01*
X113362857Y-77764166D01*
X113267619Y-77811785D01*
X113220000Y-77859404D01*
X113172380Y-77954642D01*
X113791428Y-78716547D02*
X113791428Y-79478452D01*
X114172380Y-80478452D02*
X114172380Y-79907023D01*
X114172380Y-80192738D02*
X113172380Y-80192738D01*
X113315238Y-80097500D01*
X113410476Y-80002261D01*
X113458095Y-79907023D01*
X113172380Y-81097500D02*
X113172380Y-81192738D01*
X113220000Y-81287976D01*
X113267619Y-81335595D01*
X113362857Y-81383214D01*
X113553333Y-81430833D01*
X113791428Y-81430833D01*
X113981904Y-81383214D01*
X114077142Y-81335595D01*
X114124761Y-81287976D01*
X114172380Y-81192738D01*
X114172380Y-81097500D01*
X114124761Y-81002261D01*
X114077142Y-80954642D01*
X113981904Y-80907023D01*
X113791428Y-80859404D01*
X113553333Y-80859404D01*
X113362857Y-80907023D01*
X113267619Y-80954642D01*
X113220000Y-81002261D01*
X113172380Y-81097500D01*
X113172380Y-82049880D02*
X113172380Y-82145119D01*
X113220000Y-82240357D01*
X113267619Y-82287976D01*
X113362857Y-82335595D01*
X113553333Y-82383214D01*
X113791428Y-82383214D01*
X113981904Y-82335595D01*
X114077142Y-82287976D01*
X114124761Y-82240357D01*
X114172380Y-82145119D01*
X114172380Y-82049880D01*
X114124761Y-81954642D01*
X114077142Y-81907023D01*
X113981904Y-81859404D01*
X113791428Y-81811785D01*
X113553333Y-81811785D01*
X113362857Y-81859404D01*
X113267619Y-81907023D01*
X113220000Y-81954642D01*
X113172380Y-82049880D01*
X114077142Y-82811785D02*
X114124761Y-82859404D01*
X114172380Y-82811785D01*
X114124761Y-82764166D01*
X114077142Y-82811785D01*
X114172380Y-82811785D01*
X113172380Y-83478452D02*
X113172380Y-83573690D01*
X113220000Y-83668928D01*
X113267619Y-83716547D01*
X113362857Y-83764166D01*
X113553333Y-83811785D01*
X113791428Y-83811785D01*
X113981904Y-83764166D01*
X114077142Y-83716547D01*
X114124761Y-83668928D01*
X114172380Y-83573690D01*
X114172380Y-83478452D01*
X114124761Y-83383214D01*
X114077142Y-83335595D01*
X113981904Y-83287976D01*
X113791428Y-83240357D01*
X113553333Y-83240357D01*
X113362857Y-83287976D01*
X113267619Y-83335595D01*
X113220000Y-83383214D01*
X113172380Y-83478452D01*
X113871785Y-97142857D02*
X113820357Y-97095238D01*
X113666071Y-97047619D01*
X113563214Y-97047619D01*
X113408928Y-97095238D01*
X113306071Y-97190476D01*
X113254642Y-97285714D01*
X113203214Y-97476190D01*
X113203214Y-97619047D01*
X113254642Y-97809523D01*
X113306071Y-97904761D01*
X113408928Y-98000000D01*
X113563214Y-98047619D01*
X113666071Y-98047619D01*
X113820357Y-98000000D01*
X113871785Y-97952380D01*
X114334642Y-97428571D02*
X115157500Y-97428571D01*
X114746071Y-97047619D02*
X114746071Y-97809523D01*
X116288928Y-97142857D02*
X116237500Y-97095238D01*
X116083214Y-97047619D01*
X115980357Y-97047619D01*
X115826071Y-97095238D01*
X115723214Y-97190476D01*
X115671785Y-97285714D01*
X115620357Y-97476190D01*
X115620357Y-97619047D01*
X115671785Y-97809523D01*
X115723214Y-97904761D01*
X115826071Y-98000000D01*
X115980357Y-98047619D01*
X116083214Y-98047619D01*
X116237500Y-98000000D01*
X116288928Y-97952380D01*
X116751785Y-97428571D02*
X117574642Y-97428571D01*
X101325714Y-72468928D02*
X100605714Y-72468928D01*
X100605714Y-72743214D01*
X100640000Y-72811785D01*
X100674285Y-72846071D01*
X100742857Y-72880357D01*
X100845714Y-72880357D01*
X100914285Y-72846071D01*
X100948571Y-72811785D01*
X100982857Y-72743214D01*
X100982857Y-72468928D01*
X100640000Y-73566071D02*
X100605714Y-73497500D01*
X100605714Y-73394642D01*
X100640000Y-73291785D01*
X100708571Y-73223214D01*
X100777142Y-73188928D01*
X100914285Y-73154642D01*
X101017142Y-73154642D01*
X101154285Y-73188928D01*
X101222857Y-73223214D01*
X101291428Y-73291785D01*
X101325714Y-73394642D01*
X101325714Y-73463214D01*
X101291428Y-73566071D01*
X101257142Y-73600357D01*
X101017142Y-73600357D01*
X101017142Y-73463214D01*
X101325714Y-73908928D02*
X100605714Y-73908928D01*
X101120000Y-74148928D01*
X100605714Y-74388928D01*
X101325714Y-74388928D01*
X100605714Y-75177500D02*
X100605714Y-75588928D01*
X101325714Y-75383214D02*
X100605714Y-75383214D01*
X100605714Y-75760357D02*
X101325714Y-76240357D01*
X100605714Y-76240357D02*
X101325714Y-75760357D01*
X101325714Y-76891785D02*
X101325714Y-76480357D01*
X101325714Y-76686071D02*
X100605714Y-76686071D01*
X100708571Y-76617500D01*
X100777142Y-76548928D01*
X100811428Y-76480357D01*
X101325714Y-78160357D02*
X100982857Y-77920357D01*
X101325714Y-77748928D02*
X100605714Y-77748928D01*
X100605714Y-78023214D01*
X100640000Y-78091785D01*
X100674285Y-78126071D01*
X100742857Y-78160357D01*
X100845714Y-78160357D01*
X100914285Y-78126071D01*
X100948571Y-78091785D01*
X100982857Y-78023214D01*
X100982857Y-77748928D01*
X100605714Y-78400357D02*
X101325714Y-78880357D01*
X100605714Y-78880357D02*
X101325714Y-78400357D01*
X101325714Y-79531785D02*
X101325714Y-79120357D01*
X101325714Y-79326071D02*
X100605714Y-79326071D01*
X100708571Y-79257500D01*
X100777142Y-79188928D01*
X100811428Y-79120357D01*
X101325714Y-80388928D02*
X100605714Y-80388928D01*
X100605714Y-80663214D01*
X100640000Y-80731785D01*
X100674285Y-80766071D01*
X100742857Y-80800357D01*
X100845714Y-80800357D01*
X100914285Y-80766071D01*
X100948571Y-80731785D01*
X100982857Y-80663214D01*
X100982857Y-80388928D01*
X101120000Y-81074642D02*
X101120000Y-81417500D01*
X101325714Y-81006071D02*
X100605714Y-81246071D01*
X101325714Y-81486071D01*
X100605714Y-81657500D02*
X100605714Y-82103214D01*
X100880000Y-81863214D01*
X100880000Y-81966071D01*
X100914285Y-82034642D01*
X100948571Y-82068928D01*
X101017142Y-82103214D01*
X101188571Y-82103214D01*
X101257142Y-82068928D01*
X101291428Y-82034642D01*
X101325714Y-81966071D01*
X101325714Y-81760357D01*
X101291428Y-81691785D01*
X101257142Y-81657500D01*
X100605714Y-82857500D02*
X100605714Y-83268928D01*
X101325714Y-83063214D02*
X100605714Y-83063214D01*
X100605714Y-83440357D02*
X101325714Y-83920357D01*
X100605714Y-83920357D02*
X101325714Y-83440357D01*
X100605714Y-84331785D02*
X100605714Y-84400357D01*
X100640000Y-84468928D01*
X100674285Y-84503214D01*
X100742857Y-84537500D01*
X100880000Y-84571785D01*
X101051428Y-84571785D01*
X101188571Y-84537500D01*
X101257142Y-84503214D01*
X101291428Y-84468928D01*
X101325714Y-84400357D01*
X101325714Y-84331785D01*
X101291428Y-84263214D01*
X101257142Y-84228928D01*
X101188571Y-84194642D01*
X101051428Y-84160357D01*
X100880000Y-84160357D01*
X100742857Y-84194642D01*
X100674285Y-84228928D01*
X100640000Y-84263214D01*
X100605714Y-84331785D01*
X101325714Y-85840357D02*
X100982857Y-85600357D01*
X101325714Y-85428928D02*
X100605714Y-85428928D01*
X100605714Y-85703214D01*
X100640000Y-85771785D01*
X100674285Y-85806071D01*
X100742857Y-85840357D01*
X100845714Y-85840357D01*
X100914285Y-85806071D01*
X100948571Y-85771785D01*
X100982857Y-85703214D01*
X100982857Y-85428928D01*
X100605714Y-86080357D02*
X101325714Y-86560357D01*
X100605714Y-86560357D02*
X101325714Y-86080357D01*
X100605714Y-86971785D02*
X100605714Y-87040357D01*
X100640000Y-87108928D01*
X100674285Y-87143214D01*
X100742857Y-87177500D01*
X100880000Y-87211785D01*
X101051428Y-87211785D01*
X101188571Y-87177500D01*
X101257142Y-87143214D01*
X101291428Y-87108928D01*
X101325714Y-87040357D01*
X101325714Y-86971785D01*
X101291428Y-86903214D01*
X101257142Y-86868928D01*
X101188571Y-86834642D01*
X101051428Y-86800357D01*
X100880000Y-86800357D01*
X100742857Y-86834642D01*
X100674285Y-86868928D01*
X100640000Y-86903214D01*
X100605714Y-86971785D01*
X108514642Y-97571428D02*
X108668928Y-97523809D01*
X108720357Y-97476190D01*
X108771785Y-97380952D01*
X108771785Y-97238095D01*
X108720357Y-97142857D01*
X108668928Y-97095238D01*
X108566071Y-97047619D01*
X108154642Y-97047619D01*
X108154642Y-98047619D01*
X108514642Y-98047619D01*
X108617500Y-98000000D01*
X108668928Y-97952380D01*
X108720357Y-97857142D01*
X108720357Y-97761904D01*
X108668928Y-97666666D01*
X108617500Y-97619047D01*
X108514642Y-97571428D01*
X108154642Y-97571428D01*
X109234642Y-97428571D02*
X110057500Y-97428571D01*
X109646071Y-97047619D02*
X109646071Y-97809523D01*
X110931785Y-97571428D02*
X111086071Y-97523809D01*
X111137500Y-97476190D01*
X111188928Y-97380952D01*
X111188928Y-97238095D01*
X111137500Y-97142857D01*
X111086071Y-97095238D01*
X110983214Y-97047619D01*
X110571785Y-97047619D01*
X110571785Y-98047619D01*
X110931785Y-98047619D01*
X111034642Y-98000000D01*
X111086071Y-97952380D01*
X111137500Y-97857142D01*
X111137500Y-97761904D01*
X111086071Y-97666666D01*
X111034642Y-97619047D01*
X110931785Y-97571428D01*
X110571785Y-97571428D01*
X111651785Y-97428571D02*
X112474642Y-97428571D01*
X103303214Y-97433333D02*
X103817500Y-97433333D01*
X103200357Y-97147619D02*
X103560357Y-98147619D01*
X103920357Y-97147619D01*
X104280357Y-97528571D02*
X105103214Y-97528571D01*
X104691785Y-97147619D02*
X104691785Y-97909523D01*
X105566071Y-97433333D02*
X106080357Y-97433333D01*
X105463214Y-97147619D02*
X105823214Y-98147619D01*
X106183214Y-97147619D01*
X106543214Y-97528571D02*
X107366071Y-97528571D01*
%TO.C,REF\u002A\u002A*%
G36*
X106054491Y-62439775D02*
G01*
X106041156Y-62474732D01*
X106028323Y-62500903D01*
X106011780Y-62517987D01*
X105986465Y-62527914D01*
X105947316Y-62532614D01*
X105889268Y-62534018D01*
X105807261Y-62534057D01*
X105741895Y-62534256D01*
X105679173Y-62535441D01*
X105636334Y-62538271D01*
X105608220Y-62543391D01*
X105589675Y-62551447D01*
X105575543Y-62563086D01*
X105555600Y-62591697D01*
X105548083Y-62639761D01*
X105567079Y-62687312D01*
X105569511Y-62690450D01*
X105580748Y-62700231D01*
X105598770Y-62707447D01*
X105628026Y-62712701D01*
X105672962Y-62716598D01*
X105738028Y-62719744D01*
X105827670Y-62722743D01*
X106067697Y-62730000D01*
X106040044Y-62791686D01*
X106012391Y-62853371D01*
X105793246Y-62853371D01*
X105733711Y-62853116D01*
X105650892Y-62850914D01*
X105589227Y-62845339D01*
X105543748Y-62835059D01*
X105509484Y-62818742D01*
X105481466Y-62795057D01*
X105454723Y-62762672D01*
X105427780Y-62716093D01*
X105410191Y-62642713D01*
X105417822Y-62568980D01*
X105449680Y-62501190D01*
X105504770Y-62445634D01*
X105522016Y-62434119D01*
X105541562Y-62424568D01*
X105566198Y-62417794D01*
X105600711Y-62413181D01*
X105649889Y-62410112D01*
X105718519Y-62407971D01*
X105811389Y-62406141D01*
X106069007Y-62401596D01*
X106054491Y-62439775D01*
G37*
D11*
X106054491Y-62439775D02*
X106041156Y-62474732D01*
X106028323Y-62500903D01*
X106011780Y-62517987D01*
X105986465Y-62527914D01*
X105947316Y-62532614D01*
X105889268Y-62534018D01*
X105807261Y-62534057D01*
X105741895Y-62534256D01*
X105679173Y-62535441D01*
X105636334Y-62538271D01*
X105608220Y-62543391D01*
X105589675Y-62551447D01*
X105575543Y-62563086D01*
X105555600Y-62591697D01*
X105548083Y-62639761D01*
X105567079Y-62687312D01*
X105569511Y-62690450D01*
X105580748Y-62700231D01*
X105598770Y-62707447D01*
X105628026Y-62712701D01*
X105672962Y-62716598D01*
X105738028Y-62719744D01*
X105827670Y-62722743D01*
X106067697Y-62730000D01*
X106040044Y-62791686D01*
X106012391Y-62853371D01*
X105793246Y-62853371D01*
X105733711Y-62853116D01*
X105650892Y-62850914D01*
X105589227Y-62845339D01*
X105543748Y-62835059D01*
X105509484Y-62818742D01*
X105481466Y-62795057D01*
X105454723Y-62762672D01*
X105427780Y-62716093D01*
X105410191Y-62642713D01*
X105417822Y-62568980D01*
X105449680Y-62501190D01*
X105504770Y-62445634D01*
X105522016Y-62434119D01*
X105541562Y-62424568D01*
X105566198Y-62417794D01*
X105600711Y-62413181D01*
X105649889Y-62410112D01*
X105718519Y-62407971D01*
X105811389Y-62406141D01*
X106069007Y-62401596D01*
X106054491Y-62439775D01*
G36*
X105806313Y-64770463D02*
G01*
X105883462Y-64778655D01*
X105941276Y-64796481D01*
X105985422Y-64826025D01*
X106021568Y-64869375D01*
X106042463Y-64910668D01*
X106054090Y-64980013D01*
X106041377Y-65049264D01*
X106005945Y-65111855D01*
X105949418Y-65161221D01*
X105938995Y-65167182D01*
X105920733Y-65175055D01*
X105897429Y-65180894D01*
X105865085Y-65185001D01*
X105819704Y-65187675D01*
X105757287Y-65189219D01*
X105673837Y-65189933D01*
X105565358Y-65190117D01*
X105228601Y-65190171D01*
X105248362Y-65143000D01*
X105253770Y-65130528D01*
X105265985Y-65110676D01*
X105284482Y-65099313D01*
X105316829Y-65093067D01*
X105370593Y-65088571D01*
X105418866Y-65084465D01*
X105450557Y-65079037D01*
X105462383Y-65071261D01*
X105459212Y-65059543D01*
X105448067Y-65029682D01*
X105445304Y-64976316D01*
X105447837Y-64962224D01*
X105548843Y-64962224D01*
X105552198Y-65012960D01*
X105580107Y-65057013D01*
X105591173Y-65066496D01*
X105612009Y-65078061D01*
X105641106Y-65084748D01*
X105685381Y-65087827D01*
X105751748Y-65088571D01*
X105804577Y-65088228D01*
X105852362Y-65086058D01*
X105883209Y-65080693D01*
X105903935Y-65070783D01*
X105921356Y-65054979D01*
X105924705Y-65051276D01*
X105949419Y-65003701D01*
X105946890Y-64953365D01*
X105917288Y-64906483D01*
X105901953Y-64892523D01*
X105881622Y-64880840D01*
X105853514Y-64874314D01*
X105810550Y-64871476D01*
X105745647Y-64870857D01*
X105696122Y-64871163D01*
X105647782Y-64873278D01*
X105616587Y-64878610D01*
X105595647Y-64888540D01*
X105578073Y-64904450D01*
X105570159Y-64913796D01*
X105548843Y-64962224D01*
X105447837Y-64962224D01*
X105455625Y-64918907D01*
X105477861Y-64869375D01*
X105498443Y-64842124D01*
X105538600Y-64807135D01*
X105590086Y-64784726D01*
X105658568Y-64772810D01*
X105745647Y-64769458D01*
X105749714Y-64769302D01*
X105806313Y-64770463D01*
G37*
X105806313Y-64770463D02*
X105883462Y-64778655D01*
X105941276Y-64796481D01*
X105985422Y-64826025D01*
X106021568Y-64869375D01*
X106042463Y-64910668D01*
X106054090Y-64980013D01*
X106041377Y-65049264D01*
X106005945Y-65111855D01*
X105949418Y-65161221D01*
X105938995Y-65167182D01*
X105920733Y-65175055D01*
X105897429Y-65180894D01*
X105865085Y-65185001D01*
X105819704Y-65187675D01*
X105757287Y-65189219D01*
X105673837Y-65189933D01*
X105565358Y-65190117D01*
X105228601Y-65190171D01*
X105248362Y-65143000D01*
X105253770Y-65130528D01*
X105265985Y-65110676D01*
X105284482Y-65099313D01*
X105316829Y-65093067D01*
X105370593Y-65088571D01*
X105418866Y-65084465D01*
X105450557Y-65079037D01*
X105462383Y-65071261D01*
X105459212Y-65059543D01*
X105448067Y-65029682D01*
X105445304Y-64976316D01*
X105447837Y-64962224D01*
X105548843Y-64962224D01*
X105552198Y-65012960D01*
X105580107Y-65057013D01*
X105591173Y-65066496D01*
X105612009Y-65078061D01*
X105641106Y-65084748D01*
X105685381Y-65087827D01*
X105751748Y-65088571D01*
X105804577Y-65088228D01*
X105852362Y-65086058D01*
X105883209Y-65080693D01*
X105903935Y-65070783D01*
X105921356Y-65054979D01*
X105924705Y-65051276D01*
X105949419Y-65003701D01*
X105946890Y-64953365D01*
X105917288Y-64906483D01*
X105901953Y-64892523D01*
X105881622Y-64880840D01*
X105853514Y-64874314D01*
X105810550Y-64871476D01*
X105745647Y-64870857D01*
X105696122Y-64871163D01*
X105647782Y-64873278D01*
X105616587Y-64878610D01*
X105595647Y-64888540D01*
X105578073Y-64904450D01*
X105570159Y-64913796D01*
X105548843Y-64962224D01*
X105447837Y-64962224D01*
X105455625Y-64918907D01*
X105477861Y-64869375D01*
X105498443Y-64842124D01*
X105538600Y-64807135D01*
X105590086Y-64784726D01*
X105658568Y-64772810D01*
X105745647Y-64769458D01*
X105749714Y-64769302D01*
X105806313Y-64770463D01*
G36*
X105685128Y-63829001D02*
G01*
X105665308Y-63861308D01*
X105624160Y-63886769D01*
X105615675Y-63889384D01*
X105572451Y-63917522D01*
X105549103Y-63959933D01*
X105548100Y-64008630D01*
X105571914Y-64055627D01*
X105578056Y-64062643D01*
X105604745Y-64086107D01*
X105628014Y-64089981D01*
X105650862Y-64072232D01*
X105676287Y-64030821D01*
X105707288Y-63963714D01*
X105709252Y-63959176D01*
X105743990Y-63884678D01*
X105774763Y-63833797D01*
X105805488Y-63802475D01*
X105840082Y-63786657D01*
X105882462Y-63782286D01*
X105929446Y-63788014D01*
X105989585Y-63816938D01*
X106032788Y-63867822D01*
X106045759Y-63904626D01*
X106052856Y-63956566D01*
X106051340Y-64007001D01*
X106040632Y-64043017D01*
X106037966Y-64046842D01*
X106019337Y-64057002D01*
X105986505Y-64049952D01*
X105960735Y-64037703D01*
X105950006Y-64018061D01*
X105950539Y-63980809D01*
X105947462Y-63929092D01*
X105926212Y-63895299D01*
X105886877Y-63883886D01*
X105885747Y-63883896D01*
X105862913Y-63890813D01*
X105841963Y-63914341D01*
X105817815Y-63960086D01*
X105788741Y-64022296D01*
X105772925Y-64063501D01*
X105773944Y-64087288D01*
X105794837Y-64098403D01*
X105838641Y-64101592D01*
X105908393Y-64101600D01*
X105951452Y-64101956D01*
X106004626Y-64103587D01*
X106041022Y-64106239D01*
X106054514Y-64109578D01*
X106054423Y-64110470D01*
X106047110Y-64129763D01*
X106031678Y-64161716D01*
X106008842Y-64205876D01*
X105803078Y-64200629D01*
X105789432Y-64200264D01*
X105693651Y-64196096D01*
X105621462Y-64188732D01*
X105568058Y-64176670D01*
X105528633Y-64158407D01*
X105498380Y-64132440D01*
X105472493Y-64097267D01*
X105472087Y-64096616D01*
X105450968Y-64039744D01*
X105447400Y-63973967D01*
X105460569Y-63910517D01*
X105489661Y-63860624D01*
X105512327Y-63838675D01*
X105580082Y-63796496D01*
X105653950Y-63782286D01*
X105704770Y-63782286D01*
X105685128Y-63829001D01*
G37*
X105685128Y-63829001D02*
X105665308Y-63861308D01*
X105624160Y-63886769D01*
X105615675Y-63889384D01*
X105572451Y-63917522D01*
X105549103Y-63959933D01*
X105548100Y-64008630D01*
X105571914Y-64055627D01*
X105578056Y-64062643D01*
X105604745Y-64086107D01*
X105628014Y-64089981D01*
X105650862Y-64072232D01*
X105676287Y-64030821D01*
X105707288Y-63963714D01*
X105709252Y-63959176D01*
X105743990Y-63884678D01*
X105774763Y-63833797D01*
X105805488Y-63802475D01*
X105840082Y-63786657D01*
X105882462Y-63782286D01*
X105929446Y-63788014D01*
X105989585Y-63816938D01*
X106032788Y-63867822D01*
X106045759Y-63904626D01*
X106052856Y-63956566D01*
X106051340Y-64007001D01*
X106040632Y-64043017D01*
X106037966Y-64046842D01*
X106019337Y-64057002D01*
X105986505Y-64049952D01*
X105960735Y-64037703D01*
X105950006Y-64018061D01*
X105950539Y-63980809D01*
X105947462Y-63929092D01*
X105926212Y-63895299D01*
X105886877Y-63883886D01*
X105885747Y-63883896D01*
X105862913Y-63890813D01*
X105841963Y-63914341D01*
X105817815Y-63960086D01*
X105788741Y-64022296D01*
X105772925Y-64063501D01*
X105773944Y-64087288D01*
X105794837Y-64098403D01*
X105838641Y-64101592D01*
X105908393Y-64101600D01*
X105951452Y-64101956D01*
X106004626Y-64103587D01*
X106041022Y-64106239D01*
X106054514Y-64109578D01*
X106054423Y-64110470D01*
X106047110Y-64129763D01*
X106031678Y-64161716D01*
X106008842Y-64205876D01*
X105803078Y-64200629D01*
X105789432Y-64200264D01*
X105693651Y-64196096D01*
X105621462Y-64188732D01*
X105568058Y-64176670D01*
X105528633Y-64158407D01*
X105498380Y-64132440D01*
X105472493Y-64097267D01*
X105472087Y-64096616D01*
X105450968Y-64039744D01*
X105447400Y-63973967D01*
X105460569Y-63910517D01*
X105489661Y-63860624D01*
X105512327Y-63838675D01*
X105580082Y-63796496D01*
X105653950Y-63782286D01*
X105704770Y-63782286D01*
X105685128Y-63829001D01*
G36*
X105874027Y-66365998D02*
G01*
X105945715Y-66366847D01*
X106002925Y-66368289D01*
X106040809Y-66370186D01*
X106054514Y-66372403D01*
X106049981Y-66386828D01*
X106037670Y-66415946D01*
X106037272Y-66416819D01*
X106029356Y-66431940D01*
X106018495Y-66442109D01*
X105999471Y-66448309D01*
X105967069Y-66451522D01*
X105916071Y-66452730D01*
X105841261Y-66452914D01*
X105793804Y-66453286D01*
X105704615Y-66457250D01*
X105639287Y-66466327D01*
X105594393Y-66481476D01*
X105566507Y-66503655D01*
X105552203Y-66533825D01*
X105551206Y-66538010D01*
X105550427Y-66594520D01*
X105575744Y-66638590D01*
X105626502Y-66669028D01*
X105641175Y-66674456D01*
X105673649Y-66686829D01*
X105688572Y-66693095D01*
X105686516Y-66705964D01*
X105675357Y-66734067D01*
X105656927Y-66760279D01*
X105622098Y-66772229D01*
X105597151Y-66768664D01*
X105546547Y-66746765D01*
X105499128Y-66711356D01*
X105466334Y-66669948D01*
X105458752Y-66652600D01*
X105446076Y-66586911D01*
X105451097Y-66517171D01*
X105473355Y-66457247D01*
X105490080Y-66432327D01*
X105514043Y-66407090D01*
X105544526Y-66389088D01*
X105586023Y-66377142D01*
X105643032Y-66370070D01*
X105720047Y-66366692D01*
X105821565Y-66365829D01*
X105874027Y-66365998D01*
G37*
X105874027Y-66365998D02*
X105945715Y-66366847D01*
X106002925Y-66368289D01*
X106040809Y-66370186D01*
X106054514Y-66372403D01*
X106049981Y-66386828D01*
X106037670Y-66415946D01*
X106037272Y-66416819D01*
X106029356Y-66431940D01*
X106018495Y-66442109D01*
X105999471Y-66448309D01*
X105967069Y-66451522D01*
X105916071Y-66452730D01*
X105841261Y-66452914D01*
X105793804Y-66453286D01*
X105704615Y-66457250D01*
X105639287Y-66466327D01*
X105594393Y-66481476D01*
X105566507Y-66503655D01*
X105552203Y-66533825D01*
X105551206Y-66538010D01*
X105550427Y-66594520D01*
X105575744Y-66638590D01*
X105626502Y-66669028D01*
X105641175Y-66674456D01*
X105673649Y-66686829D01*
X105688572Y-66693095D01*
X105686516Y-66705964D01*
X105675357Y-66734067D01*
X105656927Y-66760279D01*
X105622098Y-66772229D01*
X105597151Y-66768664D01*
X105546547Y-66746765D01*
X105499128Y-66711356D01*
X105466334Y-66669948D01*
X105458752Y-66652600D01*
X105446076Y-66586911D01*
X105451097Y-66517171D01*
X105473355Y-66457247D01*
X105490080Y-66432327D01*
X105514043Y-66407090D01*
X105544526Y-66389088D01*
X105586023Y-66377142D01*
X105643032Y-66370070D01*
X105720047Y-66366692D01*
X105821565Y-66365829D01*
X105874027Y-66365998D01*
G36*
X105804078Y-61842316D02*
G01*
X105827387Y-61844922D01*
X105910352Y-61864340D01*
X105973448Y-61899427D01*
X106021808Y-61952788D01*
X106023804Y-61955804D01*
X106052185Y-62023638D01*
X106054711Y-62094465D01*
X106033097Y-62162711D01*
X105989062Y-62222804D01*
X105924322Y-62269171D01*
X105922761Y-62269950D01*
X105882558Y-62285357D01*
X105836866Y-62296643D01*
X105793972Y-62302630D01*
X105762160Y-62302139D01*
X105749714Y-62293993D01*
X105750471Y-62286756D01*
X105764235Y-62252149D01*
X105789546Y-62212922D01*
X105818845Y-62179552D01*
X105844572Y-62162517D01*
X105879471Y-62144808D01*
X105911212Y-62108515D01*
X105923886Y-62066370D01*
X105920221Y-62050923D01*
X105901774Y-62020431D01*
X105876166Y-61993872D01*
X105852934Y-61982514D01*
X105852848Y-61982518D01*
X105842179Y-61995404D01*
X105822933Y-62029759D01*
X105797813Y-62080407D01*
X105769524Y-62142171D01*
X105769374Y-62142511D01*
X105739498Y-62209612D01*
X105717973Y-62254589D01*
X105701437Y-62281855D01*
X105686531Y-62295822D01*
X105669893Y-62300903D01*
X105648162Y-62301510D01*
X105596086Y-62296167D01*
X105525335Y-62269749D01*
X105469735Y-62225527D01*
X105431239Y-62168303D01*
X105411797Y-62102880D01*
X105412910Y-62053846D01*
X105547950Y-62053846D01*
X105549845Y-62095923D01*
X105575632Y-62134995D01*
X105593451Y-62150353D01*
X105607013Y-62154000D01*
X105619949Y-62139209D01*
X105639333Y-62102356D01*
X105639881Y-62101275D01*
X105660587Y-62057795D01*
X105677105Y-62018898D01*
X105684093Y-61994222D01*
X105674753Y-61984324D01*
X105642748Y-61982514D01*
X105602915Y-61990034D01*
X105566717Y-62016103D01*
X105547950Y-62053846D01*
X105412910Y-62053846D01*
X105413359Y-62034063D01*
X105437878Y-61966653D01*
X105487302Y-61905456D01*
X105536212Y-61871550D01*
X105606027Y-61847194D01*
X105642748Y-61843233D01*
X105694055Y-61837701D01*
X105804078Y-61842316D01*
G37*
X105804078Y-61842316D02*
X105827387Y-61844922D01*
X105910352Y-61864340D01*
X105973448Y-61899427D01*
X106021808Y-61952788D01*
X106023804Y-61955804D01*
X106052185Y-62023638D01*
X106054711Y-62094465D01*
X106033097Y-62162711D01*
X105989062Y-62222804D01*
X105924322Y-62269171D01*
X105922761Y-62269950D01*
X105882558Y-62285357D01*
X105836866Y-62296643D01*
X105793972Y-62302630D01*
X105762160Y-62302139D01*
X105749714Y-62293993D01*
X105750471Y-62286756D01*
X105764235Y-62252149D01*
X105789546Y-62212922D01*
X105818845Y-62179552D01*
X105844572Y-62162517D01*
X105879471Y-62144808D01*
X105911212Y-62108515D01*
X105923886Y-62066370D01*
X105920221Y-62050923D01*
X105901774Y-62020431D01*
X105876166Y-61993872D01*
X105852934Y-61982514D01*
X105852848Y-61982518D01*
X105842179Y-61995404D01*
X105822933Y-62029759D01*
X105797813Y-62080407D01*
X105769524Y-62142171D01*
X105769374Y-62142511D01*
X105739498Y-62209612D01*
X105717973Y-62254589D01*
X105701437Y-62281855D01*
X105686531Y-62295822D01*
X105669893Y-62300903D01*
X105648162Y-62301510D01*
X105596086Y-62296167D01*
X105525335Y-62269749D01*
X105469735Y-62225527D01*
X105431239Y-62168303D01*
X105411797Y-62102880D01*
X105412910Y-62053846D01*
X105547950Y-62053846D01*
X105549845Y-62095923D01*
X105575632Y-62134995D01*
X105593451Y-62150353D01*
X105607013Y-62154000D01*
X105619949Y-62139209D01*
X105639333Y-62102356D01*
X105639881Y-62101275D01*
X105660587Y-62057795D01*
X105677105Y-62018898D01*
X105684093Y-61994222D01*
X105674753Y-61984324D01*
X105642748Y-61982514D01*
X105602915Y-61990034D01*
X105566717Y-62016103D01*
X105547950Y-62053846D01*
X105412910Y-62053846D01*
X105413359Y-62034063D01*
X105437878Y-61966653D01*
X105487302Y-61905456D01*
X105536212Y-61871550D01*
X105606027Y-61847194D01*
X105642748Y-61843233D01*
X105694055Y-61837701D01*
X105804078Y-61842316D01*
G36*
X103367839Y-61782943D02*
G01*
X103369642Y-61792160D01*
X103378980Y-61841109D01*
X103391669Y-61908795D01*
X103406273Y-61987522D01*
X103421355Y-62069600D01*
X103427422Y-62101922D01*
X103442181Y-62174145D01*
X103456137Y-62234334D01*
X103467952Y-62276960D01*
X103476287Y-62296490D01*
X103489905Y-62305340D01*
X103525938Y-62321452D01*
X103572572Y-62337935D01*
X103590034Y-62343737D01*
X103647358Y-62365094D01*
X103715201Y-62392641D01*
X103782355Y-62421893D01*
X103817430Y-62437537D01*
X103869822Y-62459826D01*
X103909058Y-62475143D01*
X103928563Y-62480838D01*
X103930036Y-62480522D01*
X103950729Y-62469719D01*
X103990665Y-62445362D01*
X104045972Y-62409919D01*
X104112781Y-62365864D01*
X104187220Y-62315668D01*
X104429623Y-62150499D01*
X104646983Y-62367497D01*
X104667899Y-62388484D01*
X104730505Y-62452658D01*
X104784495Y-62510010D01*
X104826826Y-62557180D01*
X104854457Y-62590808D01*
X104864343Y-62607533D01*
X104856821Y-62625697D01*
X104835227Y-62663735D01*
X104802151Y-62717274D01*
X104760191Y-62782116D01*
X104711943Y-62854060D01*
X104664291Y-62924725D01*
X104622328Y-62988474D01*
X104589165Y-63040487D01*
X104567378Y-63076721D01*
X104559543Y-63093133D01*
X104559614Y-63094095D01*
X104567338Y-63115897D01*
X104585323Y-63154560D01*
X104610013Y-63202388D01*
X104610284Y-63202890D01*
X104642099Y-63266413D01*
X104657642Y-63309940D01*
X104657685Y-63336948D01*
X104643000Y-63350910D01*
X104628544Y-63356820D01*
X104589831Y-63372771D01*
X104530316Y-63397340D01*
X104453165Y-63429221D01*
X104361541Y-63467107D01*
X104258607Y-63509690D01*
X104147526Y-63555663D01*
X104046472Y-63597333D01*
X103942780Y-63639732D01*
X103850119Y-63677244D01*
X103771642Y-63708612D01*
X103710500Y-63732575D01*
X103669843Y-63747877D01*
X103652825Y-63753257D01*
X103637219Y-63742982D01*
X103611162Y-63714437D01*
X103580887Y-63674029D01*
X103501684Y-63577021D01*
X103400475Y-63490207D01*
X103289116Y-63426678D01*
X103170893Y-63386823D01*
X103049095Y-63371035D01*
X102927010Y-63379704D01*
X102807925Y-63413222D01*
X102695129Y-63471979D01*
X102591911Y-63556368D01*
X102551713Y-63600369D01*
X102480638Y-63705789D01*
X102434301Y-63818590D01*
X102411599Y-63935475D01*
X102411428Y-64053147D01*
X102432687Y-64168310D01*
X102474270Y-64277665D01*
X102535076Y-64377917D01*
X102614001Y-64465767D01*
X102709941Y-64537920D01*
X102821795Y-64591078D01*
X102948457Y-64621943D01*
X103009507Y-64627608D01*
X103141776Y-64619815D01*
X103267266Y-64584716D01*
X103383759Y-64523351D01*
X103489039Y-64436757D01*
X103580887Y-64325971D01*
X103609930Y-64287069D01*
X103636272Y-64257896D01*
X103652800Y-64246743D01*
X103667209Y-64251190D01*
X103705815Y-64265622D01*
X103765201Y-64288827D01*
X103842215Y-64319548D01*
X103933703Y-64356526D01*
X104036516Y-64398504D01*
X104147502Y-64444222D01*
X104248072Y-64485822D01*
X104351947Y-64528778D01*
X104444819Y-64567171D01*
X104523525Y-64599695D01*
X104584899Y-64625042D01*
X104625779Y-64641905D01*
X104643000Y-64648975D01*
X104643204Y-64649057D01*
X104657745Y-64663202D01*
X104657579Y-64690341D01*
X104641927Y-64733977D01*
X104610013Y-64797612D01*
X104607326Y-64802621D01*
X104583150Y-64849875D01*
X104566037Y-64887189D01*
X104559543Y-64906867D01*
X104567218Y-64922995D01*
X104588871Y-64959041D01*
X104621928Y-65010908D01*
X104663810Y-65074555D01*
X104711943Y-65145940D01*
X104759131Y-65216276D01*
X104801267Y-65281330D01*
X104834578Y-65335180D01*
X104856469Y-65373626D01*
X104864343Y-65392466D01*
X104863343Y-65395675D01*
X104847584Y-65418046D01*
X104815033Y-65456267D01*
X104768733Y-65506979D01*
X104711726Y-65566819D01*
X104647058Y-65632429D01*
X104429772Y-65849352D01*
X104181253Y-65680399D01*
X103932733Y-65511447D01*
X103821595Y-65562817D01*
X103821266Y-65562969D01*
X103750418Y-65593817D01*
X103671523Y-65625339D01*
X103601600Y-65650734D01*
X103590322Y-65654577D01*
X103537967Y-65673953D01*
X103497283Y-65691426D01*
X103476287Y-65703612D01*
X103473322Y-65708574D01*
X103463375Y-65738366D01*
X103450505Y-65788953D01*
X103436053Y-65854806D01*
X103421355Y-65930400D01*
X103417210Y-65953043D01*
X103402116Y-66034962D01*
X103387899Y-66111400D01*
X103375995Y-66174663D01*
X103367839Y-66217057D01*
X103352799Y-66293257D01*
X103035492Y-66293257D01*
X102996476Y-66293240D01*
X102901292Y-66292918D01*
X102830255Y-66291967D01*
X102779734Y-66290104D01*
X102746098Y-66287045D01*
X102725718Y-66282506D01*
X102714962Y-66276205D01*
X102710199Y-66267857D01*
X102708270Y-66259776D01*
X102701445Y-66226828D01*
X102691022Y-66174264D01*
X102678018Y-66107431D01*
X102663449Y-66031672D01*
X102648333Y-65952335D01*
X102633685Y-65874763D01*
X102620523Y-65804302D01*
X102609863Y-65746298D01*
X102602721Y-65706096D01*
X102600114Y-65689041D01*
X102598541Y-65687888D01*
X102578119Y-65678615D01*
X102539045Y-65662568D01*
X102487629Y-65642365D01*
X102418353Y-65614328D01*
X102338290Y-65579814D01*
X102267728Y-65547462D01*
X102251889Y-65540048D01*
X102202293Y-65519245D01*
X102164038Y-65506781D01*
X102144356Y-65505137D01*
X102142962Y-65505985D01*
X102122420Y-65519452D01*
X102082516Y-65546150D01*
X102027140Y-65583461D01*
X101960177Y-65628766D01*
X101885517Y-65679448D01*
X101800692Y-65736555D01*
X101734800Y-65779393D01*
X101686478Y-65808540D01*
X101652733Y-65825683D01*
X101630572Y-65832505D01*
X101617002Y-65830694D01*
X101615984Y-65830085D01*
X101596210Y-65813703D01*
X101560175Y-65780305D01*
X101511451Y-65733329D01*
X101453612Y-65676214D01*
X101390227Y-65612397D01*
X101325905Y-65546198D01*
X101265447Y-65481352D01*
X101224655Y-65433701D01*
X101202484Y-65402010D01*
X101197889Y-65385042D01*
X101198921Y-65382825D01*
X101212837Y-65359476D01*
X101240030Y-65317088D01*
X101277889Y-65259631D01*
X101323803Y-65191077D01*
X101375160Y-65115399D01*
X101543626Y-64868702D01*
X101493062Y-64757294D01*
X101491597Y-64754057D01*
X101461965Y-64685657D01*
X101432493Y-64613093D01*
X101409358Y-64551543D01*
X101409262Y-64551271D01*
X101391367Y-64502405D01*
X101376253Y-64464788D01*
X101367184Y-64446543D01*
X101366855Y-64446248D01*
X101348282Y-64440054D01*
X101306045Y-64429861D01*
X101244696Y-64416652D01*
X101168789Y-64401410D01*
X101082875Y-64385119D01*
X101079796Y-64384551D01*
X100992128Y-64368287D01*
X100912741Y-64353392D01*
X100846701Y-64340829D01*
X100799079Y-64331562D01*
X100774943Y-64326556D01*
X100773605Y-64326236D01*
X100763273Y-64322940D01*
X100755506Y-64316262D01*
X100749940Y-64302538D01*
X100746207Y-64278105D01*
X100743942Y-64239298D01*
X100742778Y-64182454D01*
X100742348Y-64103910D01*
X100742286Y-64000000D01*
X100742286Y-63986944D01*
X100742371Y-63886067D01*
X100742865Y-63810144D01*
X100744135Y-63755509D01*
X100746547Y-63718500D01*
X100750467Y-63695453D01*
X100756262Y-63682704D01*
X100764299Y-63676589D01*
X100774943Y-63673444D01*
X100775325Y-63673354D01*
X100800347Y-63668186D01*
X100848681Y-63658791D01*
X100915260Y-63646133D01*
X100995014Y-63631175D01*
X101082875Y-63614881D01*
X101090064Y-63613552D01*
X101175340Y-63597309D01*
X101250242Y-63582195D01*
X101310219Y-63569192D01*
X101350717Y-63559285D01*
X101367184Y-63553456D01*
X101367210Y-63553425D01*
X101376320Y-63535057D01*
X101391457Y-63497360D01*
X101409358Y-63448457D01*
X101410330Y-63445703D01*
X101433959Y-63383183D01*
X101463595Y-63310457D01*
X101493062Y-63242706D01*
X101543626Y-63131297D01*
X101375160Y-62884601D01*
X101363311Y-62867225D01*
X101312947Y-62792798D01*
X101268612Y-62726386D01*
X101232916Y-62671961D01*
X101208471Y-62633494D01*
X101197889Y-62614958D01*
X101200315Y-62602257D01*
X101219110Y-62573421D01*
X101256330Y-62528857D01*
X101313020Y-62467330D01*
X101390227Y-62387602D01*
X101397255Y-62380468D01*
X101460222Y-62317204D01*
X101517268Y-62261010D01*
X101564817Y-62215323D01*
X101599297Y-62183586D01*
X101617131Y-62169236D01*
X101617217Y-62169190D01*
X101630795Y-62167367D01*
X101652820Y-62174090D01*
X101686304Y-62191054D01*
X101734261Y-62219956D01*
X101799704Y-62262492D01*
X101885645Y-62320356D01*
X101900151Y-62330217D01*
X101973635Y-62380087D01*
X102038687Y-62424095D01*
X102091417Y-62459620D01*
X102127936Y-62484041D01*
X102144356Y-62494736D01*
X102147834Y-62495542D01*
X102173785Y-62490482D01*
X102216159Y-62475323D01*
X102267728Y-62452537D01*
X102335170Y-62421571D01*
X102415195Y-62386996D01*
X102487629Y-62357634D01*
X102506377Y-62350355D01*
X102554246Y-62331290D01*
X102587596Y-62317285D01*
X102600114Y-62310959D01*
X102601050Y-62303975D01*
X102606461Y-62272587D01*
X102615806Y-62221213D01*
X102628069Y-62155198D01*
X102642232Y-62079887D01*
X102657280Y-62000625D01*
X102672195Y-61922757D01*
X102685961Y-61851630D01*
X102697562Y-61792588D01*
X102705980Y-61750978D01*
X102710199Y-61732143D01*
X102711389Y-61729020D01*
X102717805Y-61721409D01*
X102731465Y-61715746D01*
X102755999Y-61711749D01*
X102795038Y-61709134D01*
X102852213Y-61707616D01*
X102931154Y-61706914D01*
X103035492Y-61706743D01*
X103352799Y-61706743D01*
X103367839Y-61782943D01*
G37*
X103367839Y-61782943D02*
X103369642Y-61792160D01*
X103378980Y-61841109D01*
X103391669Y-61908795D01*
X103406273Y-61987522D01*
X103421355Y-62069600D01*
X103427422Y-62101922D01*
X103442181Y-62174145D01*
X103456137Y-62234334D01*
X103467952Y-62276960D01*
X103476287Y-62296490D01*
X103489905Y-62305340D01*
X103525938Y-62321452D01*
X103572572Y-62337935D01*
X103590034Y-62343737D01*
X103647358Y-62365094D01*
X103715201Y-62392641D01*
X103782355Y-62421893D01*
X103817430Y-62437537D01*
X103869822Y-62459826D01*
X103909058Y-62475143D01*
X103928563Y-62480838D01*
X103930036Y-62480522D01*
X103950729Y-62469719D01*
X103990665Y-62445362D01*
X104045972Y-62409919D01*
X104112781Y-62365864D01*
X104187220Y-62315668D01*
X104429623Y-62150499D01*
X104646983Y-62367497D01*
X104667899Y-62388484D01*
X104730505Y-62452658D01*
X104784495Y-62510010D01*
X104826826Y-62557180D01*
X104854457Y-62590808D01*
X104864343Y-62607533D01*
X104856821Y-62625697D01*
X104835227Y-62663735D01*
X104802151Y-62717274D01*
X104760191Y-62782116D01*
X104711943Y-62854060D01*
X104664291Y-62924725D01*
X104622328Y-62988474D01*
X104589165Y-63040487D01*
X104567378Y-63076721D01*
X104559543Y-63093133D01*
X104559614Y-63094095D01*
X104567338Y-63115897D01*
X104585323Y-63154560D01*
X104610013Y-63202388D01*
X104610284Y-63202890D01*
X104642099Y-63266413D01*
X104657642Y-63309940D01*
X104657685Y-63336948D01*
X104643000Y-63350910D01*
X104628544Y-63356820D01*
X104589831Y-63372771D01*
X104530316Y-63397340D01*
X104453165Y-63429221D01*
X104361541Y-63467107D01*
X104258607Y-63509690D01*
X104147526Y-63555663D01*
X104046472Y-63597333D01*
X103942780Y-63639732D01*
X103850119Y-63677244D01*
X103771642Y-63708612D01*
X103710500Y-63732575D01*
X103669843Y-63747877D01*
X103652825Y-63753257D01*
X103637219Y-63742982D01*
X103611162Y-63714437D01*
X103580887Y-63674029D01*
X103501684Y-63577021D01*
X103400475Y-63490207D01*
X103289116Y-63426678D01*
X103170893Y-63386823D01*
X103049095Y-63371035D01*
X102927010Y-63379704D01*
X102807925Y-63413222D01*
X102695129Y-63471979D01*
X102591911Y-63556368D01*
X102551713Y-63600369D01*
X102480638Y-63705789D01*
X102434301Y-63818590D01*
X102411599Y-63935475D01*
X102411428Y-64053147D01*
X102432687Y-64168310D01*
X102474270Y-64277665D01*
X102535076Y-64377917D01*
X102614001Y-64465767D01*
X102709941Y-64537920D01*
X102821795Y-64591078D01*
X102948457Y-64621943D01*
X103009507Y-64627608D01*
X103141776Y-64619815D01*
X103267266Y-64584716D01*
X103383759Y-64523351D01*
X103489039Y-64436757D01*
X103580887Y-64325971D01*
X103609930Y-64287069D01*
X103636272Y-64257896D01*
X103652800Y-64246743D01*
X103667209Y-64251190D01*
X103705815Y-64265622D01*
X103765201Y-64288827D01*
X103842215Y-64319548D01*
X103933703Y-64356526D01*
X104036516Y-64398504D01*
X104147502Y-64444222D01*
X104248072Y-64485822D01*
X104351947Y-64528778D01*
X104444819Y-64567171D01*
X104523525Y-64599695D01*
X104584899Y-64625042D01*
X104625779Y-64641905D01*
X104643000Y-64648975D01*
X104643204Y-64649057D01*
X104657745Y-64663202D01*
X104657579Y-64690341D01*
X104641927Y-64733977D01*
X104610013Y-64797612D01*
X104607326Y-64802621D01*
X104583150Y-64849875D01*
X104566037Y-64887189D01*
X104559543Y-64906867D01*
X104567218Y-64922995D01*
X104588871Y-64959041D01*
X104621928Y-65010908D01*
X104663810Y-65074555D01*
X104711943Y-65145940D01*
X104759131Y-65216276D01*
X104801267Y-65281330D01*
X104834578Y-65335180D01*
X104856469Y-65373626D01*
X104864343Y-65392466D01*
X104863343Y-65395675D01*
X104847584Y-65418046D01*
X104815033Y-65456267D01*
X104768733Y-65506979D01*
X104711726Y-65566819D01*
X104647058Y-65632429D01*
X104429772Y-65849352D01*
X104181253Y-65680399D01*
X103932733Y-65511447D01*
X103821595Y-65562817D01*
X103821266Y-65562969D01*
X103750418Y-65593817D01*
X103671523Y-65625339D01*
X103601600Y-65650734D01*
X103590322Y-65654577D01*
X103537967Y-65673953D01*
X103497283Y-65691426D01*
X103476287Y-65703612D01*
X103473322Y-65708574D01*
X103463375Y-65738366D01*
X103450505Y-65788953D01*
X103436053Y-65854806D01*
X103421355Y-65930400D01*
X103417210Y-65953043D01*
X103402116Y-66034962D01*
X103387899Y-66111400D01*
X103375995Y-66174663D01*
X103367839Y-66217057D01*
X103352799Y-66293257D01*
X103035492Y-66293257D01*
X102996476Y-66293240D01*
X102901292Y-66292918D01*
X102830255Y-66291967D01*
X102779734Y-66290104D01*
X102746098Y-66287045D01*
X102725718Y-66282506D01*
X102714962Y-66276205D01*
X102710199Y-66267857D01*
X102708270Y-66259776D01*
X102701445Y-66226828D01*
X102691022Y-66174264D01*
X102678018Y-66107431D01*
X102663449Y-66031672D01*
X102648333Y-65952335D01*
X102633685Y-65874763D01*
X102620523Y-65804302D01*
X102609863Y-65746298D01*
X102602721Y-65706096D01*
X102600114Y-65689041D01*
X102598541Y-65687888D01*
X102578119Y-65678615D01*
X102539045Y-65662568D01*
X102487629Y-65642365D01*
X102418353Y-65614328D01*
X102338290Y-65579814D01*
X102267728Y-65547462D01*
X102251889Y-65540048D01*
X102202293Y-65519245D01*
X102164038Y-65506781D01*
X102144356Y-65505137D01*
X102142962Y-65505985D01*
X102122420Y-65519452D01*
X102082516Y-65546150D01*
X102027140Y-65583461D01*
X101960177Y-65628766D01*
X101885517Y-65679448D01*
X101800692Y-65736555D01*
X101734800Y-65779393D01*
X101686478Y-65808540D01*
X101652733Y-65825683D01*
X101630572Y-65832505D01*
X101617002Y-65830694D01*
X101615984Y-65830085D01*
X101596210Y-65813703D01*
X101560175Y-65780305D01*
X101511451Y-65733329D01*
X101453612Y-65676214D01*
X101390227Y-65612397D01*
X101325905Y-65546198D01*
X101265447Y-65481352D01*
X101224655Y-65433701D01*
X101202484Y-65402010D01*
X101197889Y-65385042D01*
X101198921Y-65382825D01*
X101212837Y-65359476D01*
X101240030Y-65317088D01*
X101277889Y-65259631D01*
X101323803Y-65191077D01*
X101375160Y-65115399D01*
X101543626Y-64868702D01*
X101493062Y-64757294D01*
X101491597Y-64754057D01*
X101461965Y-64685657D01*
X101432493Y-64613093D01*
X101409358Y-64551543D01*
X101409262Y-64551271D01*
X101391367Y-64502405D01*
X101376253Y-64464788D01*
X101367184Y-64446543D01*
X101366855Y-64446248D01*
X101348282Y-64440054D01*
X101306045Y-64429861D01*
X101244696Y-64416652D01*
X101168789Y-64401410D01*
X101082875Y-64385119D01*
X101079796Y-64384551D01*
X100992128Y-64368287D01*
X100912741Y-64353392D01*
X100846701Y-64340829D01*
X100799079Y-64331562D01*
X100774943Y-64326556D01*
X100773605Y-64326236D01*
X100763273Y-64322940D01*
X100755506Y-64316262D01*
X100749940Y-64302538D01*
X100746207Y-64278105D01*
X100743942Y-64239298D01*
X100742778Y-64182454D01*
X100742348Y-64103910D01*
X100742286Y-64000000D01*
X100742286Y-63986944D01*
X100742371Y-63886067D01*
X100742865Y-63810144D01*
X100744135Y-63755509D01*
X100746547Y-63718500D01*
X100750467Y-63695453D01*
X100756262Y-63682704D01*
X100764299Y-63676589D01*
X100774943Y-63673444D01*
X100775325Y-63673354D01*
X100800347Y-63668186D01*
X100848681Y-63658791D01*
X100915260Y-63646133D01*
X100995014Y-63631175D01*
X101082875Y-63614881D01*
X101090064Y-63613552D01*
X101175340Y-63597309D01*
X101250242Y-63582195D01*
X101310219Y-63569192D01*
X101350717Y-63559285D01*
X101367184Y-63553456D01*
X101367210Y-63553425D01*
X101376320Y-63535057D01*
X101391457Y-63497360D01*
X101409358Y-63448457D01*
X101410330Y-63445703D01*
X101433959Y-63383183D01*
X101463595Y-63310457D01*
X101493062Y-63242706D01*
X101543626Y-63131297D01*
X101375160Y-62884601D01*
X101363311Y-62867225D01*
X101312947Y-62792798D01*
X101268612Y-62726386D01*
X101232916Y-62671961D01*
X101208471Y-62633494D01*
X101197889Y-62614958D01*
X101200315Y-62602257D01*
X101219110Y-62573421D01*
X101256330Y-62528857D01*
X101313020Y-62467330D01*
X101390227Y-62387602D01*
X101397255Y-62380468D01*
X101460222Y-62317204D01*
X101517268Y-62261010D01*
X101564817Y-62215323D01*
X101599297Y-62183586D01*
X101617131Y-62169236D01*
X101617217Y-62169190D01*
X101630795Y-62167367D01*
X101652820Y-62174090D01*
X101686304Y-62191054D01*
X101734261Y-62219956D01*
X101799704Y-62262492D01*
X101885645Y-62320356D01*
X101900151Y-62330217D01*
X101973635Y-62380087D01*
X102038687Y-62424095D01*
X102091417Y-62459620D01*
X102127936Y-62484041D01*
X102144356Y-62494736D01*
X102147834Y-62495542D01*
X102173785Y-62490482D01*
X102216159Y-62475323D01*
X102267728Y-62452537D01*
X102335170Y-62421571D01*
X102415195Y-62386996D01*
X102487629Y-62357634D01*
X102506377Y-62350355D01*
X102554246Y-62331290D01*
X102587596Y-62317285D01*
X102600114Y-62310959D01*
X102601050Y-62303975D01*
X102606461Y-62272587D01*
X102615806Y-62221213D01*
X102628069Y-62155198D01*
X102642232Y-62079887D01*
X102657280Y-62000625D01*
X102672195Y-61922757D01*
X102685961Y-61851630D01*
X102697562Y-61792588D01*
X102705980Y-61750978D01*
X102710199Y-61732143D01*
X102711389Y-61729020D01*
X102717805Y-61721409D01*
X102731465Y-61715746D01*
X102755999Y-61711749D01*
X102795038Y-61709134D01*
X102852213Y-61707616D01*
X102931154Y-61706914D01*
X103035492Y-61706743D01*
X103352799Y-61706743D01*
X103367839Y-61782943D01*
G36*
X105791305Y-66859693D02*
G01*
X105867521Y-66863238D01*
X105923294Y-66872517D01*
X105964613Y-66889625D01*
X105997467Y-66916656D01*
X106027846Y-66955708D01*
X106041660Y-66980555D01*
X106050965Y-67020385D01*
X106050230Y-67076335D01*
X106047283Y-67107615D01*
X106038283Y-67145347D01*
X106018720Y-67175506D01*
X105982267Y-67210592D01*
X105976943Y-67215280D01*
X105935969Y-67246823D01*
X105900283Y-67261872D01*
X105857966Y-67265714D01*
X105795779Y-67265714D01*
X105812182Y-67222258D01*
X105831356Y-67190576D01*
X105876347Y-67163038D01*
X105890752Y-67157289D01*
X105931546Y-67125145D01*
X105952081Y-67081389D01*
X105950235Y-67033746D01*
X105923886Y-66989943D01*
X105907455Y-66974889D01*
X105882667Y-66961237D01*
X105860144Y-66965507D01*
X105836964Y-66990084D01*
X105810202Y-67037349D01*
X105776934Y-67109686D01*
X105711816Y-67258457D01*
X105647308Y-67262405D01*
X105599064Y-67260662D01*
X105538096Y-67238719D01*
X105504497Y-67211021D01*
X105466966Y-67153595D01*
X105448006Y-67085473D01*
X105448135Y-67079410D01*
X105546364Y-67079410D01*
X105569109Y-67131856D01*
X105580481Y-67146391D01*
X105606220Y-67163990D01*
X105631657Y-67156632D01*
X105658814Y-67123152D01*
X105689714Y-67062386D01*
X105694190Y-67052331D01*
X105715017Y-67004249D01*
X105729665Y-66968274D01*
X105735200Y-66951556D01*
X105731126Y-66949023D01*
X105706247Y-66948007D01*
X105666257Y-66951631D01*
X105627152Y-66960758D01*
X105577884Y-66989227D01*
X105550122Y-67030322D01*
X105546364Y-67079410D01*
X105448135Y-67079410D01*
X105449507Y-67015053D01*
X105473355Y-66950733D01*
X105482513Y-66936574D01*
X105510849Y-66904096D01*
X105546695Y-66881884D01*
X105595384Y-66868196D01*
X105662249Y-66861285D01*
X105706247Y-66860372D01*
X105752622Y-66859410D01*
X105791305Y-66859693D01*
G37*
X105791305Y-66859693D02*
X105867521Y-66863238D01*
X105923294Y-66872517D01*
X105964613Y-66889625D01*
X105997467Y-66916656D01*
X106027846Y-66955708D01*
X106041660Y-66980555D01*
X106050965Y-67020385D01*
X106050230Y-67076335D01*
X106047283Y-67107615D01*
X106038283Y-67145347D01*
X106018720Y-67175506D01*
X105982267Y-67210592D01*
X105976943Y-67215280D01*
X105935969Y-67246823D01*
X105900283Y-67261872D01*
X105857966Y-67265714D01*
X105795779Y-67265714D01*
X105812182Y-67222258D01*
X105831356Y-67190576D01*
X105876347Y-67163038D01*
X105890752Y-67157289D01*
X105931546Y-67125145D01*
X105952081Y-67081389D01*
X105950235Y-67033746D01*
X105923886Y-66989943D01*
X105907455Y-66974889D01*
X105882667Y-66961237D01*
X105860144Y-66965507D01*
X105836964Y-66990084D01*
X105810202Y-67037349D01*
X105776934Y-67109686D01*
X105711816Y-67258457D01*
X105647308Y-67262405D01*
X105599064Y-67260662D01*
X105538096Y-67238719D01*
X105504497Y-67211021D01*
X105466966Y-67153595D01*
X105448006Y-67085473D01*
X105448135Y-67079410D01*
X105546364Y-67079410D01*
X105569109Y-67131856D01*
X105580481Y-67146391D01*
X105606220Y-67163990D01*
X105631657Y-67156632D01*
X105658814Y-67123152D01*
X105689714Y-67062386D01*
X105694190Y-67052331D01*
X105715017Y-67004249D01*
X105729665Y-66968274D01*
X105735200Y-66951556D01*
X105731126Y-66949023D01*
X105706247Y-66948007D01*
X105666257Y-66951631D01*
X105627152Y-66960758D01*
X105577884Y-66989227D01*
X105550122Y-67030322D01*
X105546364Y-67079410D01*
X105448135Y-67079410D01*
X105449507Y-67015053D01*
X105473355Y-66950733D01*
X105482513Y-66936574D01*
X105510849Y-66904096D01*
X105546695Y-66881884D01*
X105595384Y-66868196D01*
X105662249Y-66861285D01*
X105706247Y-66860372D01*
X105752622Y-66859410D01*
X105791305Y-66859693D01*
G36*
X105750935Y-60734299D02*
G01*
X105821119Y-60735086D01*
X105870022Y-60737790D01*
X105904178Y-60743394D01*
X105930124Y-60752881D01*
X105954397Y-60767232D01*
X105959433Y-60770763D01*
X105999143Y-60808122D01*
X106029092Y-60850689D01*
X106038810Y-60872548D01*
X106055020Y-60951092D01*
X106044535Y-61028769D01*
X106008707Y-61100355D01*
X105948887Y-61160626D01*
X105940873Y-61165714D01*
X105894342Y-61182270D01*
X105829552Y-61193427D01*
X105754727Y-61198840D01*
X105678096Y-61198167D01*
X105607882Y-61191063D01*
X105552312Y-61177185D01*
X105515301Y-61159351D01*
X105457733Y-61109145D01*
X105421962Y-61041115D01*
X105410426Y-60962992D01*
X105546514Y-60962992D01*
X105547635Y-60976560D01*
X105568194Y-61014570D01*
X105614299Y-61039688D01*
X105685513Y-61051752D01*
X105781399Y-61050598D01*
X105787569Y-61050134D01*
X105840478Y-61043371D01*
X105874029Y-61031329D01*
X105897016Y-61010995D01*
X105918548Y-60976903D01*
X105919680Y-60943186D01*
X105894857Y-60908457D01*
X105888325Y-60902416D01*
X105868779Y-60890583D01*
X105840386Y-60883596D01*
X105796430Y-60880273D01*
X105730192Y-60879429D01*
X105668150Y-60880875D01*
X105609042Y-60888093D01*
X105571686Y-60902994D01*
X105552152Y-60927364D01*
X105546514Y-60962992D01*
X105410426Y-60962992D01*
X105409665Y-60957842D01*
X105410331Y-60935602D01*
X105423947Y-60870109D01*
X105458249Y-60816313D01*
X105517338Y-60766943D01*
X105521722Y-60764005D01*
X105545299Y-60750713D01*
X105571949Y-60742068D01*
X105608159Y-60737096D01*
X105660413Y-60734826D01*
X105730192Y-60734322D01*
X105735200Y-60734286D01*
X105750935Y-60734299D01*
G37*
X105750935Y-60734299D02*
X105821119Y-60735086D01*
X105870022Y-60737790D01*
X105904178Y-60743394D01*
X105930124Y-60752881D01*
X105954397Y-60767232D01*
X105959433Y-60770763D01*
X105999143Y-60808122D01*
X106029092Y-60850689D01*
X106038810Y-60872548D01*
X106055020Y-60951092D01*
X106044535Y-61028769D01*
X106008707Y-61100355D01*
X105948887Y-61160626D01*
X105940873Y-61165714D01*
X105894342Y-61182270D01*
X105829552Y-61193427D01*
X105754727Y-61198840D01*
X105678096Y-61198167D01*
X105607882Y-61191063D01*
X105552312Y-61177185D01*
X105515301Y-61159351D01*
X105457733Y-61109145D01*
X105421962Y-61041115D01*
X105410426Y-60962992D01*
X105546514Y-60962992D01*
X105547635Y-60976560D01*
X105568194Y-61014570D01*
X105614299Y-61039688D01*
X105685513Y-61051752D01*
X105781399Y-61050598D01*
X105787569Y-61050134D01*
X105840478Y-61043371D01*
X105874029Y-61031329D01*
X105897016Y-61010995D01*
X105918548Y-60976903D01*
X105919680Y-60943186D01*
X105894857Y-60908457D01*
X105888325Y-60902416D01*
X105868779Y-60890583D01*
X105840386Y-60883596D01*
X105796430Y-60880273D01*
X105730192Y-60879429D01*
X105668150Y-60880875D01*
X105609042Y-60888093D01*
X105571686Y-60902994D01*
X105552152Y-60927364D01*
X105546514Y-60962992D01*
X105410426Y-60962992D01*
X105409665Y-60957842D01*
X105410331Y-60935602D01*
X105423947Y-60870109D01*
X105458249Y-60816313D01*
X105517338Y-60766943D01*
X105521722Y-60764005D01*
X105545299Y-60750713D01*
X105571949Y-60742068D01*
X105608159Y-60737096D01*
X105660413Y-60734826D01*
X105730192Y-60734322D01*
X105735200Y-60734286D01*
X105750935Y-60734299D01*
G36*
X105919983Y-65873256D02*
G01*
X105975845Y-65897576D01*
X106021355Y-65943432D01*
X106040727Y-65980562D01*
X106054292Y-66052289D01*
X106052462Y-66092148D01*
X106042568Y-66129047D01*
X106021806Y-66143203D01*
X105987613Y-66137909D01*
X105983092Y-66136369D01*
X105959116Y-66124158D01*
X105950042Y-66103826D01*
X105950649Y-66065092D01*
X105951474Y-66037743D01*
X105944392Y-66005743D01*
X105923219Y-65983818D01*
X105897152Y-65971330D01*
X105869845Y-65969938D01*
X105869685Y-65970002D01*
X105854930Y-65986193D01*
X105833457Y-66020845D01*
X105809458Y-66065679D01*
X105787125Y-66112418D01*
X105770652Y-66152783D01*
X105764229Y-66178496D01*
X105770518Y-66182321D01*
X105800115Y-66187136D01*
X105848447Y-66190434D01*
X105909372Y-66191657D01*
X105951542Y-66191942D01*
X106004653Y-66193282D01*
X106041025Y-66195472D01*
X106054514Y-66198231D01*
X106049981Y-66212656D01*
X106037670Y-66241774D01*
X106020826Y-66278743D01*
X105804721Y-66278743D01*
X105749327Y-66278507D01*
X105665207Y-66276271D01*
X105602800Y-66270577D01*
X105557358Y-66260097D01*
X105524133Y-66243503D01*
X105498378Y-66219469D01*
X105475344Y-66186667D01*
X105456335Y-66144876D01*
X105444914Y-66067713D01*
X105446220Y-66032505D01*
X105454121Y-66001401D01*
X105473817Y-65972441D01*
X105510484Y-65935169D01*
X105536378Y-65911199D01*
X105569997Y-65886230D01*
X105601506Y-65874969D01*
X105641485Y-65872343D01*
X105706917Y-65872343D01*
X105683842Y-65916965D01*
X105655724Y-65952327D01*
X105617848Y-65976549D01*
X105607551Y-65980709D01*
X105567637Y-66012406D01*
X105547624Y-66056446D01*
X105549572Y-66104469D01*
X105575543Y-66148114D01*
X105596635Y-66166580D01*
X105623619Y-66177337D01*
X105647634Y-66165822D01*
X105671791Y-66130019D01*
X105699199Y-66067910D01*
X105702985Y-66058485D01*
X105727759Y-66001942D01*
X105752189Y-65953420D01*
X105771486Y-65922549D01*
X105805953Y-65891629D01*
X105860957Y-65871073D01*
X105919983Y-65873256D01*
G37*
X105919983Y-65873256D02*
X105975845Y-65897576D01*
X106021355Y-65943432D01*
X106040727Y-65980562D01*
X106054292Y-66052289D01*
X106052462Y-66092148D01*
X106042568Y-66129047D01*
X106021806Y-66143203D01*
X105987613Y-66137909D01*
X105983092Y-66136369D01*
X105959116Y-66124158D01*
X105950042Y-66103826D01*
X105950649Y-66065092D01*
X105951474Y-66037743D01*
X105944392Y-66005743D01*
X105923219Y-65983818D01*
X105897152Y-65971330D01*
X105869845Y-65969938D01*
X105869685Y-65970002D01*
X105854930Y-65986193D01*
X105833457Y-66020845D01*
X105809458Y-66065679D01*
X105787125Y-66112418D01*
X105770652Y-66152783D01*
X105764229Y-66178496D01*
X105770518Y-66182321D01*
X105800115Y-66187136D01*
X105848447Y-66190434D01*
X105909372Y-66191657D01*
X105951542Y-66191942D01*
X106004653Y-66193282D01*
X106041025Y-66195472D01*
X106054514Y-66198231D01*
X106049981Y-66212656D01*
X106037670Y-66241774D01*
X106020826Y-66278743D01*
X105804721Y-66278743D01*
X105749327Y-66278507D01*
X105665207Y-66276271D01*
X105602800Y-66270577D01*
X105557358Y-66260097D01*
X105524133Y-66243503D01*
X105498378Y-66219469D01*
X105475344Y-66186667D01*
X105456335Y-66144876D01*
X105444914Y-66067713D01*
X105446220Y-66032505D01*
X105454121Y-66001401D01*
X105473817Y-65972441D01*
X105510484Y-65935169D01*
X105536378Y-65911199D01*
X105569997Y-65886230D01*
X105601506Y-65874969D01*
X105641485Y-65872343D01*
X105706917Y-65872343D01*
X105683842Y-65916965D01*
X105655724Y-65952327D01*
X105617848Y-65976549D01*
X105607551Y-65980709D01*
X105567637Y-66012406D01*
X105547624Y-66056446D01*
X105549572Y-66104469D01*
X105575543Y-66148114D01*
X105596635Y-66166580D01*
X105623619Y-66177337D01*
X105647634Y-66165822D01*
X105671791Y-66130019D01*
X105699199Y-66067910D01*
X105702985Y-66058485D01*
X105727759Y-66001942D01*
X105752189Y-65953420D01*
X105771486Y-65922549D01*
X105805953Y-65891629D01*
X105860957Y-65871073D01*
X105919983Y-65873256D01*
G36*
X105913000Y-61288748D02*
G01*
X105945339Y-61288349D01*
X106053455Y-61287071D01*
X106136186Y-61286815D01*
X106196426Y-61288366D01*
X106237073Y-61292510D01*
X106261023Y-61300036D01*
X106271171Y-61311729D01*
X106270414Y-61328376D01*
X106261648Y-61350764D01*
X106247769Y-61379679D01*
X106244808Y-61385858D01*
X106230311Y-61411587D01*
X106213065Y-61425024D01*
X106184308Y-61430166D01*
X106135283Y-61431010D01*
X106047257Y-61431048D01*
X106047257Y-61521724D01*
X106044815Y-61577502D01*
X106034908Y-61621360D01*
X106014886Y-61657782D01*
X106012929Y-61660497D01*
X105979869Y-61697454D01*
X105939931Y-61723174D01*
X105887657Y-61739394D01*
X105817588Y-61747852D01*
X105724267Y-61750286D01*
X105656169Y-61749747D01*
X105604587Y-61747293D01*
X105568816Y-61741842D01*
X105542015Y-61732314D01*
X105517338Y-61717629D01*
X105498480Y-61704148D01*
X105447568Y-61655201D01*
X105419918Y-61599744D01*
X105411165Y-61530072D01*
X105411776Y-61524491D01*
X105546514Y-61524491D01*
X105548094Y-61541650D01*
X105563766Y-61571340D01*
X105598691Y-61590969D01*
X105655901Y-61601812D01*
X105738430Y-61605143D01*
X105751697Y-61605118D01*
X105811584Y-61603739D01*
X105850732Y-61599313D01*
X105876153Y-61590539D01*
X105894857Y-61576114D01*
X105895750Y-61575216D01*
X105919952Y-61539763D01*
X105917567Y-61505404D01*
X105888260Y-61466597D01*
X105878244Y-61457105D01*
X105857708Y-61443124D01*
X105830997Y-61435240D01*
X105790499Y-61431755D01*
X105728603Y-61430971D01*
X105691130Y-61431650D01*
X105622980Y-61439017D01*
X105578330Y-61455832D01*
X105553926Y-61483766D01*
X105546514Y-61524491D01*
X105411776Y-61524491D01*
X105419890Y-61450336D01*
X105451185Y-61381405D01*
X105506381Y-61326887D01*
X105512224Y-61322777D01*
X105527753Y-61313192D01*
X105545498Y-61305849D01*
X105569290Y-61300388D01*
X105602958Y-61296450D01*
X105650333Y-61293677D01*
X105715245Y-61291708D01*
X105728603Y-61291472D01*
X105801524Y-61290185D01*
X105913000Y-61288748D01*
G37*
X105913000Y-61288748D02*
X105945339Y-61288349D01*
X106053455Y-61287071D01*
X106136186Y-61286815D01*
X106196426Y-61288366D01*
X106237073Y-61292510D01*
X106261023Y-61300036D01*
X106271171Y-61311729D01*
X106270414Y-61328376D01*
X106261648Y-61350764D01*
X106247769Y-61379679D01*
X106244808Y-61385858D01*
X106230311Y-61411587D01*
X106213065Y-61425024D01*
X106184308Y-61430166D01*
X106135283Y-61431010D01*
X106047257Y-61431048D01*
X106047257Y-61521724D01*
X106044815Y-61577502D01*
X106034908Y-61621360D01*
X106014886Y-61657782D01*
X106012929Y-61660497D01*
X105979869Y-61697454D01*
X105939931Y-61723174D01*
X105887657Y-61739394D01*
X105817588Y-61747852D01*
X105724267Y-61750286D01*
X105656169Y-61749747D01*
X105604587Y-61747293D01*
X105568816Y-61741842D01*
X105542015Y-61732314D01*
X105517338Y-61717629D01*
X105498480Y-61704148D01*
X105447568Y-61655201D01*
X105419918Y-61599744D01*
X105411165Y-61530072D01*
X105411776Y-61524491D01*
X105546514Y-61524491D01*
X105548094Y-61541650D01*
X105563766Y-61571340D01*
X105598691Y-61590969D01*
X105655901Y-61601812D01*
X105738430Y-61605143D01*
X105751697Y-61605118D01*
X105811584Y-61603739D01*
X105850732Y-61599313D01*
X105876153Y-61590539D01*
X105894857Y-61576114D01*
X105895750Y-61575216D01*
X105919952Y-61539763D01*
X105917567Y-61505404D01*
X105888260Y-61466597D01*
X105878244Y-61457105D01*
X105857708Y-61443124D01*
X105830997Y-61435240D01*
X105790499Y-61431755D01*
X105728603Y-61430971D01*
X105691130Y-61431650D01*
X105622980Y-61439017D01*
X105578330Y-61455832D01*
X105553926Y-61483766D01*
X105546514Y-61524491D01*
X105411776Y-61524491D01*
X105419890Y-61450336D01*
X105451185Y-61381405D01*
X105506381Y-61326887D01*
X105512224Y-61322777D01*
X105527753Y-61313192D01*
X105545498Y-61305849D01*
X105569290Y-61300388D01*
X105602958Y-61296450D01*
X105650333Y-61293677D01*
X105715245Y-61291708D01*
X105728603Y-61291472D01*
X105801524Y-61290185D01*
X105913000Y-61288748D01*
G36*
X105999934Y-64278006D02*
G01*
X106040948Y-64281836D01*
X106054514Y-64288111D01*
X106050452Y-64307102D01*
X106038144Y-64339362D01*
X106034545Y-64346959D01*
X106026398Y-64358824D01*
X106013004Y-64367006D01*
X105989608Y-64372357D01*
X105951455Y-64375731D01*
X105893790Y-64377981D01*
X105811857Y-64379960D01*
X105787907Y-64380502D01*
X105712266Y-64382597D01*
X105659328Y-64385317D01*
X105624075Y-64389485D01*
X105601487Y-64395921D01*
X105586544Y-64405450D01*
X105574227Y-64418894D01*
X105552634Y-64458695D01*
X105548476Y-64507659D01*
X105564999Y-64551471D01*
X105599210Y-64582992D01*
X105648114Y-64595086D01*
X105661407Y-64595422D01*
X105685472Y-64602028D01*
X105689144Y-64621530D01*
X105674813Y-64659717D01*
X105670217Y-64668562D01*
X105643186Y-64692466D01*
X105602994Y-64692939D01*
X105547409Y-64670164D01*
X105517117Y-64649273D01*
X105474084Y-64595858D01*
X105449755Y-64529926D01*
X105446443Y-64459426D01*
X105466467Y-64392309D01*
X105469003Y-64387727D01*
X105498057Y-64350296D01*
X105535410Y-64316830D01*
X105543852Y-64310993D01*
X105563553Y-64299835D01*
X105586935Y-64291864D01*
X105619067Y-64286382D01*
X105665019Y-64282693D01*
X105729859Y-64280101D01*
X105818657Y-64277908D01*
X105833669Y-64277598D01*
X105930999Y-64276600D01*
X105999934Y-64278006D01*
G37*
X105999934Y-64278006D02*
X106040948Y-64281836D01*
X106054514Y-64288111D01*
X106050452Y-64307102D01*
X106038144Y-64339362D01*
X106034545Y-64346959D01*
X106026398Y-64358824D01*
X106013004Y-64367006D01*
X105989608Y-64372357D01*
X105951455Y-64375731D01*
X105893790Y-64377981D01*
X105811857Y-64379960D01*
X105787907Y-64380502D01*
X105712266Y-64382597D01*
X105659328Y-64385317D01*
X105624075Y-64389485D01*
X105601487Y-64395921D01*
X105586544Y-64405450D01*
X105574227Y-64418894D01*
X105552634Y-64458695D01*
X105548476Y-64507659D01*
X105564999Y-64551471D01*
X105599210Y-64582992D01*
X105648114Y-64595086D01*
X105661407Y-64595422D01*
X105685472Y-64602028D01*
X105689144Y-64621530D01*
X105674813Y-64659717D01*
X105670217Y-64668562D01*
X105643186Y-64692466D01*
X105602994Y-64692939D01*
X105547409Y-64670164D01*
X105517117Y-64649273D01*
X105474084Y-64595858D01*
X105449755Y-64529926D01*
X105446443Y-64459426D01*
X105466467Y-64392309D01*
X105469003Y-64387727D01*
X105498057Y-64350296D01*
X105535410Y-64316830D01*
X105543852Y-64310993D01*
X105563553Y-64299835D01*
X105586935Y-64291864D01*
X105619067Y-64286382D01*
X105665019Y-64282693D01*
X105729859Y-64280101D01*
X105818657Y-64277908D01*
X105833669Y-64277598D01*
X105930999Y-64276600D01*
X105999934Y-64278006D01*
G36*
X106011127Y-65323188D02*
G01*
X106021427Y-65333680D01*
X106044320Y-65362745D01*
X106051735Y-65392057D01*
X106048321Y-65435674D01*
X106046114Y-65453432D01*
X106041445Y-65499233D01*
X106039585Y-65531257D01*
X106039869Y-65540756D01*
X106042948Y-65579726D01*
X106048321Y-65626840D01*
X106050168Y-65641915D01*
X106050893Y-65679890D01*
X106039429Y-65707675D01*
X106011127Y-65739326D01*
X105965196Y-65785257D01*
X105705055Y-65785257D01*
X105628180Y-65784899D01*
X105554886Y-65783784D01*
X105496850Y-65782048D01*
X105458663Y-65779833D01*
X105444914Y-65777279D01*
X105444951Y-65776744D01*
X105451793Y-65758192D01*
X105466868Y-65726847D01*
X105488822Y-65684392D01*
X105717240Y-65680396D01*
X105945657Y-65676400D01*
X105945657Y-65589314D01*
X105695286Y-65585343D01*
X105627227Y-65584084D01*
X105554482Y-65582282D01*
X105496730Y-65580329D01*
X105458648Y-65578388D01*
X105444914Y-65576623D01*
X105444962Y-65576115D01*
X105450015Y-65558518D01*
X105460849Y-65526166D01*
X105476783Y-65480457D01*
X105696706Y-65480235D01*
X105734909Y-65480012D01*
X105809146Y-65478469D01*
X105871145Y-65475708D01*
X105915308Y-65472023D01*
X105936041Y-65467708D01*
X105947131Y-65452268D01*
X105950556Y-65420759D01*
X105945657Y-65386114D01*
X105695286Y-65382143D01*
X105631663Y-65380722D01*
X105556356Y-65377775D01*
X105497286Y-65373921D01*
X105458718Y-65369458D01*
X105444914Y-65364683D01*
X105449282Y-65346059D01*
X105461758Y-65314226D01*
X105478602Y-65277257D01*
X105965196Y-65277257D01*
X106011127Y-65323188D01*
G37*
X106011127Y-65323188D02*
X106021427Y-65333680D01*
X106044320Y-65362745D01*
X106051735Y-65392057D01*
X106048321Y-65435674D01*
X106046114Y-65453432D01*
X106041445Y-65499233D01*
X106039585Y-65531257D01*
X106039869Y-65540756D01*
X106042948Y-65579726D01*
X106048321Y-65626840D01*
X106050168Y-65641915D01*
X106050893Y-65679890D01*
X106039429Y-65707675D01*
X106011127Y-65739326D01*
X105965196Y-65785257D01*
X105705055Y-65785257D01*
X105628180Y-65784899D01*
X105554886Y-65783784D01*
X105496850Y-65782048D01*
X105458663Y-65779833D01*
X105444914Y-65777279D01*
X105444951Y-65776744D01*
X105451793Y-65758192D01*
X105466868Y-65726847D01*
X105488822Y-65684392D01*
X105717240Y-65680396D01*
X105945657Y-65676400D01*
X105945657Y-65589314D01*
X105695286Y-65585343D01*
X105627227Y-65584084D01*
X105554482Y-65582282D01*
X105496730Y-65580329D01*
X105458648Y-65578388D01*
X105444914Y-65576623D01*
X105444962Y-65576115D01*
X105450015Y-65558518D01*
X105460849Y-65526166D01*
X105476783Y-65480457D01*
X105696706Y-65480235D01*
X105734909Y-65480012D01*
X105809146Y-65478469D01*
X105871145Y-65475708D01*
X105915308Y-65472023D01*
X105936041Y-65467708D01*
X105947131Y-65452268D01*
X105950556Y-65420759D01*
X105945657Y-65386114D01*
X105695286Y-65382143D01*
X105631663Y-65380722D01*
X105556356Y-65377775D01*
X105497286Y-65373921D01*
X105458718Y-65369458D01*
X105444914Y-65364683D01*
X105449282Y-65346059D01*
X105461758Y-65314226D01*
X105478602Y-65277257D01*
X105965196Y-65277257D01*
X106011127Y-65323188D01*
G36*
X105769498Y-63274481D02*
G01*
X105862141Y-63275002D01*
X105940700Y-63275801D01*
X106001439Y-63276828D01*
X106040623Y-63278037D01*
X106054514Y-63279377D01*
X106054468Y-63279901D01*
X106049420Y-63297713D01*
X106038580Y-63330177D01*
X106022646Y-63375886D01*
X105818173Y-63375886D01*
X105737832Y-63376176D01*
X105679562Y-63377526D01*
X105639909Y-63380631D01*
X105613618Y-63386188D01*
X105595436Y-63394893D01*
X105580107Y-63407444D01*
X105571955Y-63416001D01*
X105549375Y-63462272D01*
X105551375Y-63513272D01*
X105578073Y-63560007D01*
X105584698Y-63566811D01*
X105598456Y-63577707D01*
X105616642Y-63585164D01*
X105644177Y-63589831D01*
X105685981Y-63592358D01*
X105746973Y-63593398D01*
X105832073Y-63593600D01*
X105875234Y-63593697D01*
X105946224Y-63594326D01*
X106003076Y-63595444D01*
X106040828Y-63596937D01*
X106054514Y-63598691D01*
X106054468Y-63599215D01*
X106049420Y-63617027D01*
X106038580Y-63649491D01*
X106022646Y-63695200D01*
X105817237Y-63695177D01*
X105798951Y-63695143D01*
X105703626Y-63693222D01*
X105631543Y-63687322D01*
X105577813Y-63675999D01*
X105537549Y-63657813D01*
X105505861Y-63631321D01*
X105477861Y-63595082D01*
X105460333Y-63559737D01*
X105446785Y-63503227D01*
X105446015Y-63447644D01*
X105459195Y-63404914D01*
X105461015Y-63401702D01*
X105460820Y-63391795D01*
X105445572Y-63385025D01*
X105410613Y-63380139D01*
X105351289Y-63375886D01*
X105229547Y-63368629D01*
X105249444Y-63321457D01*
X105269342Y-63274286D01*
X105666509Y-63274286D01*
X105769498Y-63274481D01*
G37*
X105769498Y-63274481D02*
X105862141Y-63275002D01*
X105940700Y-63275801D01*
X106001439Y-63276828D01*
X106040623Y-63278037D01*
X106054514Y-63279377D01*
X106054468Y-63279901D01*
X106049420Y-63297713D01*
X106038580Y-63330177D01*
X106022646Y-63375886D01*
X105818173Y-63375886D01*
X105737832Y-63376176D01*
X105679562Y-63377526D01*
X105639909Y-63380631D01*
X105613618Y-63386188D01*
X105595436Y-63394893D01*
X105580107Y-63407444D01*
X105571955Y-63416001D01*
X105549375Y-63462272D01*
X105551375Y-63513272D01*
X105578073Y-63560007D01*
X105584698Y-63566811D01*
X105598456Y-63577707D01*
X105616642Y-63585164D01*
X105644177Y-63589831D01*
X105685981Y-63592358D01*
X105746973Y-63593398D01*
X105832073Y-63593600D01*
X105875234Y-63593697D01*
X105946224Y-63594326D01*
X106003076Y-63595444D01*
X106040828Y-63596937D01*
X106054514Y-63598691D01*
X106054468Y-63599215D01*
X106049420Y-63617027D01*
X106038580Y-63649491D01*
X106022646Y-63695200D01*
X105817237Y-63695177D01*
X105798951Y-63695143D01*
X105703626Y-63693222D01*
X105631543Y-63687322D01*
X105577813Y-63675999D01*
X105537549Y-63657813D01*
X105505861Y-63631321D01*
X105477861Y-63595082D01*
X105460333Y-63559737D01*
X105446785Y-63503227D01*
X105446015Y-63447644D01*
X105459195Y-63404914D01*
X105461015Y-63401702D01*
X105460820Y-63391795D01*
X105445572Y-63385025D01*
X105410613Y-63380139D01*
X105351289Y-63375886D01*
X105229547Y-63368629D01*
X105249444Y-63321457D01*
X105269342Y-63274286D01*
X105666509Y-63274286D01*
X105769498Y-63274481D01*
%TO.C,G\u002A\u002A\u002A*%
G36*
X117905798Y-61970260D02*
G01*
X118027823Y-62183231D01*
X116740864Y-62191923D01*
X115453906Y-62200616D01*
X114936915Y-63105907D01*
X114419925Y-64011198D01*
X114936034Y-64913984D01*
X115452143Y-65816769D01*
X117547900Y-65816769D01*
X118064089Y-64913475D01*
X118580279Y-64010182D01*
X118450736Y-63783428D01*
X118435187Y-63756218D01*
X118374255Y-63649721D01*
X118305490Y-63529680D01*
X118236219Y-63408879D01*
X118173769Y-63300103D01*
X118026343Y-63043533D01*
X116990046Y-63048016D01*
X115953748Y-63052498D01*
X115680410Y-63530532D01*
X115407071Y-64008565D01*
X115456758Y-64095556D01*
X115472521Y-64123143D01*
X115506083Y-64181861D01*
X115551616Y-64261512D01*
X115606130Y-64356861D01*
X115666630Y-64462674D01*
X115730124Y-64573717D01*
X115953804Y-64964887D01*
X117046247Y-64964887D01*
X117319669Y-64486790D01*
X117593092Y-64008693D01*
X117527142Y-63904381D01*
X116457902Y-63904381D01*
X116377099Y-64043463D01*
X116370424Y-64054955D01*
X116320896Y-64140332D01*
X116268166Y-64231370D01*
X116222580Y-64310212D01*
X116148864Y-64437879D01*
X116028881Y-64227913D01*
X116014551Y-64202769D01*
X115973025Y-64129075D01*
X115939487Y-64068315D01*
X115917067Y-64026215D01*
X115908898Y-64008503D01*
X115914383Y-63996399D01*
X115934669Y-63958245D01*
X115967256Y-63899196D01*
X116009330Y-63824337D01*
X116058082Y-63738750D01*
X116207267Y-63478439D01*
X117782268Y-63478439D01*
X117933059Y-63743044D01*
X117935554Y-63747423D01*
X117990078Y-63844202D01*
X118028744Y-63915913D01*
X118053543Y-63967099D01*
X118066471Y-64002303D01*
X118069521Y-64026070D01*
X118064688Y-64042941D01*
X118058547Y-64053921D01*
X118035973Y-64093744D01*
X117999193Y-64158367D01*
X117950077Y-64244515D01*
X117890492Y-64348914D01*
X117822306Y-64468290D01*
X117747388Y-64599369D01*
X117667605Y-64738877D01*
X117289683Y-65399521D01*
X115710316Y-65399521D01*
X115332395Y-64738877D01*
X115280682Y-64648462D01*
X115203805Y-64513984D01*
X115132991Y-64390035D01*
X115070107Y-64279888D01*
X115017022Y-64186819D01*
X114975606Y-64114103D01*
X114947726Y-64065014D01*
X114935250Y-64042826D01*
X114935178Y-64042693D01*
X114932515Y-64030974D01*
X114935263Y-64012553D01*
X114944765Y-63984837D01*
X114962363Y-63945231D01*
X114989401Y-63891142D01*
X115027220Y-63819974D01*
X115077164Y-63729135D01*
X115140576Y-63616029D01*
X115218797Y-63478062D01*
X115313171Y-63312642D01*
X115710314Y-62617864D01*
X116990457Y-62613406D01*
X118270599Y-62608948D01*
X118670277Y-63308183D01*
X119069954Y-64007418D01*
X119037663Y-64068904D01*
X119030015Y-64082846D01*
X119005218Y-64126988D01*
X118965621Y-64196936D01*
X118912704Y-64290093D01*
X118847948Y-64403860D01*
X118772833Y-64535637D01*
X118688840Y-64682828D01*
X118597448Y-64842834D01*
X118500139Y-65013056D01*
X118398394Y-65190897D01*
X117791415Y-66251403D01*
X115208581Y-66251403D01*
X114568587Y-65131419D01*
X114568244Y-65130820D01*
X114464913Y-64949724D01*
X114366909Y-64777451D01*
X114275564Y-64616371D01*
X114192209Y-64468856D01*
X114118173Y-64337275D01*
X114054787Y-64224000D01*
X114003382Y-64131401D01*
X113965288Y-64061850D01*
X113941837Y-64017716D01*
X113934358Y-64001371D01*
X113943434Y-63985484D01*
X113968431Y-63941722D01*
X114007977Y-63872486D01*
X114060714Y-63780153D01*
X114125283Y-63667102D01*
X114200328Y-63535710D01*
X114284489Y-63388356D01*
X114376408Y-63227417D01*
X114474727Y-63055272D01*
X114578088Y-62874298D01*
X115216054Y-61757290D01*
X117783773Y-61757290D01*
X117905798Y-61970260D01*
G37*
%TD*%
M02*
